<svg width="70" height="70" viewBox="0 0 70 70" fill="none" xmlns="http://www.w3.org/2000/svg">
<circle cx="35" cy="35" r="35" fill="#FFFBCE"/>
<path d="M24.1923 28.4609C23.5273 28.461 22.8689 28.3301 22.2545 28.0756C21.6401 27.8212 21.0819 27.4483 20.6117 26.9781C20.1415 26.508 19.7685 25.9498 19.514 25.3355C19.2595 24.7212 19.1285 24.0627 19.1285 23.3978V22.2034C19.1285 22.0422 19.1926 21.8875 19.3067 21.7734C19.4207 21.6594 19.5754 21.5953 19.7366 21.5953C19.8979 21.5953 20.0526 21.6594 20.1666 21.7734C20.2807 21.8875 20.3448 22.0422 20.3448 22.2034V23.3978C20.3447 23.903 20.4441 24.4033 20.6375 24.8701C20.8308 25.3369 21.1142 25.7611 21.4715 26.1183C21.8288 26.4756 22.253 26.7589 22.7198 26.9522C23.1867 27.1454 23.687 27.2448 24.1923 27.2447C25.2122 27.2435 26.19 26.8379 26.9112 26.1167C27.6324 25.3955 28.038 24.4177 28.0391 23.3978V22.2162C28.0391 22.0549 28.1032 21.9003 28.2173 21.7862C28.3313 21.6722 28.486 21.6081 28.6473 21.6081C28.8085 21.6081 28.9632 21.6722 29.0773 21.7862C29.1913 21.9003 29.2554 22.0549 29.2554 22.2162V23.3972C29.2539 24.7396 28.72 26.0266 27.7709 26.9759C26.8217 27.9252 25.5347 28.4593 24.1923 28.4609Z" fill="black"/>
<path d="M31.2086 42.4936C30.9042 42.4937 30.6027 42.4338 30.3215 42.3173C30.0402 42.2008 29.7847 42.0301 29.5695 41.8148C29.3543 41.5995 29.1836 41.3439 29.0672 41.0626C28.9508 40.7814 28.8909 40.4799 28.8911 40.1755V35.8859C28.8911 35.7246 28.9552 35.5699 29.0692 35.4559C29.1832 35.3419 29.3379 35.2778 29.4992 35.2778C29.6605 35.2778 29.8152 35.3419 29.9292 35.4559C30.0432 35.5699 30.1073 35.7246 30.1073 35.8859V40.1755C30.1071 40.3212 30.1358 40.4655 30.1918 40.6001C30.2477 40.7346 30.3298 40.8567 30.4333 40.9594C30.5869 41.1135 30.7829 41.2184 30.9964 41.2606C31.2099 41.3028 31.4311 41.2804 31.6318 41.1962C31.8325 41.1121 32.0036 40.9701 32.1232 40.7883C32.2428 40.6064 32.3054 40.3931 32.3032 40.1755V34.722C32.3126 33.4405 31.8611 32.1984 31.031 31.2221C30.2009 30.2458 29.0476 29.6003 27.7813 29.4035H27.3763C27.215 29.4035 27.0603 29.3394 26.9463 29.2254C26.8323 29.1113 26.7682 28.9566 26.7682 28.7954C26.7682 28.6341 26.8323 28.4794 26.9463 28.3654C27.0603 28.2513 27.215 28.1873 27.3763 28.1873H27.8281C27.8582 28.1873 27.8883 28.1896 27.9181 28.1939C29.4822 28.4234 30.9106 29.2105 31.9399 30.4102C32.9693 31.6099 33.5303 33.1412 33.5194 34.722V40.1755C33.5197 40.7891 33.2766 41.3778 32.8434 41.8124C32.4102 42.247 31.8222 42.492 31.2086 42.4936Z" fill="black"/>
<path d="M17.3371 42.4961C16.7221 42.4935 16.1332 42.2476 15.699 41.812C15.2649 41.3765 15.0208 40.7868 15.0202 40.1719V34.7257C15.0094 33.1493 15.5671 31.6219 16.591 30.4233C17.615 29.2248 19.0366 28.4355 20.5953 28.2C20.6259 28.1952 20.6568 28.1927 20.6877 28.1927H21.1432C21.3045 28.1927 21.4592 28.2568 21.5732 28.3709C21.6873 28.4849 21.7513 28.6396 21.7513 28.8009C21.7513 28.9621 21.6873 29.1168 21.5732 29.2309C21.4592 29.3449 21.3045 29.409 21.1432 29.409H20.7352C19.4734 29.6109 18.3257 30.2582 17.5001 31.2336C16.6746 32.209 16.2258 33.4478 16.2352 34.7257V40.1719C16.2332 40.3173 16.261 40.4616 16.3167 40.596C16.3724 40.7303 16.455 40.8519 16.5593 40.9533C16.6606 41.0565 16.7815 41.1385 16.9148 41.1945C17.0481 41.2506 17.1912 41.2796 17.3358 41.2798C17.6279 41.2779 17.9072 41.1601 18.1124 40.9524C18.3177 40.7446 18.4321 40.4639 18.4304 40.1719V35.8859C18.4304 35.7246 18.4945 35.57 18.6086 35.4559C18.7226 35.3419 18.8773 35.2778 19.0386 35.2778C19.1998 35.2778 19.3545 35.3419 19.4685 35.4559C19.5826 35.57 19.6467 35.7246 19.6467 35.8859V40.1719C19.648 40.7862 19.4055 41.3759 18.9725 41.8116C18.5395 42.2473 17.9513 42.4935 17.3371 42.4961Z" fill="black"/>
<path d="M24.2598 30.7516C23.6161 30.7543 22.9783 30.6293 22.3833 30.3838C21.7883 30.1383 21.248 29.7772 20.7936 29.3213C20.7482 29.2774 20.7053 29.2309 20.6653 29.1821C20.6021 29.1021 20.5598 29.0078 20.5421 28.9075C20.5244 28.8072 20.5318 28.7041 20.5637 28.6074L21.1432 26.8907C21.1948 26.7379 21.305 26.6118 21.4496 26.5403C21.5941 26.4687 21.7612 26.4575 21.914 26.5091C22.0668 26.5607 22.1929 26.6709 22.2644 26.8155C22.336 26.96 22.3472 27.1271 22.2956 27.2799L21.8389 28.6323C22.5095 29.2152 23.3679 29.5364 24.2564 29.5371C25.1448 29.5378 26.0037 29.2178 26.6752 28.636L26.2173 27.2799C26.1917 27.204 26.1814 27.1239 26.1868 27.044C26.1922 26.9641 26.2133 26.8861 26.2489 26.8144C26.2845 26.7427 26.3338 26.6787 26.3941 26.626C26.4544 26.5734 26.5245 26.5332 26.6004 26.5076C26.6763 26.482 26.7564 26.4717 26.8363 26.4771C26.9162 26.4825 26.9942 26.5036 27.0659 26.5392C27.1376 26.5748 27.2016 26.6241 27.2542 26.6844C27.3069 26.7448 27.3471 26.8148 27.3727 26.8907L27.9522 28.6074C27.9842 28.7041 27.9916 28.8072 27.9739 28.9075C27.9562 29.0078 27.9138 29.1022 27.8507 29.1821C27.81 29.2319 27.7664 29.2792 27.7199 29.3238C27.2662 29.7786 26.7267 30.139 26.1328 30.3841C25.5389 30.6292 24.9023 30.7541 24.2598 30.7516Z" fill="black"/>
<path d="M26.8856 55.7837C26.3749 55.7838 25.8715 55.6626 25.4169 55.43C24.9622 55.1974 24.5694 54.8601 24.2707 54.4459C23.8723 54.9988 23.3089 55.4112 22.6615 55.6238C22.014 55.8364 21.3158 55.8384 20.6672 55.6293C20.0185 55.4203 19.4529 55.011 19.0514 54.4603C18.65 53.9096 18.4334 53.2459 18.4329 52.5644V35.8883C18.4329 35.727 18.4969 35.5723 18.611 35.4583C18.725 35.3442 18.8797 35.2802 19.041 35.2802C19.2022 35.2802 19.3569 35.3442 19.471 35.4583C19.585 35.5723 19.6491 35.727 19.6491 35.8883V52.5608C19.6491 53.093 19.8605 53.6034 20.2368 53.9798C20.6132 54.3561 21.1236 54.5675 21.6558 54.5675C22.1881 54.5675 22.6985 54.3561 23.0748 53.9798C23.4512 53.6034 23.6626 53.093 23.6626 52.5608V43.9864C23.6626 43.8252 23.7267 43.6705 23.8407 43.5564C23.9547 43.4424 24.1094 43.3783 24.2707 43.3783C24.432 43.3783 24.5867 43.4424 24.7007 43.5564C24.8147 43.6705 24.8788 43.8252 24.8788 43.9864V52.5608C24.8788 53.093 25.0902 53.6034 25.4666 53.9798C25.8429 54.3561 26.3533 54.5675 26.8856 54.5675C27.4178 54.5675 27.9282 54.3561 28.3046 53.9798C28.6809 53.6034 28.8923 53.093 28.8923 52.5608V35.8883C28.8923 35.727 28.9564 35.5723 29.0704 35.4583C29.1845 35.3442 29.3391 35.2802 29.5004 35.2802C29.6617 35.2802 29.8164 35.3442 29.9304 35.4583C30.0445 35.5723 30.1085 35.727 30.1085 35.8883V52.5608C30.1085 53.4155 29.769 54.2353 29.1645 54.8397C28.5601 55.4442 27.7403 55.7837 26.8856 55.7837Z" fill="black"/>
<path d="M28.6892 22.8243C28.4796 22.8332 28.2724 22.7773 28.0957 22.6643C27.919 22.5512 27.7814 22.3865 27.7016 22.1925C27.3715 21.323 27.0907 20.4356 26.8606 19.5344C24.9642 20.2752 22.941 20.6369 20.9054 20.5992L20.6336 22.0459C20.6206 22.1142 20.5962 22.1798 20.5612 22.2399C20.4732 22.4329 20.3262 22.5929 20.1413 22.6969C19.9564 22.8008 19.7432 22.8433 19.5326 22.8182C19.322 22.7931 19.1248 22.7017 18.9695 22.5572C18.8143 22.4127 18.709 22.2226 18.6688 22.0143C18.3062 20.5969 18.071 19.1499 17.9658 17.6907C17.9798 17.0131 18.2285 16.3615 18.6694 15.8469C18.9102 15.6172 19.2146 15.4654 19.5429 15.4112C19.8712 15.3569 20.2083 15.4028 20.5101 15.5428C20.7522 15.0155 21.1097 14.5493 21.5562 14.1788C22.0027 13.8083 22.5268 13.5429 23.0897 13.4023C23.7451 13.2193 24.4302 13.1676 25.1056 13.2502C26.4538 13.398 28.8759 14.0019 29.9644 16.3899C30.346 17.4398 30.4063 18.5796 30.1377 19.664C30.1377 19.6682 29.8051 21.1879 29.6822 21.9748C29.6451 22.2115 29.5247 22.4272 29.3426 22.5829C29.1605 22.7387 28.9288 22.8243 28.6892 22.8243ZM27.2905 18.0762C27.4325 18.0762 27.57 18.1259 27.6792 18.2166C27.7884 18.3074 27.8623 18.4334 27.8883 18.573C28.0686 19.4334 28.3054 20.2809 28.5974 21.11C28.7458 20.3286 28.9391 19.4432 28.9495 19.3952C29.1551 18.564 29.1199 17.6914 28.8479 16.8794C28.0166 15.0551 26.0616 14.5808 24.9712 14.461C24.4541 14.3955 23.9291 14.4331 23.4266 14.5717C22.9487 14.6732 22.5098 14.9097 22.1622 15.2531C21.8146 15.5965 21.5728 16.0324 21.4655 16.5091C21.4524 16.6143 21.4121 16.7143 21.3485 16.7991C21.2848 16.8839 21.2001 16.9506 21.1028 16.9926C21.0054 17.0346 20.8988 17.0504 20.7934 17.0384C20.6881 17.0264 20.5877 16.9872 20.5022 16.9244C20.0018 16.5565 19.6655 16.5754 19.5293 16.7031C19.3153 16.9894 19.1928 17.3336 19.1778 17.6907C19.2447 18.7282 19.3964 19.7585 19.6314 20.7713L19.8047 19.8476C19.8334 19.7 19.9154 19.5681 20.035 19.477C20.1547 19.386 20.3037 19.3421 20.4536 19.3538C22.7102 19.4902 24.9659 19.0726 27.0242 18.1376C27.1072 18.0972 27.1983 18.0762 27.2905 18.0762Z" fill="black"/>
<path d="M42.4471 54.6454H36.7862C36.6249 54.6454 36.4703 54.5814 36.3562 54.4673C36.2422 54.3533 36.1781 54.1986 36.1781 54.0373V36.3037C36.1781 36.1424 36.2422 35.9877 36.3562 35.8737C36.4703 35.7596 36.6249 35.6956 36.7862 35.6956H42.4471C42.6084 35.6956 42.763 35.7596 42.8771 35.8737C42.9911 35.9877 43.0552 36.1424 43.0552 36.3037V54.0373C43.0552 54.1986 42.9911 54.3533 42.8771 54.4673C42.763 54.5814 42.6084 54.6454 42.4471 54.6454ZM37.3943 53.4292H41.839V36.9118H37.3943V53.4292Z" fill="black"/>
<path d="M44.455 36.9118H34.7782C34.6682 36.9118 34.5603 36.8819 34.466 36.8255C34.3716 36.769 34.2944 36.688 34.2424 36.5911C34.1904 36.4942 34.1657 36.385 34.1708 36.2752C34.176 36.1654 34.2108 36.059 34.2716 35.9674L39.1103 28.6926C39.1691 28.6136 39.2455 28.5494 39.3334 28.5052C39.4214 28.461 39.5184 28.438 39.6169 28.438C39.7153 28.438 39.8124 28.461 39.9003 28.5052C39.9883 28.5494 40.0647 28.6136 40.1234 28.6926L44.9615 35.9674C45.0223 36.059 45.0572 36.1654 45.0623 36.2752C45.0675 36.385 45.0427 36.4942 44.9908 36.5911C44.9388 36.688 44.8615 36.769 44.7672 36.8255C44.6728 36.8819 44.5649 36.9118 44.455 36.9118ZM35.9135 35.6956H43.3197L39.6169 30.1271L35.9135 35.6956Z" fill="black"/>
<path d="M53.3638 54.6455H47.7023C47.5411 54.6455 47.3864 54.5814 47.2723 54.4674C47.1583 54.3533 47.0942 54.1986 47.0942 54.0374V25.9257C47.0942 25.7645 47.1583 25.6098 47.2723 25.4957C47.3864 25.3817 47.5411 25.3176 47.7023 25.3176H53.3638C53.5251 25.3176 53.6798 25.3817 53.7938 25.4957C53.9079 25.6098 53.9719 25.7645 53.9719 25.9257V54.0374C53.9719 54.1986 53.9079 54.3533 53.7938 54.4674C53.6798 54.5814 53.5251 54.6455 53.3638 54.6455ZM48.3105 53.4292H52.7557V26.5338H48.3105V53.4292Z" fill="black"/>
<path d="M55.3718 26.5338H45.6956C45.5855 26.5339 45.4775 26.504 45.3831 26.4475C45.2886 26.3911 45.2113 26.31 45.1593 26.213C45.1073 26.116 45.0826 26.0067 45.0878 25.8968C45.0931 25.7869 45.128 25.6804 45.189 25.5888L50.0271 18.314C50.0859 18.2351 50.1623 18.1711 50.2503 18.1269C50.3382 18.0828 50.4353 18.0598 50.5337 18.0598C50.6321 18.0598 50.7291 18.0828 50.817 18.1269C50.905 18.1711 50.9814 18.2351 51.0402 18.314L55.8783 25.5888C55.9393 25.6804 55.9743 25.7869 55.9795 25.8968C55.9847 26.0067 55.96 26.116 55.908 26.213C55.856 26.31 55.7787 26.3911 55.6843 26.4475C55.5898 26.504 55.4818 26.5339 55.3718 26.5338ZM46.8303 25.3176H54.237L50.5337 19.7491L46.8303 25.3176Z" fill="black"/>
</svg>
