<svg width="70" height="70" viewBox="0 0 70 70" fill="none" xmlns="http://www.w3.org/2000/svg">
<circle cx="35" cy="35" r="35" fill="#FFCEFD"/>
<path d="M49.8127 19.9856C50.1669 19.9856 50.4541 19.6984 50.4541 19.3442C50.4541 18.9899 50.1669 18.7028 49.8127 18.7028C49.4584 18.7028 49.1713 18.9899 49.1713 19.3442C49.1713 19.6984 49.4584 19.9856 49.8127 19.9856Z" fill="black"/>
<path d="M45.8736 32.7188C45.9908 32.8359 46.1443 32.8946 46.2978 32.8946C46.4512 32.8946 46.6048 32.8359 46.722 32.7188L47.4 32.0408L48.078 32.7188C48.1952 32.8359 48.3488 32.8946 48.5022 32.8946C48.6557 32.8946 48.8092 32.8359 48.9264 32.7188C49.1607 32.4845 49.1607 32.1047 48.9264 31.8704L48.2484 31.1924L48.9264 30.5144C49.1607 30.2801 49.1607 29.9003 48.9264 29.666C48.6921 29.4317 48.3123 29.4317 48.078 29.666L47.4 30.344L46.722 29.666C46.4877 29.4317 46.1079 29.4317 45.8736 29.666C45.6393 29.9003 45.6393 30.2801 45.8736 30.5144L46.5516 31.1924L45.8736 31.8704C45.6393 32.1047 45.6393 32.4843 45.8736 32.7188Z" fill="black"/>
<path d="M23.1 30.8924C24.2578 30.8924 25.2 29.9502 25.2 28.7924C25.2 27.6345 24.2578 26.6924 23.1 26.6924C21.9421 26.6924 21 27.6345 21 28.7924C21 29.9502 21.9421 30.8924 23.1 30.8924ZM23.1 27.8924C23.5963 27.8924 24 28.296 24 28.7924C24 29.2887 23.5963 29.6924 23.1 29.6924C22.6036 29.6924 22.2 29.2887 22.2 28.7924C22.2 28.296 22.6036 27.8924 23.1 27.8924Z" fill="black"/>
<path d="M47.4 47.0932V45.9727C48.8702 45.1987 49.8 43.6769 49.8 41.9924V39.0035V38.9356C49.8 37.8686 48.9774 36.9896 47.9333 36.9001C47.6807 35.8642 46.745 35.0924 45.6323 35.0924H43.6448C42.0762 35.0924 40.8 36.3686 40.8 37.9372V41.9924C40.8 43.6769 41.7299 45.1987 43.2 45.9727V47.1425C41.6943 47.3642 40.4468 48.3814 39.9 49.7551C39.3533 48.3814 38.1057 47.3644 36.6 47.1425V46.4924H39.6C39.9317 46.4924 40.2 46.2241 40.2 45.8924V40.7924C40.2 37.6495 37.643 35.0924 34.5 35.0924C31.3571 35.0924 28.8 37.6495 28.8 40.7924V45.8924C28.8 46.2241 29.0684 46.4924 29.4 46.4924H32.4V47.1425C30.8943 47.3642 29.6468 48.3814 29.1 49.7551C28.4819 48.2021 26.9693 47.0996 25.2 47.0932V45.9727C26.6702 45.1987 27.6 43.6769 27.6 41.9924V39.0035V38.9356C27.6 37.8686 26.7774 36.9896 25.7333 36.9001C25.4807 35.8642 24.545 35.0924 23.4323 35.0924H21.4448C19.8762 35.0924 18.6 36.3686 18.6 37.9372V41.9924C18.6 43.6769 19.5299 45.1987 21 45.9727V47.1425C18.9669 47.4419 17.4 49.1927 17.4 51.3077C17.4 51.6394 17.6684 51.9077 18 51.9077H51C51.3317 51.9077 51.6 51.6394 51.6 51.3077C51.6 48.9884 49.7174 47.1016 47.4 47.0932ZM19.8 37.9372C19.8 37.0301 20.5377 36.2924 21.4448 36.2924H23.4323C24.0762 36.2924 24.6 36.8162 24.6 37.4602V37.4924C24.6 37.8241 24.8684 38.0924 25.2 38.0924H25.5569C26.0216 38.0924 26.4 38.4709 26.4 38.9356V39.0035V39.5924C26.4 41.4118 24.9194 42.8924 23.1 42.8924C21.2807 42.8924 19.8 41.4118 19.8 39.5924V38.4035V37.9372ZM19.8957 42.7469C20.7125 43.5764 21.8466 44.0926 23.1 44.0926C24.3534 44.0926 25.4876 43.5766 26.3043 42.7469C26.0661 43.7638 25.3635 44.6242 24.3692 45.0388C24.1454 45.1319 24 45.3505 24 45.5924V47.0924H22.2V45.5924C22.2 45.3505 22.0547 45.1319 21.8309 45.0388C20.8367 44.624 20.1341 43.7636 19.8957 42.7469ZM18.6597 50.7077C18.9386 49.3313 20.1579 48.2924 21.6152 48.2924H25.1847C26.642 48.2924 27.8613 49.3313 28.1402 50.7077H18.6597ZM33.6 46.4924H35.4V47.0924H33.6V46.4924ZM30 40.7924C30 38.311 32.0186 36.2924 34.5 36.2924C36.9815 36.2924 39 38.311 39 40.7924V45.2924H36H33H30V40.7924ZM30.0597 50.7077C30.3386 49.3313 31.5579 48.2924 33.0152 48.2924H35.9847C37.442 48.2924 38.6613 49.3313 38.9402 50.7077H30.0597ZM42 37.9372C42 37.0301 42.7377 36.2924 43.6448 36.2924H45.6323C46.2762 36.2924 46.8 36.8162 46.8 37.4602V37.4924C46.8 37.8241 47.0684 38.0924 47.4 38.0924H47.7569C48.2216 38.0924 48.6 38.4709 48.6 38.9356V39.0035V39.5924C48.6 41.4118 47.1194 42.8924 45.3 42.8924C43.4807 42.8924 42 41.4118 42 39.5924V38.4035V37.9372ZM42.0957 42.7469C42.9125 43.5764 44.0466 44.0926 45.3 44.0926C46.5534 44.0926 47.6876 43.5766 48.5043 42.7469C48.2661 43.7638 47.5635 44.6242 46.5692 45.0388C46.3454 45.1319 46.2 45.3505 46.2 45.5924V47.0924H44.4V45.5924C44.4 45.3505 44.2547 45.1319 44.0309 45.0388C43.0367 44.624 42.3341 43.7636 42.0957 42.7469ZM40.8597 50.7077C41.1386 49.3313 42.3579 48.2924 43.8152 48.2924H47.3847C48.842 48.2924 50.0613 49.3313 50.3402 50.7077H40.8597Z" fill="black"/>
<path d="M27.6 27.8924H33.6789L30.7008 32.3596C30.5167 32.6356 30.5913 33.0076 30.8671 33.1916C31.1431 33.3745 31.5157 33.3007 31.6992 33.0253L34.2 29.2741V32.6924C34.2 33.0241 34.4683 33.2924 34.8 33.2924C35.1316 33.2924 35.4 33.0241 35.4 32.6924V29.2741L37.9008 33.0253C38.0163 33.1987 38.2066 33.2924 38.4006 33.2924C38.5149 33.2924 38.6302 33.2596 38.7328 33.1916C39.0088 33.0076 39.0833 32.6356 38.8992 32.3596L35.9211 27.8924H42C42.3316 27.8924 42.6 27.6241 42.6 27.2924V17.6924C42.6 17.3608 42.3316 17.0924 42 17.0924H27.6C27.2683 17.0924 27 17.3608 27 17.6924V27.2924C27 27.6241 27.2683 27.8924 27.6 27.8924ZM28.2 18.2924H41.4V26.6924H28.2V18.2924Z" fill="black"/>
<path d="M29.4 20.0925H33C33.3317 20.0925 33.6 19.8241 33.6 19.4925C33.6 19.1608 33.3317 18.8925 33 18.8925H29.4C29.0684 18.8925 28.8 19.1608 28.8 19.4925C28.8 19.8241 29.0684 20.0925 29.4 20.0925Z" fill="black"/>
<path d="M37.2 21.2924C37.2 20.9607 36.9317 20.6924 36.6 20.6924H29.4C29.0684 20.6924 28.8 20.9607 28.8 21.2924C28.8 21.624 29.0684 21.8924 29.4 21.8924H36.6C36.9317 21.8924 37.2 21.624 37.2 21.2924Z" fill="black"/>
<path d="M36 25.4925C36 25.8241 36.2683 26.0925 36.6 26.0925H39.6C39.9316 26.0925 40.2 25.8241 40.2 25.4925C40.2 25.1608 39.9316 24.8925 39.6 24.8925H36.6C36.2683 24.8925 36 25.1608 36 25.4925Z" fill="black"/>
</svg>
