<svg width="26" height="26" viewBox="0 0 26 26" fill="none" xmlns="http://www.w3.org/2000/svg">
<path d="M24.7603 8.4477C24.4413 7.60425 24.0345 6.79523 23.5576 6.0297C23.405 5.7849 22.9983 5.68266 22.8379 5.97478C22.6688 6.28252 22.481 6.53779 22.4005 6.6468C22.3998 6.64781 22.399 6.64883 22.3983 6.64985C22.2663 6.8297 22.2523 7.06957 22.3623 7.26344C23.303 8.92104 23.8718 10.7881 23.8894 12.6863C23.8924 12.933 23.8876 13.2381 23.8692 13.4832C23.8541 13.7368 23.8242 14.0248 23.7817 14.2753C23.6737 14.9707 23.4633 15.6594 23.2355 16.3247C23.1815 16.4647 23.1054 16.6819 23.0451 16.818L22.9428 17.062C22.9045 17.1411 22.8127 17.3461 22.7747 17.4225C22.7355 17.4977 22.6338 17.6991 22.593 17.7767C22.4684 18.0009 22.3275 18.2509 22.1899 18.4655C21.5432 19.4784 20.7291 20.3913 19.8018 21.1592C18.8717 21.9258 17.8189 22.5546 16.6982 23.0053C16.4592 23.0994 16.1837 23.1974 15.9413 23.2765C15.8617 23.3017 15.6296 23.3683 15.5566 23.391C15.4676 23.4159 15.2618 23.4648 15.1679 23.4911C11.1524 24.455 6.64862 22.883 4.10629 19.6517C2.33435 17.4129 1.48641 14.4372 1.90133 11.6134C2.33164 8.76987 4.05348 6.19724 6.32181 4.4389C9.70709 1.80006 14.7192 1.37535 18.539 3.33919C18.7974 3.47203 19.1928 3.42885 19.4171 3.24482C19.6059 3.08989 19.641 2.99177 19.8127 2.81056C20.0437 2.56678 19.9561 2.26906 19.7107 2.12413C19.5786 2.04616 19.4432 1.96908 19.3403 1.91725C14.7503 -0.420114 8.77301 0.20057 4.87034 3.58779C2.54649 5.5772 0.828271 8.33833 0.360539 11.3818C-0.414382 16.2953 2.16054 21.4646 6.5599 23.8364C8.81526 25.0874 11.4493 25.6763 14.0276 25.4218C14.3097 25.3978 14.676 25.3439 14.9543 25.2947C15.3559 25.2249 15.7763 25.1296 16.168 25.0169C17.7585 24.5704 19.2589 23.8025 20.5703 22.8054C21.7149 21.9297 22.7288 20.8721 23.5345 19.6805C23.8517 19.2165 24.1426 18.7109 24.3948 18.2098C24.4935 18.0057 24.6299 17.7138 24.7159 17.5025C24.7868 17.3428 24.8795 17.0878 24.9429 16.9229C24.9739 16.8267 25.0599 16.5747 25.0886 16.4815C25.1266 16.3364 25.1782 16.1782 25.2129 16.0334C25.3342 15.5398 25.429 15.0138 25.4872 14.5094C25.7567 12.4637 25.4993 10.3742 24.7603 8.4477Z" fill="white"/>
<path d="M23.5342 2.19674C23.3128 1.83098 22.8348 1.7127 22.4665 1.93256C22.3715 1.9893 22.2841 2.05266 22.1986 2.11776C21.8069 2.40794 21.3973 2.8751 21.0669 3.22703C18.1643 6.33597 15.5339 9.72022 13.3638 13.3816C13.1479 13.7381 12.924 14.1294 12.7428 14.5048C12.5684 14.8587 12.3826 15.2486 12.2168 15.6085C11.0752 13.533 9.27928 11.2554 7.14743 10.3233C6.29508 9.97308 5.45169 10.8645 5.87375 11.6917C5.99886 11.9357 6.14491 12.1632 6.29108 12.3925C7.00368 13.5075 7.84112 14.5259 8.58119 15.6176C9.52211 16.9853 10.3146 18.4334 11.0811 19.901C11.6091 20.8905 13.1046 20.7421 13.4195 19.6568C13.9481 18.5523 14.4914 17.4612 15.0724 16.3854C15.258 16.0364 15.4724 15.6648 15.6507 15.3134C15.8241 14.9681 16.019 14.5688 16.1993 14.226C17.6939 11.32 19.4872 8.57973 21.4263 5.93894C21.7549 5.49379 22.2036 4.89116 22.5399 4.45091C22.7537 4.16642 23.0964 3.74687 23.2801 3.45119C23.3945 3.27282 23.5018 3.09082 23.5849 2.89341C23.6773 2.67385 23.6667 2.41603 23.5342 2.19674Z" fill="white"/>
</svg>
