<svg width="30" height="31" viewBox="0 0 30 31" fill="none" xmlns="http://www.w3.org/2000/svg">
<g clip-path="url(#clip0_302_1237)">
<path d="M17.8694 21.9114L21.3144 22.855C22.1565 23.0823 22.7419 23.8469 22.7419 24.7227V30.0162H7.25806V24.7227C7.25806 23.8469 7.84352 23.0823 8.68557 22.855L12.1306 21.9114H17.8694Z" fill="#FF826E"/>
<path d="M17.8694 21.9113L16.9355 25.1774L15 23.7258L17.4194 21.7903L17.8694 21.9113Z" fill="#FCD770"/>
<path d="M15 23.7258L13.0645 25.1774L12.1306 21.9113L12.5806 21.7903L15 23.7258Z" fill="#FCD770"/>
<path d="M12.6047 19.8308C13.2193 20.4453 14.0613 20.8227 15 20.8227C15.9387 20.8227 16.7807 20.4453 17.3952 19.8308L17.4193 19.8549V21.7904L15 23.7259L12.5806 21.7904V19.8549L12.6047 19.8308Z" fill="#F0D0B4"/>
<path d="M18.3871 15.4999V17.4354C18.3871 18.3741 18.0098 19.2161 17.3953 19.8306C16.7807 20.4452 15.9387 20.8225 15 20.8225C14.0613 20.8225 13.2193 20.4452 12.6048 19.8306C11.9902 19.2161 11.6129 18.3741 11.6129 17.4354V15.4999C11.6129 13.6273 13.1274 12.1128 15 12.1128C15.9387 12.1128 16.7807 12.4901 17.3953 13.1046C18.0098 13.7192 18.3871 14.5612 18.3871 15.4999Z" fill="#F0D0B4"/>
<path d="M29.5161 14.5322V20.3386C29.5161 20.871 29.0807 21.3064 28.5484 21.3064H22.7419C22.2096 21.3064 21.7742 20.871 21.7742 20.3386V14.5322C21.7742 13.9999 22.2096 13.5645 22.7419 13.5645H28.5484C29.0807 13.5645 29.5161 13.9999 29.5161 14.5322Z" fill="#E6E9ED"/>
<path d="M27.2806 15.8001C27.4644 15.9839 27.5806 16.2452 27.5806 16.5259C27.5806 16.7969 27.4741 17.0582 27.2806 17.2517L25.6451 18.8871L24.0097 17.2517C23.8162 17.0582 23.7097 16.7969 23.7097 16.5259C23.7097 16.2452 23.8259 15.9839 24.0097 15.8001C24.1935 15.6162 24.4548 15.5 24.7355 15.5C25.0065 15.5 25.2678 15.6066 25.4613 15.8001L25.6451 15.9839L25.829 15.8001C26.0225 15.6066 26.2838 15.5 26.5548 15.5C26.8354 15.5 27.0968 15.6162 27.2806 15.8001Z" fill="#FF826E"/>
<path d="M8.22582 14.5322V20.3386C8.22582 20.871 7.79039 21.3064 7.25808 21.3064H1.45163C0.919323 21.3064 0.483887 20.871 0.483887 20.3386V14.5322C0.483887 13.9999 0.919323 13.5645 1.45163 13.5645H7.25808C7.79039 13.5645 8.22582 13.9999 8.22582 14.5322Z" fill="#E6E9ED"/>
<path d="M11.129 6.30647V11.629H5.80647C2.86449 11.629 0.483887 9.24844 0.483887 6.30647C0.483887 4.83548 1.07904 3.50484 2.04206 2.54206C3.00484 1.57904 4.33548 0.983887 5.80647 0.983887C7.27745 0.983887 8.6081 1.57904 9.57088 2.54206C10.5339 3.50484 11.129 4.83548 11.129 6.30647Z" fill="#E6E9ED"/>
<path d="M9.19357 6.30653C9.19357 8.17728 7.67722 9.69363 5.80647 9.69363C3.93572 9.69363 2.41937 8.17728 2.41937 6.30653C2.41937 4.43578 3.93572 2.91943 5.80647 2.91943C7.67722 2.91943 9.19357 4.43578 9.19357 6.30653Z" fill="#B4DD7F"/>
<path d="M27.958 2.54206C28.921 3.50484 29.5161 4.83548 29.5161 6.30647C29.5161 9.24844 27.1355 11.629 24.1936 11.629H18.871V6.30647C18.871 4.83548 19.4661 3.50484 20.4291 2.54206C21.3919 1.57904 22.7226 0.983887 24.1936 0.983887C25.6645 0.983887 26.9952 1.57904 27.958 2.54206Z" fill="#E6E9ED"/>
<path d="M27.0146 5.63388C26.942 5.3291 26.8258 5.04369 26.6661 4.78711L26.9323 4.2548L26.2453 3.56775L25.713 3.83402C25.4564 3.6743 25.171 3.55806 24.8662 3.48552L24.6774 2.91943H23.7097L23.5209 3.48552C23.2161 3.55806 22.9307 3.6743 22.6741 3.83402L22.1418 3.56775L21.4548 4.2548L21.721 4.78711C21.5613 5.04369 21.4451 5.3291 21.3725 5.63388L20.8065 5.82266V6.7904L21.3725 6.97918C21.4451 7.28396 21.5613 7.56937 21.721 7.82595L21.4548 8.35826L22.1418 9.04532L22.6741 8.77905C22.9307 8.93876 23.2161 9.055 23.5209 9.12754L23.7097 9.69363H24.6774L24.8662 9.12754C25.171 9.055 25.4564 8.93876 25.713 8.77905L26.2453 9.04532L26.9323 8.35826L26.6661 7.82595C26.8258 7.56937 26.942 7.28396 27.0146 6.97918L27.5807 6.7904V5.82266L27.0146 5.63388ZM24.1936 7.27427C23.6612 7.27427 23.2258 6.83884 23.2258 6.30653C23.2258 5.77423 23.6612 5.33879 24.1936 5.33879C24.7259 5.33879 25.1613 5.77423 25.1613 6.30653C25.1613 6.83884 24.7259 7.27427 24.1936 7.27427Z" fill="#FCD770"/>
<path d="M23.2258 24.7208C23.2258 23.6326 22.4927 22.6731 21.4432 22.3865L17.9032 21.4207V19.987C18.5038 19.3047 18.871 18.413 18.871 17.4351V15.4996C18.871 13.3652 17.1344 11.6287 15 11.6287C12.8656 11.6287 11.129 13.3652 11.129 15.4996V17.4351C11.129 18.413 11.4962 19.3047 12.0968 19.987V21.4207L8.55682 22.386C7.50733 22.6726 6.77419 23.6326 6.77419 24.7208V29.5324H0V30.5001H30V29.5324H23.2258V24.7208ZM15 23.1062L13.0645 21.5577V20.7825C13.6346 21.114 14.2945 21.3066 15 21.3066C15.7055 21.3066 16.3654 21.114 16.9355 20.783V21.5582L15 23.1062ZM14.2099 23.7139L13.3365 24.369L12.8351 22.614L14.2099 23.7139ZM17.1649 22.6136L16.6635 24.3686L15.7901 23.7134L17.1649 22.6136ZM12.0968 15.5001C12.0968 13.8989 13.3988 12.5969 15 12.5969C16.6012 12.5969 17.9032 13.8989 17.9032 15.5001V17.4356C17.9032 19.0368 16.6012 20.3388 15 20.3388C13.3988 20.3388 12.0968 19.0368 12.0968 17.4356V15.5001ZM7.74194 24.7208C7.74194 24.0675 8.18186 23.4918 8.81127 23.32L11.7977 22.5056L12.7921 25.9865L15 24.3307L17.2074 25.9865L18.2019 22.5056L21.1883 23.32C21.8177 23.4913 22.2576 24.0675 22.2576 24.7208V29.5324H19.8382V25.1775H18.8705V29.5324H11.129V25.1775H10.1613V29.5324H7.74194V24.7208Z" fill="black"/>
<path d="M3.83673 18.8872H4.80447V19.8549H3.83673V18.8872Z" fill="black"/>
<path d="M5.80645 12.1129H11.6129V6.30645C11.6129 3.10459 9.00832 0.5 5.80645 0.5C2.60459 0.5 0 3.10459 0 6.30645C0 9.50832 2.60459 12.1129 5.80645 12.1129ZM5.80645 1.46774C8.47459 1.46774 10.6452 3.63831 10.6452 6.30645V11.1452H5.80645C3.13831 11.1452 0.967742 8.97459 0.967742 6.30645C0.967742 3.63831 3.13831 1.46774 5.80645 1.46774Z" fill="black"/>
<path d="M30 6.30645C30 3.10459 27.3954 0.5 24.1935 0.5C20.9917 0.5 18.3871 3.10459 18.3871 6.30645V12.1129H24.1935C27.3954 12.1129 30 9.50832 30 6.30645ZM19.3548 6.30645C19.3548 3.63831 21.5254 1.46774 24.1935 1.46774C26.8617 1.46774 29.0322 3.63831 29.0322 6.30645C29.0322 8.97459 26.8617 11.1452 24.1935 11.1452H19.3548V6.30645Z" fill="black"/>
<path d="M25.244 9.52421C25.4091 9.4701 25.5703 9.40324 25.7255 9.32386L26.3419 9.63266L27.5197 8.4544L27.2114 7.83846C27.2907 7.68323 27.3571 7.52257 27.4112 7.35695L28.0645 7.13935V5.47415L27.4112 5.25655C27.3571 5.09093 27.2903 4.9298 27.2114 4.77457L27.5197 4.15863L26.3419 2.98037L25.7255 3.28917C25.5703 3.20979 25.4091 3.14292 25.244 3.08882L25.0264 2.43555H23.3612L23.1436 3.08882C22.9784 3.14292 22.8173 3.20979 22.6621 3.28917L22.0452 2.98037L20.8674 4.15816L21.1757 4.7741C21.0963 4.92933 21.0299 5.09046 20.9758 5.25608L20.3226 5.47368V7.13888L20.9758 7.35648C21.0299 7.5221 21.0968 7.68276 21.1757 7.83799L20.8674 8.45393L22.0452 9.63218L22.6616 9.32338C22.8168 9.40277 22.978 9.46963 23.1431 9.52374L23.3607 10.177H25.0259L25.244 9.52421ZM24.4917 8.71996L24.3284 9.20974H24.0582L23.8949 8.71996L23.6326 8.65759C23.3841 8.59852 23.1469 8.5 22.9272 8.36486L22.698 8.22357L22.2354 8.45535L22.0442 8.26374L22.2755 7.80113L22.1343 7.57124C21.9991 7.3527 21.9011 7.11596 21.8415 6.86694L21.7796 6.60515L21.2903 6.44142V6.17113L21.7801 6.0074L21.842 5.74562C21.9015 5.49707 21.9996 5.25939 22.1347 5.04013L22.276 4.81096L22.0452 4.34882L22.2363 4.15768L22.6989 4.38946L22.9281 4.24817C23.1478 4.11303 23.385 4.01451 23.6336 3.95544L23.8958 3.89307L24.0586 3.40329H24.3289L24.4922 3.89307L24.7544 3.95544C25.003 4.01451 25.2402 4.11303 25.4599 4.24817L25.6891 4.38946L26.1517 4.15768L26.3428 4.34882L26.1106 4.81143L26.2519 5.04061C26.387 5.25986 26.4855 5.49754 26.5446 5.74609L26.6065 6.00788L27.0968 6.17161V6.44189L26.607 6.60563L26.5451 6.86741C26.4855 7.11643 26.3875 7.35317 26.2524 7.57195L26.1111 7.8016L26.3424 8.26421L26.1512 8.45582L25.6886 8.22404L25.4594 8.36533C25.2397 8.50047 25.0025 8.599 24.754 8.65806L24.4917 8.71996Z" fill="black"/>
<path d="M24.1936 4.85474C23.3933 4.85474 22.7419 5.50612 22.7419 6.30635C22.7419 7.10658 23.3933 7.75796 24.1936 7.75796C24.9938 7.75796 25.6452 7.10658 25.6452 6.30635C25.6452 5.50612 24.9938 4.85474 24.1936 4.85474ZM24.1936 6.79022C23.927 6.79022 23.7097 6.57333 23.7097 6.30635C23.7097 6.03937 23.927 5.82248 24.1936 5.82248C24.4601 5.82248 24.6774 6.03937 24.6774 6.30635C24.6774 6.57333 24.4601 6.79022 24.1936 6.79022Z" fill="black"/>
<path d="M26.5543 15.0161C26.2219 15.0161 25.906 15.1231 25.6452 15.32C25.3843 15.1231 25.0685 15.0161 24.736 15.0161C23.9032 15.0161 23.2258 15.6935 23.2258 16.5263C23.2258 16.924 23.387 17.3131 23.6681 17.5942L25.6452 19.5713L27.6223 17.5942C27.9034 17.3131 28.0645 16.924 28.0645 16.5263C28.0645 15.6935 27.3872 15.0161 26.5543 15.0161ZM26.938 16.91L25.6452 18.2029L24.3523 16.91C24.2517 16.8089 24.1936 16.669 24.1936 16.5263C24.1936 16.2272 24.4369 15.9839 24.736 15.9839C24.8811 15.9839 25.0172 16.0401 25.1197 16.1426L25.6452 16.6681L26.1706 16.1426C26.2732 16.0401 26.4093 15.9839 26.5543 15.9839C26.8534 15.9839 27.0968 16.2272 27.0968 16.5263C27.0968 16.669 27.0387 16.8089 26.938 16.91Z" fill="black"/>
<path d="M28.5484 13.0806H22.742C21.9417 13.0806 21.2903 13.7319 21.2903 14.5322V20.3386C21.2903 21.1389 21.9417 21.7902 22.742 21.7902H28.5484C29.3486 21.7902 30 21.1389 30 20.3386V14.5322C30 13.7319 29.3486 13.0806 28.5484 13.0806ZM29.0323 20.3386C29.0323 20.6056 28.8149 20.8225 28.5484 20.8225H22.742C22.4755 20.8225 22.2581 20.6056 22.2581 20.3386V14.5322C22.2581 14.2652 22.4755 14.0483 22.742 14.0483H28.5484C28.8149 14.0483 29.0323 14.2652 29.0323 14.5322V20.3386Z" fill="black"/>
<path d="M1.45161 21.7902H7.25806C8.05829 21.7902 8.70968 21.1389 8.70968 20.3386V14.5322C8.70968 13.7319 8.05829 13.0806 7.25806 13.0806H1.45161C0.651383 13.0806 0 13.7319 0 14.5322V20.3386C0 21.1389 0.651383 21.7902 1.45161 21.7902ZM0.967742 14.5322C0.967742 14.2652 1.18511 14.0483 1.45161 14.0483H7.25806C7.52457 14.0483 7.74194 14.2652 7.74194 14.5322V20.3386C7.74194 20.6056 7.52457 20.8225 7.25806 20.8225H1.45161C1.18511 20.8225 0.967742 20.6056 0.967742 20.3386V14.5322Z" fill="black"/>
<path d="M4.35482 15.9839C5.26255 15.9839 6.11571 16.325 6.75528 16.9438L7.4284 16.248C6.60667 15.4534 5.51512 15.0161 4.35482 15.0161C3.19453 15.0161 2.10298 15.4534 1.28125 16.2485L1.95437 16.9443C2.59394 16.325 3.44709 15.9839 4.35482 15.9839Z" fill="black"/>
<path d="M2.67194 17.5511L3.3004 18.287C3.8561 17.8128 4.85361 17.8128 5.4093 18.287L6.03777 17.5511C5.58485 17.1645 4.98733 16.9517 4.35485 16.9517C3.72237 16.9517 3.12486 17.1645 2.67194 17.5511Z" fill="black"/>
<path d="M5.80645 10.1775C7.94087 10.1775 9.67742 8.44093 9.67742 6.30651C9.67742 4.1721 7.94087 2.43555 5.80645 2.43555C3.67203 2.43555 1.93549 4.1721 1.93549 6.30651C1.93549 8.44093 3.67203 10.1775 5.80645 10.1775ZM2.90323 6.30651C2.90323 5.8914 2.9923 5.49707 3.14989 5.13936C3.35946 5.2634 3.62171 5.39288 3.94398 5.50865C3.89814 5.76358 3.87097 6.03032 3.87097 6.30651C3.87097 6.58271 3.89814 6.84945 3.94398 7.10438C3.62171 7.22015 3.35946 7.34915 3.14989 7.47366C2.9923 7.11596 2.90323 6.72163 2.90323 6.30651ZM5.80645 5.82264C6.14219 5.82264 6.44272 5.78933 6.72623 5.74373C6.75577 5.92566 6.7742 6.11301 6.7742 6.30651C6.7742 6.49954 6.75577 6.6869 6.72623 6.8693C6.44224 6.8237 6.14219 6.79039 5.80645 6.79039C5.47072 6.79039 5.17019 6.8237 4.88667 6.8693C4.85714 6.68737 4.83871 6.50002 4.83871 6.30651C4.83871 6.11349 4.85714 5.92613 4.88667 5.74373C5.17066 5.78933 5.47072 5.82264 5.80645 5.82264ZM5.15602 4.81096C5.35353 4.3363 5.60563 3.94528 5.8074 3.67381C6.00917 3.94434 6.26174 4.33465 6.45878 4.81048C6.25654 4.83695 6.04154 4.8549 5.80645 4.8549C5.57231 4.8549 5.35802 4.83695 5.15602 4.81096ZM8.70968 6.30651C8.70968 6.72163 8.62061 7.11596 8.46302 7.47366C8.25345 7.34963 7.9912 7.22015 7.66893 7.10438C7.71477 6.84945 7.74194 6.58271 7.74194 6.30651C7.74194 6.03032 7.71477 5.76358 7.66893 5.50865C7.9912 5.39288 8.25345 5.26388 8.46302 5.13936C8.62061 5.49707 8.70968 5.8914 8.70968 6.30651ZM6.45689 7.80207C6.25937 8.27673 6.00728 8.66775 5.80551 8.93922C5.60374 8.66869 5.35117 8.27838 5.15413 7.80255C5.35637 7.77608 5.57137 7.75813 5.80645 7.75813C6.04059 7.75813 6.25488 7.77608 6.45689 7.80207ZM3.68172 8.27886C3.82206 8.19805 3.99572 8.11323 4.20576 8.03479C4.34137 8.38801 4.50298 8.70461 4.666 8.97607C4.2901 8.81447 3.9565 8.57442 3.68172 8.27886ZM6.94643 8.97607C7.10946 8.70461 7.27106 8.38801 7.40668 8.03479C7.61624 8.11371 7.79037 8.19853 7.93071 8.27886C7.65641 8.57442 7.3228 8.81447 6.94643 8.97607ZM7.93119 4.33417C7.79084 4.41498 7.61719 4.4998 7.40715 4.57824C7.27153 4.22502 7.10993 3.90842 6.94691 3.63696C7.3228 3.79856 7.65641 4.03861 7.93119 4.33417ZM4.66647 3.63696C4.50345 3.90842 4.34185 4.22502 4.20623 4.57824C3.99619 4.4998 3.82254 4.41498 3.68172 4.33417C3.9565 4.03861 4.2901 3.79856 4.66647 3.63696Z" fill="black"/>
</g>
<defs>
<clipPath id="clip0_302_1237">
<rect width="30" height="30" fill="white" transform="translate(0 0.5)"/>
</clipPath>
</defs>
</svg>
