<svg width="30" height="29" viewBox="0 0 30 29" fill="none" xmlns="http://www.w3.org/2000/svg">
<path fill-rule="evenodd" clip-rule="evenodd" d="M19.5927 4.3495C20.1231 4.47568 20.6293 4.68556 21.093 4.97132L22.0679 4.5388L23.2166 5.68738L22.784 6.66232C23.0698 7.12603 23.2797 7.63227 23.4059 8.16262L24.4006 8.5455V10.1706L23.4059 10.5534C23.2797 11.0831 23.0698 11.5893 22.784 12.053L23.2166 13.0279L22.0679 14.1773L21.093 13.744C20.6293 14.0298 20.1231 14.2403 19.5927 14.3666L19.2099 15.3606H17.5848L17.2019 14.3659C16.6723 14.2396 16.166 14.0298 15.7023 13.744L14.7275 14.1773L13.5781 13.0279L14.0113 12.0537C13.7256 11.5893 13.515 11.0831 13.3888 10.5534L12.3947 10.1706V8.5455L13.3888 8.16262C13.515 7.63227 13.7256 7.12603 14.0113 6.66232L13.5781 5.68738L14.7275 4.5388L15.7016 4.97132C16.166 4.68556 16.6723 4.47568 17.2019 4.3495L17.5848 3.35474H19.2099L19.5927 4.3495Z" fill="#FFE177"/>
<path fill-rule="evenodd" clip-rule="evenodd" d="M21.7404 4.68415L22.0679 4.5388L23.2166 5.68738L22.784 6.66232C23.0698 7.12603 23.2797 7.63227 23.4059 8.16262L24.4006 8.5455V10.1706L23.4059 10.5534C23.2797 11.0831 23.0698 11.5893 22.784 12.053L23.2166 13.0279L22.0679 14.1773L21.7404 14.0319L22.7443 13.0279L22.3112 12.053C22.5969 11.5893 22.8067 11.0831 22.9329 10.5534L23.9277 10.1706V8.5455L22.9329 8.16262C22.8067 7.63227 22.5969 7.12603 22.3112 6.66232L22.7443 5.68738L21.7404 4.68415ZM14.5821 4.68415L14.7274 4.5388L15.7016 4.97132C15.6329 5.00956 15.5648 5.04927 15.4982 5.09115L14.5821 4.68415ZM19.5927 4.3495C20.1231 4.47568 20.6293 4.68556 21.093 4.97132L20.8243 5.09115C20.3606 4.80538 19.6502 4.47568 19.1198 4.3495L18.7369 3.35474H19.2099L19.5927 4.3495ZM15.7023 13.744L14.7274 14.1773L14.5821 14.0319L15.4982 13.6249C15.5648 13.666 15.6329 13.7057 15.7023 13.744ZM21.093 13.744C20.6293 14.0298 20.1231 14.2403 19.5927 14.3666L19.2099 15.3606H18.7369L19.1198 14.3666C19.6502 14.2403 20.3606 13.9107 20.825 13.6249L21.093 13.744Z" fill="#FFD064"/>
<path fill-rule="evenodd" clip-rule="evenodd" d="M18.3973 5.65479C20.4427 5.65479 22.1006 7.31273 22.1006 9.35808C22.1006 11.4027 20.4427 13.0607 18.3973 13.0607C16.3527 13.0607 14.6947 11.4027 14.6947 9.35808C14.6947 7.31273 16.3527 5.65479 18.3973 5.65479Z" fill="#ECEFF1"/>
<path fill-rule="evenodd" clip-rule="evenodd" d="M18.3973 5.65479C18.4816 5.65479 18.565 5.65779 18.6486 5.66379C16.7206 5.79243 15.1957 7.39696 15.1957 9.35808C15.1957 11.3184 16.7206 12.923 18.6486 13.0524C18.565 13.0577 18.4816 13.0607 18.3973 13.0607C16.3527 13.0607 14.6947 11.4027 14.6947 9.35808C14.6947 7.31273 16.3527 5.65479 18.3973 5.65479Z" fill="#D1D1D6"/>
<path fill-rule="evenodd" clip-rule="evenodd" d="M2.00516 7.92762C2.9684 7.3715 4.19999 7.7015 4.7561 8.66474C5.31222 9.62792 4.98222 10.8595 4.01899 11.4156C3.05581 11.9717 1.8241 11.6417 1.26805 10.6785C0.711928 9.71533 1.04193 8.48368 2.00516 7.92762Z" fill="#F6DCCD"/>
<path fill-rule="evenodd" clip-rule="evenodd" d="M2.79922 7.66859C3.56646 7.58747 4.34546 7.95347 4.75611 8.66476C5.31222 9.62794 4.98222 10.8595 4.01899 11.4156C3.63622 11.6366 3.21099 11.7177 2.80264 11.6747C3.07446 11.6459 3.34475 11.5611 3.5967 11.4156C4.55987 10.8595 4.88987 9.62794 4.33381 8.66476C3.9987 8.08435 3.41834 7.73382 2.79922 7.66859Z" fill="#F1CBBC"/>
<path fill-rule="evenodd" clip-rule="evenodd" d="M8.54999 11.4164C9.06158 10.9952 9.81775 11.0685 10.2389 11.5801C10.66 12.0917 10.5868 12.8479 10.0752 13.2691L7.86393 15.0939C7.59817 15.3126 7.2664 15.3979 6.94987 15.3577L5.24693 15.1736L5.86293 17.6432L8.9797 18.1913C9.44081 18.2719 9.79405 18.6057 9.92164 19.0249L11.2161 23.3103C11.4088 23.9448 11.0505 24.6154 10.4159 24.808C9.7814 25.0007 9.11075 24.6424 8.91817 24.0079L7.83699 20.4277L6.5114 20.1946L6.5864 20.4896C6.65128 20.7436 6.62981 20.9994 6.54046 21.2259L4.6217 26.675C4.40128 27.2995 3.71617 27.627 3.09175 27.4064C2.46723 27.186 2.1397 26.501 2.36017 25.8765L4.17175 20.7318C3.6374 18.6296 3.03023 16.1944 2.49587 14.0921C2.46128 13.9563 2.44993 13.8122 2.46599 13.6647C2.53811 13.0061 3.13034 12.5306 3.78893 12.6026L6.72734 12.9205L8.54999 11.4164Z" fill="#8AC9FE"/>
<path fill-rule="evenodd" clip-rule="evenodd" d="M19.702 8.20128V10.5932H17.0511V8.20128C17.0511 8.02552 17.121 7.85699 17.2453 7.73269C17.3696 7.6084 17.5381 7.53857 17.7139 7.53857H19.0393C19.215 7.53857 19.3836 7.6084 19.5079 7.73269C19.6321 7.85699 19.702 8.02552 19.702 8.20128Z" fill="#FE646F"/>
<path fill-rule="evenodd" clip-rule="evenodd" d="M18.6863 7.53857H19.0393C19.215 7.53857 19.3836 7.6084 19.5079 7.73269C19.6322 7.85699 19.702 8.02552 19.702 8.20128V10.5932H19.349V8.20128C19.349 8.02552 19.2792 7.85699 19.1549 7.73269C19.0306 7.6084 18.862 7.53857 18.6863 7.53857Z" fill="#FD4755"/>
<path fill-rule="evenodd" clip-rule="evenodd" d="M20.2286 10.298V10.9276C20.2286 10.9937 20.2077 11.0571 20.1707 11.1038C20.1336 11.1505 20.0833 11.1768 20.0308 11.1768H16.7662C16.7137 11.1768 16.6634 11.1505 16.6263 11.1038C16.5892 11.0571 16.5684 10.9937 16.5684 10.9276V10.298C16.5684 10.2319 16.5892 10.1685 16.6263 10.1218C16.6634 10.0751 16.7137 10.0488 16.7662 10.0488H20.0308C20.0833 10.0488 20.1336 10.0751 20.1707 10.1218C20.2077 10.1685 20.2286 10.2319 20.2286 10.298Z" fill="#685E68"/>
<path fill-rule="evenodd" clip-rule="evenodd" d="M20.0279 10.0488H20.0308C20.0833 10.0488 20.1336 10.0751 20.1707 10.1218C20.2077 10.1685 20.2286 10.2319 20.2286 10.298V10.9276C20.2286 10.9937 20.2077 11.0571 20.1707 11.1038C20.1336 11.1505 20.0833 11.1768 20.0308 11.1768H16.7661C16.7137 11.1768 16.6634 11.1505 16.6263 11.1038C16.5993 11.0698 16.5809 11.0269 16.5729 10.9807H19.8347C19.8871 10.9807 19.9374 10.9544 19.9745 10.9077C20.0116 10.8609 20.0324 10.7975 20.0324 10.7315V10.1019C20.0324 10.0839 20.0309 10.0661 20.0279 10.0488Z" fill="#544854"/>
<path fill-rule="evenodd" clip-rule="evenodd" d="M10.2653 25.3189C9.47534 25.4142 8.70699 24.9323 8.46787 24.1446L8.4677 24.1439L7.47023 20.8411L7.09464 20.775C7.09629 20.9885 7.05664 21.1968 6.9817 21.3898L5.06558 26.8314L5.06546 26.8317C4.75846 27.7012 3.80458 28.1573 2.93511 27.8503C2.06552 27.5433 1.60946 26.5895 1.91629 25.7203L3.68064 20.7098C3.15487 18.6395 2.56246 16.2646 2.03987 14.2084C1.99176 14.0195 1.97582 13.8189 1.99823 13.6138V13.6136C2.09858 12.6966 2.92317 12.0346 3.83952 12.1349L6.58082 12.4313L8.25046 11.0535L8.25087 11.0531C8.70823 10.6766 9.30587 10.584 9.83035 10.7544C9.75664 10.2996 9.71835 9.83305 9.71835 9.35763C9.71835 8.27922 9.91552 7.24652 10.2756 6.29352L9.95505 6.39046C9.7064 6.46563 9.44358 6.32481 9.3684 6.07622C9.29323 5.82763 9.43399 5.56475 9.68264 5.48958L10.9916 5.09375C11.2147 5.02628 11.4535 5.13222 11.5532 5.34281L12.1385 6.57881C12.2496 6.81352 12.1493 7.09434 11.9145 7.20552C11.6798 7.31663 11.399 7.21634 11.2878 6.98158L11.1399 6.66922C10.8292 7.50675 10.6595 8.41252 10.6595 9.35763C10.6595 13.6285 14.1269 17.0958 18.3977 17.0958C22.6685 17.0958 26.1359 13.6285 26.1359 9.35763C26.1359 5.08681 22.6685 1.6194 18.3977 1.6194C17.1006 1.6194 15.8776 1.93916 14.8033 2.50428C14.5735 2.62516 14.2887 2.53675 14.1678 2.30687C14.0469 2.07705 14.1353 1.79222 14.3652 1.67134C15.5703 1.03728 16.9424 0.678223 18.3977 0.678223C23.188 0.678223 27.0771 4.56734 27.0771 9.35763C27.0771 14.1479 23.188 18.037 18.3977 18.037C15.0323 18.037 12.1117 16.1175 10.672 13.3144C10.5891 13.4303 10.4899 13.5373 10.3746 13.6322L8.16346 15.4569L8.16299 15.4572C7.79434 15.7607 7.33452 15.8797 6.89534 15.8253L5.8667 15.714L6.24552 17.2328L9.0607 17.7278C9.70246 17.84 10.1942 18.3045 10.3718 18.8879L10.3721 18.8889L11.6664 23.1736C11.809 23.6433 11.7347 24.1273 11.501 24.5179L28.7462 13.3385C28.9641 13.1972 29.2558 13.2595 29.3971 13.4774C29.5383 13.6953 29.4761 13.987 29.2582 14.1283L7.48029 28.2459C7.26234 28.3872 6.97076 28.325 6.82946 28.107C6.68817 27.8891 6.7504 27.5975 6.96834 27.4562L10.2653 25.3189ZM8.84917 11.7797L7.02687 13.2835C6.92911 13.3642 6.80282 13.402 6.67676 13.3884L3.73829 13.0706L3.73776 13.0705C3.33752 13.0267 2.97764 13.3157 2.93382 13.7159C2.92405 13.8056 2.93082 13.8933 2.95187 13.976L2.95199 13.9763C3.48629 16.0785 4.09352 18.5137 4.62787 20.6159C4.6507 20.7059 4.64646 20.8006 4.61564 20.8882L2.80405 26.0329L2.80393 26.0332C2.66999 26.4126 2.86893 26.8289 3.2484 26.9628C3.62776 27.0968 4.04399 26.8978 4.17793 26.5185L6.09658 21.0697C6.09852 21.0642 6.10058 21.0587 6.1027 21.0533C6.15699 20.9157 6.16987 20.7604 6.13046 20.6062L6.13034 20.6056L6.05529 20.3106C6.01593 20.1559 6.05776 19.9917 6.1664 19.8746C6.27499 19.7575 6.43558 19.7035 6.59287 19.7312L7.91852 19.9643C8.09346 19.9951 8.23617 20.1217 8.28752 20.2917L9.36846 23.8713C9.48564 24.2571 9.89346 24.4749 10.2793 24.3577C10.6651 24.2406 10.8829 23.8329 10.7658 23.447L10.7656 23.4464L9.4714 19.1617C9.39376 18.9069 9.17905 18.7039 8.8987 18.6549L8.89823 18.6548L5.7814 18.1068C5.59834 18.0745 5.45134 17.9375 5.40634 17.7572L4.79034 15.2875C4.75311 15.1383 4.79117 14.9803 4.89223 14.8643C4.99329 14.7484 5.14464 14.6892 5.29752 14.7058L7.00046 14.89C7.00335 14.8903 7.00623 14.8906 7.00905 14.891C7.20152 14.9154 7.40323 14.8636 7.56482 14.7306L9.77564 12.9062L9.77605 12.9059C10.0871 12.6499 10.1316 12.1902 9.87564 11.8793C9.61964 11.5683 9.16011 11.5238 8.84917 11.7797ZM19.9463 3.95563C20.3559 4.07269 20.7505 4.23616 21.1232 4.44334L21.8778 4.10781C22.0558 4.02869 22.2641 4.06734 22.4018 4.20505L23.5503 5.35358C23.6878 5.49111 23.7265 5.69905 23.6478 5.87687L23.3134 6.63169C23.5208 7.00487 23.6844 7.39987 23.8016 7.81081L24.5711 8.10693C24.7527 8.17687 24.8726 8.35146 24.8726 8.5461V10.1708C24.8726 10.3654 24.7527 10.54 24.5711 10.6099L23.8013 10.9062C23.6839 11.3158 23.5198 11.7102 23.3132 12.083L23.6478 12.8383C23.7265 13.0162 23.6878 13.2242 23.5503 13.3617L22.4018 14.5102C22.2642 14.6477 22.0562 14.6865 21.8784 14.6077L21.1239 14.2735C20.7516 14.4807 20.3562 14.6442 19.9462 14.7613L19.65 15.5309C19.5801 15.7126 19.4055 15.8325 19.2108 15.8325H17.5862C17.3915 15.8325 17.2169 15.7126 17.1471 15.5309C17.1471 15.5309 16.8508 14.7614 16.8509 14.7614C16.4401 14.644 16.0453 14.4798 15.6723 14.2731L14.917 14.6077C14.7392 14.6865 14.5312 14.6477 14.3936 14.5102L13.2451 13.3617C13.1074 13.224 13.0688 13.0157 13.1479 12.8378C13.1479 12.8378 13.4833 12.0834 13.4833 12.0835C13.2762 11.7113 13.1126 11.3162 12.9947 10.9064L12.2243 10.6099C12.0426 10.54 11.9228 10.3654 11.9228 10.1708V8.5461C11.9228 8.35146 12.0426 8.17687 12.2243 8.10693C12.2243 8.10693 12.9945 7.81052 12.9945 7.81058C13.1125 7.39981 13.2761 7.00505 13.4834 6.6321L13.1479 5.87752C13.0688 5.69958 13.1074 5.49128 13.2451 5.35358L14.3936 4.20505C14.5313 4.06734 14.7396 4.02869 14.9176 4.10781L15.6722 4.44334C16.0451 4.23605 16.4397 4.07258 16.8494 3.95552L17.1472 3.18387C17.2172 3.0024 17.3917 2.88269 17.5862 2.88269H19.2108C19.4056 2.88269 19.5802 3.00269 19.6501 3.18452L19.9463 3.95563ZM19.1543 4.51846L18.8875 3.82387H17.9091L17.6408 4.51905C17.5849 4.66375 17.4614 4.77163 17.3105 4.80746C16.8292 4.92187 16.3702 5.11205 15.9483 5.37199C15.8161 5.45346 15.6522 5.46446 15.5103 5.40134L14.8306 5.0991L14.1392 5.79046L14.4414 6.47022C14.5045 6.6121 14.4935 6.77605 14.4121 6.90828C14.1519 7.33052 13.9616 7.78993 13.8457 8.2731C13.8096 8.42369 13.7016 8.54687 13.5571 8.60246L12.864 8.86922V9.84763L13.5571 10.1144C13.7015 10.17 13.8094 10.293 13.8456 10.4434C13.9615 10.9249 14.1516 11.3858 14.4117 11.8063C14.4935 11.9386 14.5046 12.1029 14.4414 12.245L14.1392 12.9248L14.8309 13.6165L15.5109 13.3152C15.6523 13.2526 15.8155 13.2635 15.9473 13.3442C16.3695 13.6029 16.8288 13.7948 17.3119 13.9093C17.463 13.9451 17.5868 14.0532 17.6426 14.1982L17.9093 14.8913H18.8877L19.1545 14.1982C19.2102 14.0533 19.3338 13.9453 19.4848 13.9094C19.9659 13.795 20.4262 13.6051 20.8464 13.3453C20.9785 13.2636 21.1425 13.2523 21.2845 13.3152L21.9645 13.6165L22.6565 12.9244L22.3553 12.2444C22.2927 12.103 22.3035 11.9399 22.3843 11.808C22.643 11.3858 22.835 10.9265 22.9495 10.4448C22.9853 10.2938 23.0934 10.1702 23.2383 10.1144L23.9314 9.84763V8.86922L23.2383 8.60246C23.0933 8.54669 22.9852 8.42293 22.9494 8.27175C22.835 7.78905 22.6449 7.3301 22.3849 6.90828C22.3036 6.77622 22.2925 6.61258 22.3553 6.47081L22.6565 5.79081L21.9648 5.0991L21.2851 5.40134C21.1432 5.46446 20.9793 5.45346 20.8471 5.37199C20.4252 5.11205 19.9662 4.92187 19.4848 4.80746C19.3338 4.77158 19.2101 4.6634 19.1543 4.51846ZM18.3975 5.18422C20.7032 5.18422 22.5727 7.05163 22.5727 9.35734C22.5727 11.663 20.7031 13.5326 18.3975 13.5326C16.0917 13.5326 14.2243 11.6631 14.2243 9.35734C14.2243 7.05152 16.0916 5.18422 18.3975 5.18422ZM18.3975 6.1254C16.6116 6.1254 15.1655 7.57158 15.1655 9.35734C15.1655 11.1432 16.6116 12.5915 18.3975 12.5915C20.1833 12.5915 21.6315 11.1433 21.6315 9.35734C21.6315 7.57152 20.1833 6.1254 18.3975 6.1254ZM20.1726 9.59416C20.3103 9.62563 20.4396 9.70369 20.5393 9.82922C20.6383 9.95405 20.6992 10.1215 20.6992 10.298V10.9276C20.6992 11.104 20.6383 11.2716 20.5393 11.3963C20.4059 11.5643 20.2194 11.6473 20.0308 11.6473H16.7662C16.5776 11.6473 16.3911 11.5643 16.2578 11.3963C16.1587 11.2716 16.0978 11.104 16.0978 10.9276V10.298C16.0978 10.1215 16.1587 9.95405 16.2578 9.82922C16.3467 9.71716 16.4594 9.64287 16.5806 9.60587V8.20116C16.5806 7.90058 16.7 7.61234 16.9125 7.39981C17.1251 7.18728 17.4133 7.06787 17.7139 7.06787H19.0393C19.3398 7.06787 19.6281 7.18728 19.8406 7.39981C20.0532 7.61234 20.1726 7.90058 20.1726 8.20116V9.59416ZM17.5218 9.57822H17.906V9.06575C17.906 8.80599 18.1168 8.59516 18.3766 8.59516C18.6363 8.59516 18.8472 8.80599 18.8472 9.06575V9.57822H19.2314V8.20116C19.2314 8.15022 19.2111 8.10134 19.1751 8.06534C19.1391 8.02928 19.0902 8.00905 19.0393 8.00905H17.7139C17.6629 8.00905 17.6141 8.02928 17.5781 8.06534C17.542 8.10134 17.5218 8.15022 17.5218 8.20116V9.57822ZM19.7581 10.5194H17.039V10.7062H19.7581V10.5194ZM1.76993 7.5201C2.95817 6.83405 4.47758 7.24116 5.1637 8.42952C5.8497 9.61775 5.44258 11.1372 4.25429 11.8232C3.06599 12.5093 1.54652 12.1022 0.860522 10.9139C0.174463 9.72563 0.58158 8.20616 1.76993 7.5201ZM2.24046 8.33522C1.50235 8.76134 1.24946 9.70522 1.67558 10.4433C2.10176 11.1814 3.04558 11.4343 3.7837 11.0082C4.52182 10.582 4.7747 9.63816 4.34858 8.90005C3.9224 8.16193 2.97858 7.90905 2.24046 8.33522Z" fill="black"/>
</svg>
