<svg width="30" height="31" viewBox="0 0 30 31" fill="none" xmlns="http://www.w3.org/2000/svg">
<path d="M6.6511 15.8837C7.30349 15.8837 7.83235 15.3549 7.83235 14.7025C7.83235 14.0501 7.30349 13.5212 6.6511 13.5212C5.99871 13.5212 5.46985 14.0501 5.46985 14.7025C5.46985 15.3549 5.99871 15.8837 6.6511 15.8837Z" fill="#FFBB98"/>
<path d="M1.34005 27.4231L4.58157 22.0554L5.282 18.1862C5.37517 17.6716 5.83114 17.3032 6.35474 17.3213L7.95423 17.3764L9.73677 15.7424C10.1656 15.3494 10.832 15.3783 11.2249 15.8071C11.618 16.2359 11.589 16.9022 11.1602 17.2953L9.06025 19.2203C8.85669 19.4069 8.58833 19.5059 8.31224 19.4965L7.19274 19.458L6.85243 21.338L8.43364 21.2855C8.74185 21.2755 9.03974 21.4009 9.24751 21.6292C9.45529 21.8575 9.55255 22.1655 9.51341 22.4717L8.74935 28.1009C8.68138 28.6326 8.2281 29.0208 7.70591 29.0208C7.66138 29.0208 7.61638 29.018 7.57103 29.0121C6.994 28.9384 6.58607 28.4109 6.65978 27.8338L7.26692 23.4318L6.18974 23.4675L3.14333 28.512C2.9454 28.8396 2.59747 29.0209 2.24075 29.0209C2.05536 29.0209 1.86751 28.972 1.69724 28.8691C1.19931 28.5686 1.03935 27.9211 1.34005 27.4231Z" fill="#5FCDFF"/>
<path d="M7.069 28.8077C7.21033 28.9161 7.38131 28.9889 7.57091 29.0126C7.61662 29.0176 7.6615 29.021 7.70556 29.021C8.22787 29.021 8.68162 28.6324 8.74924 28.1009L9.51295 22.4714C9.55279 22.1658 9.45541 21.8577 9.24716 21.6292C9.03974 21.4007 8.74185 21.2754 8.43365 21.2855L7.45935 21.3176C7.65658 21.3683 7.83775 21.4751 7.97744 21.6291C8.18568 21.8576 8.28306 22.1658 8.24322 22.4713L7.47951 28.1007C7.44224 28.3938 7.28744 28.6436 7.069 28.8077Z" fill="#30B6FF"/>
<path d="M7.7904 19.22C7.66255 19.3377 7.50856 19.4207 7.34344 19.463L8.31188 19.4968C8.58868 19.5062 8.85704 19.4071 9.06012 19.22L11.1602 17.2951C11.5894 16.9023 11.6182 16.2362 11.2246 15.807C10.8546 15.4031 10.2418 15.3541 9.81259 15.6783C9.86333 15.7156 9.91079 15.7587 9.95485 15.807C10.3485 16.2361 10.3197 16.9023 9.89052 17.2951L7.7904 19.22Z" fill="#30B6FF"/>
<path d="M20.7622 3.44507C16.3165 3.44507 12.7125 7.04905 12.7125 11.4948C12.7125 13.033 13.1445 14.4701 13.8929 15.6923L12.1119 19.6752C11.9269 20.089 12.3505 20.5125 12.7643 20.3276L16.8216 18.5133C17.9866 19.1688 19.3302 19.5445 20.7624 19.5445C25.2081 19.5445 28.8121 15.9405 28.8121 11.4948C28.812 7.04905 25.208 3.44507 20.7622 3.44507Z" fill="#FFE2E2"/>
<path d="M16.4817 1.97925V6.59058C16.4817 8.47144 17.7128 10.0642 19.4128 10.6089C19.2688 12.9659 18.6676 14.3721 18.6676 14.3721H20.7011H22.7345C22.7345 14.3721 22.1334 12.9659 21.9893 10.6089C23.6893 10.0642 24.9204 8.47155 24.9204 6.59058V1.97925H16.4817Z" fill="#F9D335"/>
<path d="M20.696 10.6092C20.5515 12.9661 19.9502 14.3721 19.9502 14.3721H18.6675C18.6675 14.3721 19.2687 12.9662 19.4133 10.6092C17.7131 10.0644 16.4817 8.47121 16.4817 6.59059V1.97949H17.7645V6.5907C17.7643 8.47121 18.9959 10.0645 20.696 10.6092Z" fill="#F9E27D"/>
<path d="M24.9206 1.97949V6.5907C24.9206 8.47133 23.6891 10.0645 21.9891 10.6093C22.1336 12.9662 22.7348 14.3722 22.7348 14.3722H21.4521C21.4521 14.3722 20.8509 12.9663 20.7063 10.6093C22.4065 10.0645 23.6379 8.47133 23.6379 6.5907V1.97949H24.9206Z" fill="#F2C300"/>
<path d="M24.3933 16.0075H17.009C16.7109 16.0075 16.4694 15.766 16.4694 15.468V14.1589C16.4694 13.8609 16.7109 13.6194 17.009 13.6194H24.3933C24.6913 13.6194 24.9328 13.8609 24.9328 14.1589V15.468C24.9328 15.766 24.6913 16.0075 24.3933 16.0075Z" fill="#F9D335"/>
<path d="M17.8609 13.6194V16.0075H17.009C16.7109 16.0075 16.4694 15.766 16.4694 15.468V14.1589C16.4694 13.8609 16.7109 13.6194 17.009 13.6194H17.8609Z" fill="#F9E27D"/>
<path d="M24.9326 14.1589V15.468C24.9326 15.766 24.6911 16.0075 24.3931 16.0075H23.5808V13.6194H24.3931C24.691 13.6194 24.9326 13.861 24.9326 14.1589Z" fill="#F2C300"/>
<path d="M6.65052 16.3522C7.56107 16.3522 8.30052 15.6128 8.30052 14.7022C8.30052 13.7929 7.56107 13.0522 6.65052 13.0522C5.74114 13.0522 5.00052 13.7929 5.00052 14.7022C5.00052 15.6128 5.74114 16.3522 6.65052 16.3522ZM6.65052 13.9897C7.04427 13.9897 7.36302 14.3097 7.36302 14.7022C7.36302 15.0948 7.04427 15.4147 6.65052 15.4147C6.25794 15.4147 5.93802 15.0948 5.93802 14.7022C5.93802 14.3097 6.25794 13.9897 6.65052 13.9897Z" fill="#5F266D"/>
<path d="M8.297 19.9651C8.69661 19.978 9.08215 19.8362 9.37747 19.5655L11.4775 17.6413C12.1002 17.0674 12.1372 16.1075 11.5712 15.4909C11.001 14.8697 10.0379 14.8296 9.41965 15.3971L7.77903 16.9018L6.37043 16.8526C5.62161 16.828 4.95481 17.3647 4.82122 18.103L4.13567 21.887L0.938793 27.1803C0.505668 27.8992 0.73266 28.8336 1.45442 29.271C2.1859 29.7107 3.11696 29.4622 3.54504 28.7542L6.4595 23.9284L6.72668 23.919L6.19465 27.7745C6.08801 28.6065 6.67864 29.3706 7.51184 29.4772C8.36145 29.585 9.10981 28.9771 9.2134 28.1647L9.97864 22.5315C10.0961 21.6068 9.36399 20.7898 8.4177 20.8171L7.41692 20.8499L7.58215 19.9405L8.297 19.9651ZM6.86848 21.8061L8.44817 21.7546C8.81743 21.7398 9.0927 22.0662 9.04934 22.4085L8.28411 28.0417C8.24426 28.3569 7.94895 28.5889 7.6302 28.5479C7.31028 28.5069 7.08411 28.2128 7.12395 27.8975L7.73098 23.496C7.7686 23.2213 7.56 22.9588 7.25168 22.9639L6.17356 22.9991C6.01536 23.005 5.87004 23.0893 5.78801 23.2253L2.74231 28.2702C2.57344 28.5505 2.21379 28.6334 1.93957 28.4682C1.65997 28.2989 1.57618 27.9377 1.74153 27.6655L4.98293 22.2983C5.01223 22.2491 5.03332 22.1952 5.0427 22.1389L5.74348 18.2694C5.79387 17.9882 6.03411 17.7889 6.3177 17.7889C6.3177 17.7889 6.28114 17.7881 7.9384 17.8452C8.06028 17.8464 8.18098 17.8053 8.27122 17.7221L10.0536 16.0886C10.2885 15.8728 10.659 15.8834 10.8798 16.1237C11.0978 16.3616 11.0814 16.7319 10.8435 16.9499L8.74348 18.8753C8.62981 18.9784 8.4845 19.0311 8.32864 19.0276L7.20832 18.9901C6.97864 18.9866 6.77239 19.146 6.73137 19.3745L6.39153 21.2542C6.34008 21.5323 6.54997 21.8113 6.86848 21.8061Z" fill="#5F266D"/>
<path d="M27.6157 6.44069C28.1013 5.51468 28.2194 4.51683 28.1688 3.85366C28.1502 3.60933 27.9465 3.42065 27.7015 3.42065H25.3888V1.97925C25.3888 1.72026 25.179 1.5105 24.92 1.5105H16.4814C16.2224 1.5105 16.0126 1.72026 16.0126 1.97925V3.42065H13.7007C13.4557 3.42065 13.252 3.60933 13.2334 3.85366C13.1202 5.33702 13.8388 6.53784 13.8388 6.53784C12.8345 7.93472 12.2439 9.64683 12.2439 11.4949C12.2439 12.9832 12.6317 14.4386 13.3665 15.723L11.6837 19.4835C11.3225 20.2935 12.153 21.1157 12.9552 20.755L16.8013 19.0359C18.0189 19.6757 19.3829 20.0132 20.7622 20.0132C25.4591 20.0132 29.2806 16.1917 29.2806 11.4949C29.2806 9.5437 28.5685 7.64421 27.6157 6.44069ZM25.3888 5.49358C25.7812 5.79581 26.1421 6.13683 26.4677 6.50925C26.1916 6.86608 25.8175 7.19233 25.3116 7.43468C25.4079 6.9221 25.3888 6.65444 25.3888 5.49358ZM27.23 4.35804C27.2091 4.68394 27.1421 5.15573 26.9504 5.64792C26.49 5.16054 25.9721 4.72589 25.4075 4.35804H27.23ZM16.9501 2.448H24.4513V6.59058C24.4513 8.65741 22.7712 10.3417 20.7013 10.3417C18.6279 10.3417 16.9501 8.6553 16.9501 6.59058C16.9501 5.62917 16.9501 3.41011 16.9501 2.448ZM21.8778 13.1507H19.5247C19.6454 12.6292 19.7638 11.973 19.8364 11.1984C20.3804 11.303 20.9892 11.3095 21.5661 11.1984C21.6388 11.9729 21.7571 12.6291 21.8778 13.1507ZM24.3939 14.0882C24.4325 14.0882 24.4642 14.1199 24.4642 14.1585V15.4687C24.4642 15.5074 24.4325 15.539 24.3939 15.539H17.0087C16.97 15.539 16.9384 15.5074 16.9384 15.4687V14.1585C16.9384 14.1199 16.97 14.0882 17.0087 14.0882H24.3939ZM16.0887 7.43374C15.6189 7.20827 15.2628 6.9105 14.9935 6.58296C15.3005 6.22108 15.6425 5.88839 16.0126 5.59097C16.0126 6.64659 15.9944 6.92058 16.0887 7.43374ZM14.1721 4.35804H16.0126V4.42718C15.0689 5.06222 14.606 5.63479 14.4888 5.73897C14.2686 5.21433 14.1943 4.70386 14.1721 4.35804ZM20.7622 19.0756C19.4638 19.0756 18.1806 18.7405 17.0509 18.1053C16.922 18.0315 16.765 18.0244 16.6302 18.0854L12.5732 19.8994C12.5626 19.9041 12.5567 19.9065 12.545 19.8948C12.5333 19.8819 12.5357 19.8772 12.5403 19.8666L14.3204 15.8834C14.3837 15.7428 14.3732 15.5799 14.2923 15.4475C13.5657 14.2604 13.1814 12.894 13.1814 11.4948C13.1814 9.96429 13.6372 8.53929 14.42 7.34749C14.42 7.34749 15.0892 8.18104 16.4507 8.568C17.0389 9.74456 17.8827 10.4998 18.92 10.9276C18.8427 11.8475 18.6962 12.601 18.5591 13.1506H17.0087C16.4532 13.1506 16.0009 13.603 16.0009 14.1584V15.4686C16.0009 16.0241 16.4532 16.4764 17.0087 16.4764H24.3939C24.9493 16.4764 25.4017 16.0241 25.4017 15.4686V14.1584C25.4017 13.603 24.9493 13.1506 24.3939 13.1506H22.8423C22.7052 12.601 22.5587 11.8475 22.4825 10.9276C24.0844 10.2672 24.8855 8.82909 24.9506 8.56835C25.8823 8.30374 26.5623 7.83019 27.0514 7.26862C27.7317 8.17565 28.3431 9.81335 28.3431 11.4948C28.3431 15.675 24.9423 19.0756 20.7622 19.0756Z" fill="#5F266D"/>
<path d="M22.2997 4.35815H22.7345C22.9866 4.35815 23.2033 4.1539 23.2033 3.8894C23.2033 3.63042 22.9935 3.42065 22.7345 3.42065H22.2997C22.0419 3.42065 21.831 3.63042 21.831 3.8894C21.831 4.14499 22.0399 4.35815 22.2997 4.35815Z" fill="#5F266D"/>
<path d="M18.6669 4.35815H20.5419C20.8044 4.35815 21.0107 4.14417 21.0107 3.8894C21.0107 3.63042 20.8009 3.42065 20.5419 3.42065H18.6669C18.4091 3.42065 18.1982 3.63042 18.1982 3.8894C18.1982 4.15448 18.4158 4.35815 18.6669 4.35815Z" fill="#5F266D"/>
</svg>
