<svg width="30" height="31" viewBox="0 0 30 31" fill="none" xmlns="http://www.w3.org/2000/svg">
<path d="M1.35938 24.3125V27.7812C1.35938 28.5312 1.96876 29.0937 2.67186 29.0937H14.3906C15.1406 29.0937 15.7031 28.4843 15.7031 27.7812V24.3125H1.35938Z" fill="white"/>
<path d="M15.75 23.8438H1.35937C1.07809 23.8438 0.890594 24.0312 0.890594 24.3125V27.7813C0.890594 28.7657 1.68748 29.5625 2.67186 29.5625H14.3906C15.375 29.5625 16.1718 28.7657 16.1718 27.7813V24.3125C16.2187 24.0312 15.9843 23.8438 15.75 23.8438ZM15.2812 27.7813C15.2812 28.25 14.9062 28.625 14.4375 28.625H2.71875C2.24997 28.625 1.87497 28.25 1.87497 27.7813V24.7813H15.2812V27.7813Z" fill="#193651"/>
<path d="M15.7031 11.0469H1.35938V24.2656H15.7031V11.0469Z" fill="#2EA2DB"/>
<path d="M15.75 24.7813H1.35937C1.07809 24.7813 0.890594 24.5938 0.890594 24.3125V11.0469C0.890594 10.7656 1.07809 10.5781 1.35937 10.5781H15.7031C15.9844 10.5781 16.1719 10.7656 16.1719 11.0469V24.2657C16.2187 24.5469 15.9843 24.7813 15.75 24.7813ZM1.82815 23.8438H15.2344V11.5157H1.82815V23.8438Z" fill="#193651"/>
<path d="M13.9687 12.8281H3.14062V22.5313H13.9687V12.8281Z" fill="white"/>
<path d="M14.3906 7.53125H2.67186C1.92187 7.53125 1.35938 8.14063 1.35938 8.84374V11.0469H15.7031V8.84374C15.75 8.14057 15.1406 7.53125 14.3906 7.53125Z" fill="white"/>
<path d="M15.75 11.5157H1.35937C1.07809 11.5157 0.890594 11.3282 0.890594 11.0469V8.84376C0.890594 7.85938 1.68748 7.0625 2.67186 7.0625H14.3906C15.375 7.0625 16.1718 7.85938 16.1718 8.84376V11.0469C16.2187 11.3282 15.9843 11.5157 15.75 11.5157ZM1.82815 10.5782H15.2344V8.84382C15.2344 8.37505 14.8594 8.00005 14.3906 8.00005H2.67186C2.20308 8.00005 1.82809 8.37505 1.82809 8.84382L1.82815 10.5782Z" fill="#193651"/>
<path d="M8.53125 27.7812C9.12667 27.7812 9.60935 27.2985 9.60935 26.7031C9.60935 26.1077 9.12667 25.625 8.53125 25.625C7.93584 25.625 7.45316 26.1077 7.45316 26.7031C7.45316 27.2985 7.93584 27.7812 8.53125 27.7812Z" fill="#CFD0D1"/>
<path d="M10.3125 9.7813H6.79687C6.51559 9.7813 6.32809 9.5938 6.32809 9.31253C6.32809 9.03125 6.51559 8.84375 6.79687 8.84375H10.3125C10.5938 8.84375 10.7813 9.03125 10.7813 9.31253C10.7812 9.54691 10.5468 9.7813 10.3125 9.7813Z" fill="#193651"/>
<path d="M27.1875 3.21872C27.1875 2.42184 27.8437 1.76562 28.6406 1.76562H20.0625C19.2656 1.76562 18.6094 2.4219 18.6094 3.21872C18.6094 4.01554 19.2656 4.67182 20.0625 4.67182H28.5937C27.8437 4.67182 27.1875 4.06249 27.1875 3.21872Z" fill="#E1E6E9"/>
<path d="M28.6406 5.14062H20.0625C18.9844 5.14062 18.1406 4.29684 18.1406 3.21875C18.1406 2.14065 18.9844 1.29688 20.0625 1.29688H28.5937C28.875 1.29688 29.0625 1.48437 29.0625 1.76565C29.0625 2.04693 28.875 2.23443 28.5937 2.23443C28.0312 2.23443 27.6093 2.65631 27.6093 3.21881C27.6093 3.7813 28.0312 4.20319 28.5937 4.20319C28.875 4.20319 29.0625 4.39068 29.0625 4.67196C29.1093 4.95312 28.875 5.14062 28.6406 5.14062ZM20.0625 2.28126C19.5 2.28126 19.0781 2.70314 19.0781 3.26564C19.0781 3.82813 19.5 4.25002 20.0625 4.25002H26.9531C26.8125 3.92191 26.7187 3.59374 26.7187 3.21875C26.7187 2.84375 26.8125 2.51564 27 2.23437H20.0625V2.28126Z" fill="#193651"/>
<path d="M20.0625 4.67185C19.2656 4.67185 18.6094 4.01557 18.6094 3.21875V13.3438C18.6094 14.3281 19.4063 15.125 20.3906 15.125H21.0469V4.67185H20.0625Z" fill="#F16051"/>
<path d="M21.0468 15.5938H20.3906C19.1718 15.5938 18.1406 14.6094 18.1406 13.3438V3.21878C18.1406 2.9375 18.3281 2.75 18.6094 2.75C18.8906 2.75 19.0781 2.9375 19.0781 3.21878C19.0781 3.78127 19.5 4.20316 20.0625 4.20316H21.0469C21.3282 4.20316 21.5157 4.39065 21.5157 4.67193V15.1251C21.5156 15.3594 21.3281 15.5938 21.0468 15.5938ZM19.0781 4.90626V13.3906C19.0781 14.0937 19.6406 14.7031 20.3906 14.7031H20.5781V5.14065H20.0625C19.7344 5.14065 19.4063 5.04687 19.0781 4.90626Z" fill="#193651"/>
<path d="M28.5938 4.67188H21.0469V15.125H28.5938V4.67188Z" fill="white"/>
<path d="M28.5937 15.5938H21.0469C20.7656 15.5938 20.5781 15.4063 20.5781 15.125V4.6719C20.5781 4.39062 20.7656 4.20312 21.0469 4.20312H28.5937C28.875 4.20312 29.0625 4.39062 29.0625 4.6719V15.125C29.0625 15.3594 28.875 15.5938 28.5937 15.5938ZM21.5156 14.6563H28.125V5.14068H21.5156V14.6563Z" fill="#193651"/>
<path d="M25.9219 8.42187L24.5156 7.34377L23.1562 8.42187V5.14062H25.9219V8.42187Z" fill="#4FBF9F"/>
<path d="M11.3437 15.4531H5.76562V19.9063H11.3437V15.4531Z" fill="white"/>
<path d="M11.3437 20.3751H5.76562C5.48434 20.3751 5.29684 20.1876 5.29684 19.9063V15.4532C5.29684 15.1719 5.48434 14.9844 5.76562 14.9844H11.3437C11.625 14.9844 11.8125 15.1719 11.8125 15.4532V19.9063C11.8125 20.1407 11.5781 20.3751 11.3437 20.3751ZM6.2344 19.4376H10.875V15.9219H6.2344V19.4376Z" fill="#193651"/>
<path d="M21.9844 29.5625C21.6563 29.5625 21.3281 29.5156 21.0469 29.4219L21.3282 28.5313C21.5625 28.5782 21.7969 28.6251 22.0313 28.6251H22.125L22.1719 29.5626H21.9844V29.5625ZM23.1563 29.3281L22.8281 28.4375C23.0625 28.3437 23.2969 28.2031 23.4844 28.0625L24.0938 28.7656C23.8125 29 23.4844 29.1875 23.1563 29.3281ZM20.0157 28.9531C19.7344 28.7187 19.4532 28.4844 19.2657 28.2031L20.0157 27.6406C20.1563 27.875 20.3438 28.0156 20.5782 28.2031L20.0157 28.9531ZM24.7969 27.9687L24 27.5C24.1406 27.2656 24.2344 27.0312 24.2813 26.7969L25.2188 26.9844C25.125 27.3125 24.9844 27.6406 24.7969 27.9687ZM18.7969 27.1719C18.7031 26.8438 18.6563 26.5156 18.6563 26.1875V26.0937H19.5938V26.1875C19.5938 26.4219 19.6407 26.6563 19.6876 26.8906L18.7969 27.1719ZM25.3125 25.9063H24.375V24.9688H25.3125V25.9063ZM19.5938 25.2031H18.6563V24.2656H19.5938V25.2031ZM25.3125 24.0312H24.375V23.0937H25.3125V24.0312ZM19.5938 23.3281H18.6563V22.3906H19.5938V23.3281ZM25.3125 22.1562H24.375V21.2188H25.3125V22.1562ZM19.5938 21.4531H18.6563V20.5625H19.3594H19.5938V21.4531ZM25.3125 20.2813H24.375V19.3438H25.3125V20.2813ZM18.5156 19.7188C18.4218 19.4844 18.2812 19.25 18.1406 19.0157L18.8906 18.4532C19.125 18.7344 19.3125 19.0626 19.4062 19.3907L18.5156 19.7188ZM17.5312 18.5469C17.2969 18.4063 17.0625 18.3125 16.8281 18.2188L17.0625 17.3282C17.4375 17.422 17.7656 17.5626 18.0469 17.7501L17.5312 18.5469ZM25.3125 18.4062H24.375V17.4687H25.3125V18.4062ZM16.0313 18.125H15.0938V17.1875H16.0313V18.125ZM14.1563 18.125H13.2188V17.1875H14.1563V18.125ZM12.2812 18.125H11.3438V17.1875H12.2812V18.125ZM25.3125 16.5312H24.375V15.5938H25.3125V16.5312Z" fill="#193651"/>
</svg>
