<svg width="30" height="31" viewBox="0 0 30 31" fill="none" xmlns="http://www.w3.org/2000/svg">
<g clip-path="url(#clip0_302_1189)">
<path d="M25.2004 5.11413V1.36108L28.4972 2.83067C28.8493 2.98765 28.8493 3.48757 28.4972 3.64454L25.2004 5.11413Z" fill="#DF646E"/>
<path d="M20.2457 9.02264C20.7979 9.02264 21.2455 8.57499 21.2455 8.02279C21.2455 7.4706 20.7979 7.02295 20.2457 7.02295C19.6935 7.02295 19.2458 7.4706 19.2458 8.02279C19.2458 8.57499 19.6935 9.02264 20.2457 9.02264Z" fill="#80E29E"/>
<path d="M26.7541 11.5897H23.6467C23.5369 11.5897 23.4479 11.5007 23.4479 11.3909V10.5295C23.4479 9.94056 23.9254 9.46313 24.5143 9.46313H25.8864C26.4754 9.46313 26.9528 9.94056 26.9528 10.5295V11.3909C26.9528 11.5007 26.8638 11.5897 26.7541 11.5897Z" fill="#F5DE46"/>
<path d="M19.8224 29.6392C22.4112 29.6392 24.5099 27.5405 24.5099 24.9517C24.5099 22.3628 22.4112 20.2642 19.8224 20.2642C17.2336 20.2642 15.1349 22.3628 15.1349 24.9517C15.1349 27.5405 17.2336 29.6392 19.8224 29.6392Z" fill="#80B6FC"/>
<path d="M23.5531 22.1145C23.7671 22.6512 23.886 23.236 23.886 23.8491C23.886 26.4379 21.7873 28.5366 19.1985 28.5366C17.6762 28.5366 16.324 27.8104 15.4677 26.6861C16.1574 28.416 17.8465 29.6391 19.8223 29.6391C22.4112 29.6391 24.5098 27.5404 24.5098 24.9516C24.5099 23.885 24.1531 22.9022 23.5531 22.1145Z" fill="#62A4FB"/>
<path d="M22.1649 26.711C21.518 26.0641 20.4693 26.0641 19.8224 26.711C19.8224 25.6998 19.8224 24.6885 19.8224 23.6773C20.4693 23.0304 21.518 23.0304 22.1649 23.6773V26.711Z" fill="#BED9FD"/>
<path d="M19.8224 26.711C19.1755 26.0641 18.1267 26.0641 17.4799 26.711C17.4799 25.6998 17.4799 24.6885 17.4799 23.6773C18.1267 23.0304 19.1755 23.0304 19.8224 23.6773V26.711Z" fill="#DDEBFD"/>
<path d="M10.3114 21.1748C12.9002 21.1748 14.9989 19.0761 14.9989 16.4873C14.9989 13.8985 12.9002 11.7998 10.3114 11.7998C7.72257 11.7998 5.6239 13.8985 5.6239 16.4873C5.6239 19.0761 7.72257 21.1748 10.3114 21.1748Z" fill="#F5DE46"/>
<path d="M14.0422 13.6501C14.2562 14.1868 14.3751 14.7717 14.3751 15.3847C14.3751 17.9735 12.2764 20.0722 9.68757 20.0722C8.1653 20.0722 6.81308 19.346 5.95679 18.2217C6.64649 19.9516 8.33558 21.1747 10.3114 21.1747C12.9003 21.1747 14.9989 19.076 14.9989 16.4872C14.9989 15.4207 14.6421 14.4378 14.0422 13.6501Z" fill="#ECC52E"/>
<path d="M8.31665 15.8992V17.952C8.31665 18.0522 8.3845 18.1396 8.48159 18.1645L10.2025 18.6054C10.274 18.6237 10.3489 18.6237 10.4203 18.6054L12.1412 18.1645C12.2383 18.1397 12.3062 18.0522 12.3062 17.952V15.8992H8.31665Z" fill="#407194"/>
<path d="M10.2488 14.9034L7.22895 15.8032C7.13356 15.8316 7.13356 15.9667 7.22895 15.9951L10.2488 16.8949C10.2897 16.9071 10.3331 16.9071 10.374 16.8949L13.3938 15.9951C13.4892 15.9667 13.4892 15.8316 13.3938 15.8032L10.374 14.9034C10.3332 14.8912 10.2897 14.8912 10.2488 14.9034Z" fill="#5D91B9"/>
<path d="M25.3283 16.0478H15.4193C15.1956 13.4257 12.9904 11.3602 10.3114 11.3602C9.44051 11.3602 8.58 11.5827 7.82303 12.0036C7.61098 12.1215 7.53463 12.3891 7.65258 12.6013C7.77053 12.8134 8.03813 12.8896 8.25023 12.7717C8.87684 12.4232 9.58957 12.239 10.3114 12.239C12.6538 12.239 14.5594 14.1447 14.5594 16.4872C14.5594 18.8295 12.6538 20.7351 10.3114 20.7351C7.96898 20.7351 6.06334 18.8295 6.06334 16.4872C6.06334 15.579 6.3457 14.7129 6.88002 13.9824C7.02328 13.7864 6.98063 13.5115 6.78475 13.3682C6.58881 13.225 6.31383 13.2676 6.17062 13.4635C5.61229 14.2269 5.28229 15.1129 5.20342 16.0478H4.67168C2.58035 16.0478 0.878906 14.3464 0.878906 12.2551C0.878906 10.1637 2.58035 8.4623 4.67168 8.4623H18.8752C19.0614 9.04162 19.6053 9.46209 20.2457 9.46209C21.0394 9.46209 21.685 8.81639 21.685 8.02279C21.685 7.2292 21.0393 6.5835 20.2457 6.5835C19.6052 6.5835 19.0614 7.00402 18.8752 7.5834H4.67168C2.09572 7.5834 0 9.67906 0 12.2551C0 14.831 2.09572 16.9267 4.67168 16.9267H5.20342C5.42713 19.5487 7.63242 21.614 10.3114 21.614C12.9903 21.614 15.1956 19.5487 15.4192 16.9266H25.3283C27.4196 16.9266 29.1211 18.6281 29.1211 20.7195C29.1211 22.8108 27.4196 24.5122 25.3284 24.5122H24.9303C24.7066 21.8901 22.5014 19.8245 19.8224 19.8245C17.1435 19.8245 14.9381 21.8901 14.7145 24.5122H9.29121C9.04846 24.5122 8.85176 24.709 8.85176 24.9517C8.85176 25.1945 9.04852 25.3911 9.29121 25.3911H14.7144C14.938 28.0131 17.1434 30.0784 19.8223 30.0784C20.9844 30.0784 22.0803 29.6992 22.9915 28.9818C23.1821 28.8317 23.215 28.5555 23.0649 28.3647C22.9148 28.174 22.6385 28.1411 22.4478 28.2913C21.6931 28.8854 20.7853 29.1995 19.8223 29.1995C17.4799 29.1995 15.5742 27.2939 15.5742 24.9516C15.5742 22.6091 17.4799 20.7034 19.8223 20.7034C22.1647 20.7034 24.0703 22.6091 24.0703 24.9516C24.0703 25.6117 23.9232 26.2441 23.6331 26.831C23.5256 27.0487 23.6147 27.3122 23.8323 27.4197C24.0499 27.5273 24.3134 27.4381 24.421 27.2205C24.7065 26.6428 24.8773 26.0292 24.9308 25.3912H25.3282C27.9042 25.3912 29.9999 23.2955 29.9999 20.7195C30 18.1435 27.9043 16.0478 25.3283 16.0478ZM20.2457 7.46234C20.5547 7.46234 20.8061 7.71377 20.8061 8.02273C20.8061 8.3317 20.5547 8.58312 20.2457 8.58312C19.9367 8.58312 19.6853 8.33176 19.6853 8.02279C19.6853 7.71377 19.9367 7.46234 20.2457 7.46234Z" fill="black"/>
<path d="M19.8224 23.1108C19.0077 22.5613 17.8893 22.6463 17.1691 23.3665C17.0867 23.4489 17.0404 23.5607 17.0404 23.6773V26.711C17.0404 26.8887 17.1475 27.049 17.3117 27.117C17.3661 27.1395 17.4231 27.1504 17.4797 27.1504C17.5941 27.1504 17.7065 27.1058 17.7906 27.0218C18.2651 26.5473 19.037 26.5472 19.5117 27.0218C19.5851 27.0951 19.6829 27.1389 19.7794 27.1483C19.7973 27.1501 19.8261 27.1507 19.8521 27.149C19.9157 27.1446 19.9744 27.1278 20.0282 27.0993L20.029 27.0988C20.0631 27.0806 20.1047 27.0501 20.133 27.0218C20.6077 26.5474 21.3796 26.5472 21.8542 27.0217C21.9383 27.1058 22.0506 27.1504 22.165 27.1504C22.2216 27.1504 22.2787 27.1394 22.3331 27.1169C22.4973 27.049 22.6044 26.8886 22.6044 26.7109V23.6772C22.6044 23.5607 22.5581 23.4489 22.4756 23.3665C21.7553 22.6463 20.637 22.5613 19.8224 23.1108ZM19.3829 25.919C18.9118 25.7442 18.3902 25.7437 17.9193 25.9184V23.876C18.351 23.5507 18.9512 23.552 19.3829 23.8777V25.919ZM21.7254 25.9184C21.4898 25.8311 21.2418 25.7874 20.9936 25.7874C20.7455 25.7874 20.4973 25.8311 20.2618 25.9184V23.876C20.6934 23.5509 21.2938 23.5509 21.7254 23.876V25.9184H21.7254Z" fill="black"/>
<path d="M8.37235 18.5899L10.0943 19.0314C10.1652 19.0494 10.238 19.0584 10.3111 19.0584C10.3844 19.0584 10.4578 19.0494 10.5295 19.0311L12.249 18.5903C12.5417 18.5163 12.746 18.2539 12.746 17.9521V16.6468L13.5195 16.4163C13.75 16.3476 13.9049 16.1398 13.9049 15.8992C13.9049 15.6587 13.75 15.4508 13.5194 15.3821L10.4996 14.4824C10.3764 14.4456 10.2465 14.4456 10.1233 14.4824L7.10345 15.3821C6.87288 15.4508 6.71802 15.6587 6.71802 15.8992C6.71802 16.1398 6.87294 16.3476 7.10351 16.4163L7.87741 16.6469V17.9521C7.87735 18.2535 8.0812 18.5159 8.37235 18.5899ZM11.867 17.7809L10.3115 18.1799L8.75626 17.7811V16.9088L10.1233 17.3161C10.1848 17.3344 10.2481 17.3436 10.3114 17.3436C10.3747 17.3436 10.438 17.3345 10.4995 17.3161L11.867 16.9087V17.7809ZM10.3114 15.3434L12.177 15.8992C12.1762 15.8994 10.3114 16.4551 10.3114 16.4551C10.3114 16.4551 8.44794 15.8997 8.44612 15.8992L10.3114 15.3434Z" fill="black"/>
<path d="M23.6467 12.0291H26.754C27.1059 12.0291 27.3922 11.7428 27.3922 11.3909V10.5294C27.3922 9.69911 26.7168 9.02365 25.8864 9.02365H25.6399V5.39939L28.6761 4.04593C28.9996 3.90167 29.2007 3.59201 29.2007 3.23769C29.2007 2.88337 28.9997 2.57359 28.6761 2.42927L25.3794 0.959681C25.2434 0.899095 25.086 0.911459 24.9612 0.992494C24.8363 1.07353 24.761 1.21228 24.761 1.36111V9.02365H24.5144C23.6841 9.02365 23.0085 9.69911 23.0085 10.5294V11.3909C23.0085 11.7428 23.2948 12.0291 23.6467 12.0291ZM25.6399 2.03792L28.321 3.2323C28.3221 3.23464 28.3221 3.24056 28.3183 3.24314L25.6399 4.4371V2.03792ZM23.8875 10.5294C23.8875 10.1838 24.1687 9.90255 24.5144 9.90255H25.8864C26.2321 9.90255 26.5133 10.1838 26.5133 10.5294V11.1502H23.8875V10.5294Z" fill="black"/>
<path d="M5.56333 22.6562C5.38456 22.492 5.10671 22.5036 4.94235 22.6823C4.77811 22.8609 4.78977 23.139 4.96843 23.3033L6.76134 24.9516L4.96843 26.6C4.78977 26.7643 4.77811 27.0423 4.94235 27.221C5.02901 27.3152 5.14731 27.363 5.26597 27.363C5.37225 27.363 5.4789 27.3247 5.56327 27.247L7.56729 25.4044C7.69356 25.2884 7.76604 25.1233 7.76604 24.9517C7.7661 24.7802 7.69374 24.6151 7.56723 24.4987L5.56333 22.6562Z" fill="black"/>
<path d="M4.64939 24.4986L2.64548 22.6562C2.46683 22.492 2.18886 22.5036 2.02451 22.6823C1.86027 22.8609 1.87193 23.139 2.05058 23.3033L3.84343 24.9516L2.05058 26.6C1.87193 26.7643 1.86027 27.0423 2.02451 27.221C2.11117 27.3152 2.22947 27.363 2.34812 27.363C2.45441 27.363 2.56105 27.3247 2.64542 27.247L4.64927 25.4046C4.77566 25.2885 4.84814 25.1234 4.8482 24.9518C4.84825 24.7801 4.77583 24.615 4.64939 24.4986Z" fill="black"/>
</g>
<defs>
<clipPath id="clip0_302_1189">
<rect width="30" height="30" fill="white" transform="translate(0 0.5)"/>
</clipPath>
</defs>
</svg>
