<svg width="30" height="31" viewBox="0 0 30 31" fill="none" xmlns="http://www.w3.org/2000/svg">
<g clip-path="url(#clip0_302_1211)">
<path fill-rule="evenodd" clip-rule="evenodd" d="M10.8758 20.2723H19.124C19.3551 20.2723 19.5533 20.1729 19.6909 19.9876C19.8285 19.8023 19.8674 19.583 19.8003 19.3625C19.1787 17.3006 17.265 15.7986 15.0002 15.7986C12.7354 15.7986 10.8211 17.3006 10.1995 19.3625C10.133 19.583 10.1712 19.8023 10.3089 19.9876C10.4465 20.1729 10.6452 20.2723 10.8758 20.2723Z" fill="#8AC9FE"/>
<path fill-rule="evenodd" clip-rule="evenodd" d="M19.124 20.2723C19.3551 20.2723 19.5533 20.1729 19.6909 19.9876C19.8285 19.8023 19.8674 19.583 19.8003 19.3625C19.1786 17.3006 17.265 15.7986 15.0002 15.7986C14.7602 15.7986 14.5244 15.8156 14.2939 15.8479C16.2428 16.1232 17.8319 17.5188 18.3876 19.3625C18.4547 19.583 18.4165 19.8023 18.2789 19.9876C18.1412 20.1729 17.9425 20.2723 17.7119 20.2723H19.124Z" fill="#60B7FF"/>
<path fill-rule="evenodd" clip-rule="evenodd" d="M15.0002 15.7982C16.3963 15.7982 17.5349 14.6596 17.5349 13.2635C17.5349 11.8673 16.3963 10.7288 15.0002 10.7288C13.604 10.7288 12.4655 11.8673 12.4655 13.2635C12.4655 14.6596 13.604 15.7982 15.0002 15.7982Z" fill="#F6DCCD"/>
<path fill-rule="evenodd" clip-rule="evenodd" d="M15.0002 10.7288C16.3999 10.7288 17.535 11.8638 17.535 13.2635C17.535 14.6638 16.3999 15.7982 15.0002 15.7982C14.8803 15.7982 14.762 15.79 14.6467 15.7741C15.8794 15.6018 16.8286 14.5438 16.8286 13.2635C16.8286 11.9838 15.8794 10.9252 14.6467 10.7535C14.762 10.7376 14.8803 10.7288 15.0002 10.7288Z" fill="#F1CBBC"/>
<path fill-rule="evenodd" clip-rule="evenodd" d="M5.23642 3.72034C5.32136 3.45898 5.56489 3.28198 5.83972 3.28198C6.11454 3.28198 6.35807 3.45898 6.44301 3.72034L7.17866 5.98451C7.2636 6.24586 7.50713 6.42281 7.78195 6.42281H10.1627C10.4375 6.42281 10.6811 6.59975 10.766 6.86116C10.8509 7.12251 10.7578 7.40881 10.5355 7.57034L8.60948 8.96969C8.38719 9.13122 8.29413 9.41751 8.37907 9.67886L9.11472 11.9431C9.19966 12.2045 9.1066 12.4907 8.88431 12.6523C8.66201 12.8138 8.36095 12.8138 8.1386 12.6523L6.21254 11.2529C5.99025 11.0914 5.68919 11.0914 5.46689 11.2529L3.54084 12.6523C3.31848 12.8138 3.01748 12.8138 2.79513 12.6523C2.57284 12.4907 2.47978 12.2045 2.56472 11.9431L3.30036 9.67886C3.38531 9.41751 3.29225 9.13122 3.06995 8.96969L1.14389 7.57034C0.9216 7.40881 0.828542 7.12251 0.913483 6.86116C0.998365 6.59975 1.24195 6.42281 1.51678 6.42281H3.89748C4.17231 6.42281 4.41584 6.24586 4.50078 5.98451L5.23642 3.72034Z" fill="#FFE177"/>
<path fill-rule="evenodd" clip-rule="evenodd" d="M5.6584 3.30839C5.71622 3.29116 5.77716 3.28198 5.83969 3.28198C6.11452 3.28198 6.35805 3.45898 6.44299 3.72034L7.17863 5.98451C7.26358 6.24587 7.5071 6.42281 7.78193 6.42281H7.41934C7.14452 6.42281 6.90099 6.24587 6.81605 5.98451L6.0804 3.72034C6.01481 3.51845 5.85457 3.36692 5.6584 3.30839ZM9.80005 6.42281H10.1626C10.4375 6.42281 10.681 6.59975 10.7659 6.86116C10.8509 7.12251 10.7578 7.40881 10.5355 7.57034L8.60946 8.96969C8.38716 9.13122 8.2941 9.41751 8.37905 9.67887L9.11469 11.9431C9.19963 12.2045 9.10658 12.4907 8.88428 12.6523C8.72122 12.7707 8.51581 12.8023 8.33016 12.747C8.39758 12.7269 8.46246 12.6953 8.52169 12.6523C8.74405 12.4907 8.83705 12.2045 8.7521 11.9431L8.01646 9.67887C7.93152 9.41751 8.02458 9.13122 8.24687 8.96969L10.1729 7.57034C10.3952 7.40881 10.4883 7.12251 10.4033 6.86116C10.3185 6.59975 10.0749 6.42281 9.80005 6.42281ZM5.6584 11.1582C5.59093 11.1783 5.5261 11.2099 5.46687 11.2529L3.54081 12.6523C3.37775 12.7707 3.17228 12.8023 2.98663 12.747C3.0541 12.7269 3.11899 12.6953 3.17822 12.6523L5.10428 11.2529C5.26734 11.1345 5.47275 11.1029 5.6584 11.1582Z" fill="#FFD064"/>
<path fill-rule="evenodd" clip-rule="evenodd" d="M26.221 12.969H24.0854V13.9517C24.0854 14.3076 24.3766 14.5995 24.7333 14.5995H25.574C25.9299 14.5995 26.221 14.3076 26.221 13.9517V12.969Z" fill="#B1B1B5"/>
<path fill-rule="evenodd" clip-rule="evenodd" d="M23.4064 11.7068L23.4213 12.656C23.4267 13.0119 23.7124 13.3038 24.0691 13.3038H26.2383C26.5942 13.3038 26.8908 13.0119 26.8853 12.656L26.8713 11.7068C25.7403 11.7427 24.5453 11.7068 23.4064 11.7068Z" fill="#D1D1D6"/>
<path fill-rule="evenodd" clip-rule="evenodd" d="M27.5121 10.7124C27.7033 7.44972 29.1176 7.58166 29.1176 5.36807C29.1176 3.16695 27.3333 1.38184 25.1314 1.38184C22.9303 1.38184 21.146 3.16695 21.146 5.36807C21.146 7.58166 22.5595 7.44972 22.7515 10.7124C22.8374 11.3571 23.2051 11.5023 23.4181 11.5023C26.5902 11.5023 27.1522 11.8161 27.5121 10.7124Z" fill="#FFE177"/>
<path fill-rule="evenodd" clip-rule="evenodd" d="M27.5121 10.7124C27.7033 7.44972 29.1176 7.58166 29.1176 5.36807C29.1176 3.16695 27.3333 1.38184 25.1314 1.38184C25.0573 1.38184 24.9839 1.38419 24.9105 1.38807C27.0086 1.5036 28.6751 3.24107 28.6751 5.36807C28.6751 7.58166 27.2607 7.44972 27.0687 10.7124C26.8556 11.3672 26.5707 11.5234 25.7106 11.5413C26.9235 11.5593 27.2654 11.4687 27.5121 10.7124Z" fill="#FFD064"/>
<path fill-rule="evenodd" clip-rule="evenodd" d="M25.7949 13.3038H26.2382C26.5942 13.3038 26.8907 13.0119 26.8853 12.656L26.8712 11.7068C26.7244 11.7115 26.577 11.7146 26.4286 11.7177L26.4427 12.656C26.4482 13.0119 26.1516 13.3038 25.7949 13.3038Z" fill="#B1B1B5"/>
<path fill-rule="evenodd" clip-rule="evenodd" d="M22.7515 10.7124V11.3602C22.7515 11.7169 23.0435 12.008 23.3994 12.008H26.8642C27.2201 12.008 27.5121 11.7169 27.5121 11.3602V10.7124H22.7515Z" fill="#ECEFF1"/>
<path fill-rule="evenodd" clip-rule="evenodd" d="M26.4209 12.008H26.8643C27.2201 12.008 27.5121 11.7169 27.5121 11.3602V10.7124H27.0687V11.3602C27.0687 11.7169 26.7776 12.008 26.4209 12.008Z" fill="#D1D1D6"/>
<path fill-rule="evenodd" clip-rule="evenodd" d="M16.1143 19.3518C16.6088 19.4695 17.0808 19.6652 17.5131 19.9316L18.4221 19.5283L19.4931 20.5993L19.0898 21.5083C19.3562 21.9406 19.5519 22.4126 19.6696 22.9071L20.5971 23.2641V24.7793L19.6696 25.1363C19.5519 25.6301 19.3562 26.1021 19.0898 26.5345L19.4931 27.4435L18.4221 28.5151L17.5131 28.1111C17.0808 28.3776 16.6088 28.5739 16.1143 28.6916L15.7573 29.6184H14.2421L13.8851 28.691C13.3913 28.5733 12.9192 28.3776 12.4869 28.1111L11.578 28.5151L10.5063 27.4435L10.9102 26.5351C10.6438 26.1021 10.4475 25.6301 10.3298 25.1363L9.40295 24.7793V23.2641L10.3298 22.9071C10.4475 22.4126 10.6438 21.9406 10.9102 21.5083L10.5063 20.5993L11.578 19.5283L12.4862 19.9316C12.9192 19.6652 13.3913 19.4695 13.8851 19.3518L14.2421 18.4243H15.7573L16.1143 19.3518Z" fill="#FFE177"/>
<path fill-rule="evenodd" clip-rule="evenodd" d="M18.1167 19.6638L18.4221 19.5283L19.4931 20.5993L19.0899 21.5083C19.3563 21.9406 19.5519 22.4126 19.6696 22.9071L20.5971 23.2641V24.7793L19.6696 25.1363C19.5519 25.6301 19.3563 26.1021 19.0899 26.5345L19.4931 27.4435L18.4221 28.5151L18.1167 28.3795L19.0528 27.4435L18.6489 26.5345C18.9153 26.1021 19.111 25.6301 19.2287 25.1363L20.1561 24.7793V23.2641L19.2287 22.9071C19.111 22.4126 18.9153 21.9406 18.6489 21.5083L19.0528 20.5993L18.1167 19.6638ZM11.4424 19.6638L11.578 19.5283L12.4863 19.9316C12.4222 19.9673 12.3587 20.0043 12.2966 20.0433L11.4424 19.6638ZM16.1143 19.3518C16.6088 19.4695 17.0808 19.6652 17.5131 19.9316L17.2626 20.0433C16.8303 19.7769 16.1679 19.4695 15.6734 19.3518L15.3164 18.4243H15.7573L16.1143 19.3518ZM12.4869 28.1111L11.578 28.5151L11.4424 28.3795L12.2966 28.0001C12.3587 28.0384 12.4221 28.0755 12.4869 28.1111ZM17.5131 28.1111C17.0808 28.3776 16.6088 28.5739 16.1143 28.6916L15.7573 29.6184H15.3164L15.6734 28.6916C16.1679 28.5739 16.8303 28.2665 17.2633 28.0001L17.5131 28.1111Z" fill="#FFD064"/>
<path fill-rule="evenodd" clip-rule="evenodd" d="M14.9998 21.3801C16.4586 21.3801 17.6412 22.5627 17.6412 24.0216C17.6412 25.4799 16.4586 26.6625 14.9998 26.6625C13.5414 26.6625 12.3588 25.4799 12.3588 24.0216C12.3588 22.5627 13.5414 21.3801 14.9998 21.3801Z" fill="#ECEFF1"/>
<path fill-rule="evenodd" clip-rule="evenodd" d="M14.9998 21.3801C15.0598 21.3801 15.1194 21.3823 15.1789 21.3865C13.8038 21.4783 12.7162 22.6228 12.7162 24.0216C12.7162 25.4198 13.8038 26.5643 15.1789 26.6566C15.1194 26.6604 15.0598 26.6625 14.9998 26.6625C13.5414 26.6625 12.3588 25.4799 12.3588 24.0216C12.3588 22.5627 13.5414 21.3801 14.9998 21.3801Z" fill="#D1D1D6"/>
<path fill-rule="evenodd" clip-rule="evenodd" d="M2.54729 13.0529C2.53765 13.0463 2.528 13.0396 2.51853 13.0327C2.13123 12.7513 1.96923 12.2526 2.11712 11.7973L2.85282 9.53316C2.87471 9.46569 2.85071 9.39181 2.79335 9.3501L0.867294 7.95075C0.479999 7.6694 0.317999 7.17063 0.465882 6.7154C0.613823 6.26016 1.03806 5.95192 1.51676 5.95192H3.89747C3.96841 5.95192 4.03123 5.90622 4.05318 5.83881L4.78888 3.57457C4.93676 3.11934 5.361 2.8111 5.8397 2.8111C6.31841 2.8111 6.74265 3.11934 6.89053 3.57457L7.45182 5.3021C9.56194 3.73716 12.1736 2.8111 15 2.8111C17.0986 2.8111 19.0788 3.32175 20.8233 4.22528C21.3281 2.31787 23.0658 0.911865 25.1318 0.911865C27.593 0.911865 29.5882 2.9071 29.5882 5.36834C29.5882 6.36151 29.3356 6.93404 29.0172 7.49734C28.6165 8.20616 28.0898 8.89681 27.9819 10.7388L27.9814 11.3591C27.9814 11.8067 27.7156 12.1943 27.3348 12.3728V12.5136C27.5663 13.4715 27.689 14.4716 27.689 15.5001C27.689 20.766 24.4744 25.287 19.9021 27.206L19.9228 27.2526C20.0015 27.4305 19.9628 27.6384 19.8252 27.7759L18.7548 28.8465C18.6172 28.984 18.4092 29.0227 18.2314 28.944L17.5426 28.6389C17.2022 28.827 16.8414 28.9762 16.4675 29.0842L16.1971 29.7867C16.1272 29.9685 15.9526 30.0883 15.7579 30.0883H14.2436C14.0489 30.0883 13.8744 29.9685 13.8045 29.7867C13.8045 29.7867 13.5341 29.0843 13.5341 29.0843C13.1595 28.976 12.7992 28.8262 12.4582 28.6385L11.7686 28.944C11.5908 29.0227 11.3828 28.984 11.2453 28.8465L10.1748 27.7759C10.0371 27.6382 9.99841 27.4299 10.0775 27.252C10.0775 27.252 10.0851 27.2349 10.098 27.206C5.5257 25.287 2.311 20.766 2.311 15.5001C2.311 14.663 2.39229 13.8449 2.54729 13.0529ZM8.15794 5.95192H10.1626C10.6414 5.95192 11.0656 6.26016 11.2135 6.7154C11.3614 7.17063 11.1994 7.6694 10.8121 7.95075L8.88606 9.3501C8.8287 9.39181 8.80465 9.46569 8.82659 9.53316L9.56229 11.7973C9.71018 12.2526 9.54817 12.7513 9.16088 13.0327C8.77365 13.314 8.24923 13.314 7.862 13.0327L5.93594 11.6333C5.87853 11.5916 5.80082 11.5916 5.74347 11.6333L3.81741 13.0327C3.71241 13.1089 3.59735 13.1646 3.47771 13.1995C3.32976 13.9435 3.25218 14.7128 3.25218 15.5001C3.25218 20.2803 6.11347 24.3976 10.2153 26.2312C10.1044 25.9913 10.0116 25.7432 9.93765 25.4889L9.23441 25.2183C9.05276 25.1483 8.93288 24.9737 8.93288 24.7791V23.2648C8.93288 23.0702 9.05276 22.8956 9.23441 22.8256C9.23441 22.8256 9.93747 22.555 9.93747 22.5551C10.0462 22.1805 10.1956 21.8202 10.3838 21.4792L10.0775 20.7904C10.0472 20.7222 10.0342 20.6495 10.0374 20.5781C9.95365 20.5539 9.87741 20.5066 9.81794 20.4405C9.7287 20.3412 9.68588 20.2085 9.70012 20.0758C9.92106 18.0183 11.3116 16.3109 13.1934 15.6327C12.512 15.0957 12.0732 14.2632 12.0732 13.3317C12.0732 11.7193 13.3876 10.4036 15 10.4036C16.6138 10.4036 17.9281 11.7194 17.9281 13.3317C17.9281 14.2632 17.4894 15.0958 16.8076 15.6327C18.6899 16.311 20.0801 18.0186 20.2999 20.076C20.3141 20.2087 20.2712 20.3413 20.182 20.4406C20.1226 20.5067 20.0464 20.5539 19.9626 20.5781C19.9658 20.6493 19.9529 20.7217 19.9228 20.7898C19.9228 20.7898 19.6175 21.4789 19.6175 21.4788C19.8058 21.82 19.9552 22.1806 20.0632 22.5553L20.7656 22.8256C20.9473 22.8956 21.0672 23.0702 21.0672 23.2648V24.7791C21.0672 24.9737 20.9473 25.1483 20.7656 25.2183L20.0629 25.4887C19.9892 25.7429 19.8963 25.991 19.7853 26.2309C23.8868 24.3972 26.7478 20.2802 26.7478 15.5001C26.7478 15.0186 26.7188 14.5437 26.6624 14.0773C26.5988 14.6322 26.1234 15.0689 25.5526 15.0689H24.7111C24.0976 15.0689 23.5926 14.5639 23.5926 13.9505V13.6763C23.2021 13.5015 22.9288 13.1089 22.9288 12.6548V12.3733C22.5468 12.195 22.2809 11.8069 22.2809 11.3591V10.7252C22.1713 8.89339 21.6461 8.20445 21.2464 7.49734C20.928 6.93404 20.6754 6.36151 20.6754 5.36834C20.6754 5.31698 20.6762 5.26587 20.6779 5.21498C18.9946 4.28292 17.0588 3.75228 15 3.75228C12.4482 3.75228 10.0853 4.56769 8.15794 5.95192ZM27.0404 11.1819H23.2221V11.3591C23.2221 11.4567 23.3018 11.5363 23.3994 11.5363H26.8642C26.9612 11.5363 27.0402 11.4565 27.0402 11.3589L27.0404 11.1819ZM26.3936 12.4775H23.8699V12.6548C23.8699 12.7524 23.9496 12.832 24.0472 12.832H26.2164C26.3136 12.832 26.3936 12.7524 26.3936 12.6548V12.4775ZM25.7285 13.7732H24.5338V13.9505C24.5338 14.0477 24.6138 14.1277 24.7111 14.1277H25.5526C25.6495 14.1277 25.7285 14.0474 25.7285 13.9505V13.7732ZM10.7858 19.6554L11.2453 19.196C11.383 19.0583 11.5913 19.0196 11.7692 19.0987C11.7692 19.0987 12.4581 19.405 12.458 19.405C12.799 19.2169 13.1592 19.0676 13.5328 18.9596L13.8046 18.2552C13.8746 18.0737 14.0491 17.954 14.2436 17.954H15.7579C15.9527 17.954 16.1274 18.074 16.1972 18.2559L16.4676 18.9597C16.8412 19.0677 17.2012 19.2169 17.542 19.405L18.2308 19.0987C18.4088 19.0196 18.6171 19.0583 18.7548 19.196L19.2142 19.6554H19.2765C18.8268 17.7098 17.0831 16.2597 15 16.2597C12.9181 16.2597 11.1746 17.7099 10.7239 19.6554H10.7858ZM15 15.3186C16.0951 15.3186 16.9869 14.4257 16.9869 13.3317C16.9869 12.2376 16.0951 11.3448 15 11.3448C13.9061 11.3448 13.0144 12.2377 13.0144 13.3317C13.0144 14.4256 13.9061 15.3186 15 15.3186ZM5.684 3.86539L4.94829 6.12963C4.80035 6.58487 4.37612 6.8931 3.89747 6.8931H1.51676C1.44582 6.8931 1.38294 6.93875 1.361 7.00622C1.33912 7.07369 1.36312 7.14763 1.42047 7.18928L3.34653 8.58863C3.73382 8.87004 3.89582 9.36875 3.74794 9.82398L3.01223 12.0882C2.99029 12.1556 3.01435 12.2296 3.07171 12.2713C3.12912 12.3129 3.20682 12.3129 3.26418 12.2713L5.19023 10.8719C5.57753 10.5905 6.10188 10.5905 6.48918 10.8719L8.41518 12.2713C8.47259 12.3129 8.55029 12.3129 8.6077 12.2713C8.66506 12.2296 8.68906 12.1556 8.66717 12.0882L7.93147 9.82398C7.78359 9.36875 7.94559 8.87004 8.33288 8.58863L10.2589 7.18928C10.3163 7.14763 10.3403 7.07369 10.3184 7.00622C10.2965 6.93875 10.2336 6.8931 10.1626 6.8931H7.78194C7.30329 6.8931 6.87906 6.58487 6.73112 6.12963L5.99541 3.86539C5.97353 3.79798 5.91065 3.75228 5.8397 3.75228C5.76876 3.75228 5.70588 3.79798 5.684 3.86539ZM26.2903 10.2407H27.0771C27.2208 8.79428 27.6119 8.04469 27.9794 7.41063C28.3183 6.82569 28.6471 6.3621 28.6471 5.36834C28.6471 3.42692 27.0732 1.85304 25.1318 1.85304C23.1904 1.85304 21.6165 3.42692 21.6165 5.36834C21.6165 6.3621 21.9452 6.82569 22.2842 7.41063C22.6518 8.04469 23.0428 8.79428 23.1866 10.2407H23.9733V6.79398H23.5169C22.7492 6.79398 22.1206 6.16534 22.1206 5.39769C22.1206 4.62822 22.7494 4.0001 23.5169 4.0001C24.2862 4.0001 24.9145 4.6284 24.9145 5.39769V5.85281H25.3491V5.39769C25.3491 4.6284 25.9774 4.0001 26.7467 4.0001C27.5142 4.0001 28.143 4.62822 28.143 5.39769C28.143 6.16534 27.5144 6.79398 26.7467 6.79398H26.2903V10.2407ZM24.9145 10.2407H25.3491V6.79398H24.9145V10.2407ZM23.9733 5.85281V5.39769C23.9733 5.14645 23.7681 4.94128 23.5169 4.94128C23.2665 4.94128 23.0618 5.14663 23.0618 5.39769C23.0618 5.64787 23.2667 5.85281 23.5169 5.85281H23.9733ZM26.2903 5.85281H26.7467C26.9969 5.85281 27.2018 5.64787 27.2018 5.39769C27.2018 5.14663 26.9971 4.94128 26.7467 4.94128C26.4955 4.94128 26.2903 5.14645 26.2903 5.39769V5.85281ZM15.6755 19.5222L15.4346 18.8952H14.5665L14.3243 19.5227C14.2685 19.6675 14.1449 19.7753 13.9941 19.8112C13.5488 19.917 13.1241 20.0929 12.7338 20.3335C12.6015 20.4149 12.4376 20.4259 12.2957 20.3628L11.6822 20.09L11.0689 20.7034L11.3416 21.3169C11.4048 21.4588 11.3938 21.6227 11.3123 21.755C11.0715 22.1456 10.8955 22.5707 10.7882 23.0178C10.7521 23.1684 10.6442 23.2916 10.4996 23.3472L9.87406 23.5879V24.456L10.4996 24.6967C10.6441 24.7523 10.7519 24.8753 10.7882 25.0258C10.8954 25.4713 11.0712 25.8977 11.3119 26.2868C11.3937 26.4191 11.4048 26.5833 11.3416 26.7255L11.0689 27.339L11.6826 27.9527L12.2963 27.6808C12.4377 27.6182 12.6009 27.629 12.7328 27.7099C13.1234 27.9492 13.5483 28.1268 13.9953 28.2327C14.1465 28.2685 14.2702 28.3766 14.326 28.5216L14.5668 29.1472H15.4348L15.6756 28.5216C15.7313 28.3767 15.8549 28.2686 16.0059 28.2327C16.451 28.127 16.8769 27.9512 17.2656 27.7109C17.3978 27.6292 17.5617 27.6179 17.7037 27.6808L18.3175 27.9527L18.9315 27.3386L18.6596 26.7249C18.597 26.5835 18.6079 26.4203 18.6886 26.2885C18.928 25.8978 19.1056 25.4728 19.2116 25.0271C19.2475 24.8761 19.3555 24.7525 19.5004 24.6967L20.126 24.456V23.5879L19.5004 23.3472C19.3554 23.2914 19.2473 23.1676 19.2115 23.0165C19.1056 22.5699 18.9298 22.1452 18.6893 21.755C18.6079 21.6229 18.5968 21.4593 18.6596 21.3175L18.9315 20.7037L18.3178 20.09L17.7043 20.3628C17.5624 20.4259 17.3985 20.4149 17.2662 20.3335C16.8759 20.0929 16.4512 19.917 16.0059 19.8112C15.8548 19.7753 15.7312 19.6671 15.6755 19.5222ZM15 20.9094C16.7194 20.9094 18.1134 22.3019 18.1134 24.0212C18.1134 25.7405 16.7192 27.1345 15 27.1345C13.2807 27.1345 11.8882 25.7405 11.8882 24.0212C11.8882 22.3018 13.2806 20.9094 15 20.9094ZM15 21.8506C13.8006 21.8506 12.8294 22.8219 12.8294 24.0212C12.8294 25.2206 13.8006 26.1933 15 26.1933C16.1995 26.1933 17.1722 25.2207 17.1722 24.0212C17.1722 22.8217 16.1995 21.8506 15 21.8506Z" fill="black"/>
</g>
<defs>
<clipPath id="clip0_302_1211">
<rect width="30" height="30" fill="white" transform="translate(0 0.5)"/>
</clipPath>
</defs>
</svg>
