<svg width="70" height="70" viewBox="0 0 70 70" fill="none" xmlns="http://www.w3.org/2000/svg">
<circle cx="35" cy="35" r="34.5" fill="#CEFFD5" stroke="#EBEBEB"/>
<g clip-path="url(#clip0_473_74)">
<path d="M22.553 25.2494C23.5821 25.2494 24.5881 24.9442 25.4437 24.3725C26.2994 23.8008 26.9663 22.9882 27.3601 22.0374C27.7539 21.0867 27.8569 20.0405 27.6562 19.0312C27.4554 18.0219 26.9598 17.0948 26.2322 16.3671C25.5045 15.6394 24.5774 15.1439 23.5681 14.9431C22.5588 14.7424 21.5126 14.8454 20.5619 15.2392C19.6111 15.633 18.7985 16.2999 18.2268 17.1556C17.655 18.0112 17.3499 19.0172 17.3499 20.0463C17.3514 21.4258 17.9 22.7484 18.8755 23.7238C19.8509 24.6993 21.1735 25.2479 22.553 25.2494ZM22.553 16.0748C23.3386 16.0748 24.1065 16.3077 24.7597 16.7442C25.4128 17.1806 25.9219 17.8009 26.2225 18.5267C26.5232 19.2525 26.6018 20.0511 26.4486 20.8215C26.2953 21.592 25.917 22.2997 25.3615 22.8552C24.806 23.4107 24.0983 23.7889 23.3278 23.9422C22.5574 24.0954 21.7587 24.0168 21.033 23.7161C20.3072 23.4155 19.6869 22.9064 19.2505 22.2532C18.8141 21.6 18.5811 20.8321 18.5811 20.0465C18.5824 18.9935 19.0012 17.984 19.7458 17.2394C20.4904 16.4948 21.5 16.076 22.553 16.0748ZM31.1794 38.4232V28.8449C31.1782 28.1001 30.8817 27.3861 30.3548 26.8596C29.8278 26.3332 29.1136 26.0372 28.3687 26.0367H16.7373C15.9924 26.0372 15.2782 26.3332 14.7513 26.8596C14.2243 27.3861 13.9278 28.1001 13.9266 28.8449V38.4232C13.9278 39.1681 14.2243 39.8821 14.7513 40.4085C15.2782 40.935 15.9924 41.2309 16.7373 41.2314H17.9333V51.7739C17.9338 52.4051 18.1846 53.0103 18.6307 53.4568C19.0768 53.9034 19.6818 54.1547 20.3129 54.1558H24.7931C25.4243 54.1547 26.0293 53.9034 26.4754 53.4568C26.9215 53.0103 27.1723 52.4051 27.1727 51.7739V41.2314H28.3687C29.1136 41.2309 29.8278 40.935 30.3548 40.4085C30.8817 39.8821 31.1782 39.1681 31.1794 38.4232ZM29.9489 38.4232C29.9481 38.8417 29.7813 39.2428 29.4852 39.5385C29.189 39.8342 28.7877 40.0003 28.3692 40.0004H27.1727V31.8076C27.1727 31.6445 27.1079 31.488 26.9925 31.3726C26.8771 31.2572 26.7207 31.1924 26.5575 31.1924C26.3943 31.1924 26.2378 31.2572 26.1224 31.3726C26.0071 31.488 25.9423 31.6445 25.9423 31.8076V51.7739C25.9423 52.0788 25.8213 52.3713 25.606 52.5871C25.3906 52.803 25.0984 52.9246 24.7935 52.9253H23.1684V42.2032C23.1684 42.04 23.1036 41.8835 22.9882 41.7681C22.8728 41.6527 22.7164 41.5879 22.5532 41.5879C22.39 41.5879 22.2335 41.6527 22.1182 41.7681C22.0028 41.8835 21.938 42.04 21.938 42.2032V52.9251H20.3129C20.008 52.9244 19.7159 52.8028 19.5005 52.5869C19.2852 52.3711 19.1642 52.0786 19.1642 51.7737V31.8076C19.1642 31.6444 19.0994 31.4879 18.984 31.3724C18.8685 31.257 18.712 31.1922 18.5488 31.1922C18.3855 31.1922 18.229 31.257 18.1136 31.3724C17.9981 31.4879 17.9333 31.6444 17.9333 31.8076V40.0004H16.7373C16.3188 40.0003 15.9175 39.8342 15.6213 39.5385C15.3251 39.2428 15.1584 38.8417 15.1575 38.4232V28.8449C15.1583 28.4264 15.3251 28.0253 15.6213 27.7296C15.9174 27.434 16.3188 27.2678 16.7373 27.2677H28.3687C28.7872 27.2678 29.1886 27.434 29.4848 27.7296C29.7809 28.0253 29.9477 28.4264 29.9485 28.8449L29.9489 38.4232ZM43.5323 48.1216C42.6308 47.2243 41.4323 46.6876 40.1625 46.6124C38.8928 46.5373 37.6393 46.929 36.6383 47.7137L30.9393 42.017C30.8238 41.9016 30.6673 41.8368 30.504 41.8369C30.3408 41.8369 30.1843 41.9018 30.0689 42.0173C29.9535 42.1327 29.8887 42.2893 29.8888 42.4525C29.8888 42.6157 29.9537 42.7723 30.0692 42.8876L35.7674 48.5836C35.1474 49.3714 34.7682 50.3216 34.6756 51.3199C34.583 52.3181 34.7808 53.3219 35.2453 54.2104C35.7098 55.0988 36.4211 55.8341 37.2937 56.3278C38.1663 56.8214 39.163 57.0524 40.1637 56.9929C41.1645 56.9334 42.1268 56.5859 42.9347 55.9924C43.7426 55.3988 44.3618 54.5844 44.7178 53.6472C45.0737 52.7099 45.1512 51.6898 44.941 50.7096C44.7307 49.7293 44.2417 48.8307 43.5327 48.1219L43.5323 48.1216ZM42.6622 54.6101C41.9152 55.3445 40.9083 55.7539 39.8607 55.7494C38.8132 55.7448 37.8099 55.3266 37.0693 54.5858C36.3286 53.8451 35.9106 52.8417 35.9062 51.7941C35.9019 50.7466 36.3115 49.7398 37.046 48.9929L37.0467 48.9922C37.7926 48.2514 38.8017 47.8364 39.8529 47.8383C40.9042 47.8403 41.9118 48.2588 42.6549 49.0024C43.398 49.7459 43.8161 50.7537 43.8175 51.805C43.8188 52.8562 43.4034 53.8651 42.6621 54.6106L42.6622 54.6101ZM31.5108 26.1563C31.5916 26.1564 31.6717 26.1406 31.7463 26.1096C31.821 26.0787 31.8888 26.0334 31.9459 25.9762L36.6382 21.2862C37.4261 21.906 38.3764 22.2849 39.3746 22.3774C40.3729 22.4699 41.3766 22.2719 42.265 21.8074C43.1533 21.3428 43.8886 20.6315 44.3822 19.7589C44.8758 18.8863 45.1067 17.8897 45.0473 16.8889C44.9878 15.8882 44.6404 14.9259 44.0469 14.118C43.4534 13.31 42.6391 12.6908 41.7019 12.3347C40.7647 11.9787 39.7447 11.901 38.7644 12.1111C37.7841 12.3212 36.8855 12.81 36.1765 13.5188C35.276 14.4192 34.737 15.6185 34.6617 16.8897C34.5863 18.1608 34.9798 19.4155 35.7675 20.4159L31.0759 25.1053C30.9897 25.1913 30.9309 25.301 30.9071 25.4204C30.8833 25.5399 30.8954 25.6637 30.942 25.7762C30.9886 25.8888 31.0676 25.9849 31.1689 26.0526C31.2702 26.1202 31.3893 26.1562 31.5111 26.1561L31.5108 26.1563ZM37.0464 14.3897C37.6962 13.7397 38.5513 13.3351 39.466 13.2449C40.3806 13.1547 41.2983 13.3845 42.0626 13.895C42.8269 14.4055 43.3905 15.1653 43.6573 16.0448C43.9242 16.9243 43.8779 17.8692 43.5262 18.7184C43.1746 19.5676 42.5393 20.2685 41.7288 20.7018C40.9182 21.1352 39.9825 21.274 39.081 21.0948C38.1796 20.9155 37.3681 20.4292 36.785 19.7187C36.2019 19.0082 35.8832 18.1176 35.8832 17.1984C35.8839 16.1452 36.3022 15.1351 37.0464 14.3897ZM37.876 17.9102C37.8169 17.8551 37.7692 17.7888 37.7357 17.7153C37.7022 17.6417 37.6835 17.5623 37.6806 17.4815C37.6778 17.4007 37.6909 17.3201 37.7192 17.2444C37.7476 17.1687 37.7905 17.0993 37.8456 17.0402C37.9008 16.981 37.967 16.9333 38.0406 16.8998C38.1141 16.8663 38.1936 16.8476 38.2743 16.8448C38.3551 16.8419 38.4357 16.8551 38.5114 16.8834C38.5871 16.9117 38.6565 16.9546 38.7157 17.0097L39.148 17.4131L40.9932 15.6916C41.1125 15.5803 41.2713 15.5209 41.4344 15.5266C41.5975 15.5323 41.7517 15.6026 41.8631 15.7219C41.9744 15.8413 42.0338 16 42.0281 16.1631C42.0224 16.3263 41.9522 16.4805 41.8328 16.5918L39.5678 18.7048C39.4539 18.8112 39.3039 18.8703 39.148 18.8703C38.9921 18.8703 38.8421 18.8112 38.7281 18.7048L37.876 17.9102ZM41.863 50.325C41.9182 50.3841 41.9612 50.4535 41.9896 50.5293C42.0179 50.605 42.0311 50.6856 42.0283 50.7664C42.0255 50.8472 42.0068 50.9266 41.9732 51.0002C41.9397 51.0738 41.892 51.14 41.8328 51.1952L39.5678 53.3081C39.4539 53.4145 39.3039 53.4737 39.148 53.4737C38.9921 53.4737 38.8421 53.4145 38.7281 53.3081L37.8756 52.5133C37.7562 52.4019 37.686 52.2477 37.6803 52.0846C37.6746 51.9214 37.734 51.7627 37.8453 51.6434C37.9567 51.524 38.1109 51.4537 38.274 51.4481C38.4371 51.4424 38.5958 51.5017 38.7152 51.6131L39.1476 52.0164L40.9927 50.295C41.0518 50.2397 41.1212 50.1967 41.1969 50.1683C41.2727 50.1399 41.3533 50.1268 41.4341 50.1296C41.5149 50.1323 41.5944 50.151 41.668 50.1846C41.7416 50.2181 41.8079 50.2659 41.863 50.325ZM53.5494 30.0194C52.5731 29.0453 51.2503 28.4983 49.8712 28.4983C48.4921 28.4983 47.1693 29.0453 46.193 30.0194C45.365 30.8422 44.8407 31.9217 44.7061 33.0812H32.8614C32.6981 33.0812 32.5416 33.146 32.4261 33.2614C32.3107 33.3769 32.2459 33.5334 32.2459 33.6967C32.2459 33.8599 32.3107 34.0165 32.4261 34.1319C32.5416 34.2473 32.6981 34.3122 32.8614 34.3122H44.7064C44.8043 35.1357 45.0978 35.924 45.5623 36.6111C46.0268 37.2982 46.6489 37.8643 47.3767 38.2621C48.1045 38.6599 48.9168 38.8779 49.746 38.8979C50.5751 38.918 51.397 38.7394 52.1432 38.3772C52.8893 38.015 53.538 37.4797 54.0352 36.8158C54.5323 36.1519 54.8635 35.3788 55.0011 34.5609C55.1387 33.743 55.0788 32.904 54.8262 32.114C54.5737 31.324 54.1359 30.6058 53.5494 30.0194ZM52.6793 36.5051C52.1244 37.0601 51.4175 37.4382 50.6478 37.5917C49.8781 37.7452 49.0803 37.6671 48.3549 37.3675C47.6296 37.0678 47.0093 36.56 46.5724 35.908C46.1355 35.2561 45.9015 34.4893 45.9001 33.7045C45.9001 33.7018 45.9001 33.6991 45.9001 33.6964C45.9001 33.6937 45.9001 33.6911 45.9001 33.6884C45.8996 33.1683 46.0021 32.6532 46.2017 32.1729C46.4013 31.6927 46.694 31.2566 47.063 30.89C47.4317 30.5213 47.8694 30.2287 48.3512 30.0292C48.833 29.8296 49.3493 29.7268 49.8708 29.7268C50.3923 29.7267 50.9086 29.8294 51.3904 30.0289C51.8722 30.2284 52.31 30.5209 52.6788 30.8896C53.0475 31.2583 53.3401 31.696 53.5396 32.1778C53.7392 32.6596 53.842 33.1759 53.842 33.6974C53.8421 34.2189 53.7394 34.7353 53.5399 35.217C53.3404 35.6988 53.0479 36.1366 52.6792 36.5054L52.6793 36.5051ZM51.8795 32.22C51.9347 32.2791 51.9777 32.3485 52.006 32.4242C52.0344 32.4999 52.0475 32.5805 52.0447 32.6613C52.0419 32.7421 52.0232 32.8216 51.9897 32.8952C51.9561 32.9688 51.9084 33.035 51.8492 33.0901L49.5847 35.2031C49.4707 35.3094 49.3207 35.3686 49.1648 35.3686C49.009 35.3686 48.859 35.3094 48.745 35.2031L47.8925 34.4083C47.7731 34.297 47.7029 34.1428 47.6972 33.9797C47.6944 33.8989 47.7075 33.8184 47.7358 33.7426C47.7641 33.6669 47.807 33.5976 47.8622 33.5385C47.9173 33.4793 47.9835 33.4317 48.0571 33.3982C48.1306 33.3647 48.21 33.346 48.2908 33.3431C48.4539 33.3375 48.6127 33.3968 48.732 33.5081L49.1644 33.9114L51.0096 32.19C51.0687 32.1348 51.1381 32.0918 51.2138 32.0634C51.2895 32.035 51.3701 32.0218 51.4509 32.0246C51.5318 32.0274 51.6112 32.0461 51.6848 32.0796C51.7584 32.1131 51.8247 32.1608 51.8798 32.22H51.8795Z" fill="black"/>
</g>
<defs>
<clipPath id="clip0_473_74">
<path d="M12 12H57V57H12V12Z" fill="white"/>
</clipPath>
</defs>
</svg>
