<svg width="44" height="44" viewBox="0 0 44 44" fill="none" xmlns="http://www.w3.org/2000/svg">
<ellipse cx="21.6" cy="21.6653" rx="21.6" ry="21.6653" fill="#DEECFF"/>
<g clip-path="url(#clip0_1_1680)">
<path d="M38.5127 3.46866V34.4723C38.5127 35.407 37.7544 36.1653 36.8196 36.1653H13.4019C12.4671 36.1653 11.7088 35.407 11.7088 34.4723V3.46866C11.7088 2.53392 12.4671 1.77563 13.4019 1.77563H36.8196C37.7544 1.77563 38.5127 2.53392 38.5127 3.46866Z" fill="#9EAFC6"/>
<path d="M20.7314 25.1097C20.7314 25.2452 20.7162 25.3896 20.6782 25.541C22.48 26.2833 22.8815 27.2279 22.8815 27.9216V31.1068C22.8815 31.7997 22.48 32.7443 20.6782 33.4866C20.7162 33.6379 20.7314 33.7825 20.7314 33.9178V36.1653H13.4019C12.4671 36.1653 11.7088 35.407 11.7088 34.4723V13.9211C12.5637 13.82 13.4726 13.7667 14.4028 13.7667C16.5171 13.7667 18.5182 14.0397 20.0363 14.5356C22.3879 15.3046 22.8815 16.3823 22.8815 17.152V20.3372C22.8815 21.0232 22.4876 21.9557 20.7314 22.6942V25.1097Z" fill="#8590A8"/>
<path d="M35.2277 6.3223V11.0157C35.2277 11.2677 35.0234 11.472 34.7713 11.472H15.4485C15.1965 11.472 14.9922 11.2677 14.9922 11.0157V6.3223C14.9922 6.07025 15.1965 5.86597 15.4485 5.86597H34.7714C35.0234 5.86597 35.2277 6.07032 35.2277 6.3223Z" fill="#57D3D0"/>
<path d="M28.537 5.86597L22.9316 11.4721H19.5859L25.192 5.86597H28.537Z" fill="#8CE5E1"/>
<path d="M33.4928 5.86597L27.8868 11.4721H24.541L30.1472 5.86597H33.4928Z" fill="#8CE5E1"/>
<path d="M17.6133 17.3087H16.201C15.5992 17.3087 15.1113 16.8208 15.1113 16.219C15.1113 15.6172 15.5992 15.1294 16.201 15.1294H17.6133C18.2151 15.1294 18.7029 15.6172 18.7029 16.219C18.7028 16.8208 18.2151 17.3087 17.6133 17.3087Z" fill="#ED6294"/>
<path d="M24.1725 16.2188C24.1725 16.5199 24.05 16.7922 23.853 16.99C23.656 17.1869 23.3838 17.3086 23.0825 17.3086H21.6702C21.0686 17.3086 20.5803 16.8211 20.5803 16.2188C20.5803 15.9175 20.702 15.6453 20.8997 15.4483C21.0488 15.2992 21.2413 15.1935 21.4557 15.1509C21.5257 15.1372 21.5972 15.1296 21.6702 15.1296H23.0825C23.6842 15.1296 24.1725 15.6172 24.1725 16.2188Z" fill="#ED6294"/>
<path d="M22.8815 17.1519V17.3086H21.6699C21.0683 17.3086 20.58 16.8211 20.58 16.2187C20.58 15.9175 20.7017 15.6452 20.8995 15.4483C21.0485 15.2992 21.241 15.1935 21.4555 15.1509C22.6008 15.8164 22.8815 16.5716 22.8815 17.1519Z" fill="#DC4173"/>
<path d="M28.5527 17.3087H27.1404C26.5386 17.3087 26.0508 16.8208 26.0508 16.219C26.0508 15.6172 26.5386 15.1294 27.1404 15.1294H28.5527C29.1545 15.1294 29.6424 15.6172 29.6424 16.219C29.6424 16.8208 29.1545 17.3087 28.5527 17.3087Z" fill="#ED6294"/>
<path d="M34.0215 17.3087H32.6092C32.0074 17.3087 31.5195 16.8208 31.5195 16.219C31.5195 15.6172 32.0074 15.1294 32.6092 15.1294H34.0215C34.6233 15.1294 35.1111 15.6172 35.1111 16.219C35.1111 16.8208 34.6233 17.3087 34.0215 17.3087Z" fill="#ED6294"/>
<path d="M17.6133 22.8553H16.201C15.5992 22.8553 15.1113 22.3674 15.1113 21.7657C15.1113 21.1639 15.5992 20.676 16.201 20.676H17.6133C18.2151 20.676 18.7029 21.1639 18.7029 21.7657C18.7028 22.3674 18.2151 22.8553 17.6133 22.8553Z" fill="#697491"/>
<path d="M24.1722 21.7655C24.1722 22.0659 24.0497 22.3389 23.8527 22.536C23.6558 22.7338 23.3835 22.8554 23.0823 22.8554H21.6699C21.3999 22.8554 21.1512 22.7573 20.9611 22.593C20.7276 22.393 20.5801 22.0964 20.5801 21.7656C20.5801 21.4652 20.7017 21.1921 20.8995 20.9951C21.0965 20.7974 21.3696 20.6757 21.67 20.6757H23.0823C23.6839 20.6756 24.1722 21.1639 24.1722 21.7655Z" fill="#697491"/>
<path d="M20.5801 21.7656C20.5801 21.4652 20.7018 21.1921 20.8995 20.9951C21.0965 20.7974 21.3696 20.6757 21.67 20.6757H22.8489C22.7318 21.2765 22.2663 21.9899 20.9612 22.5931C20.7276 22.393 20.5801 22.0964 20.5801 21.7656Z" fill="#576384"/>
<path d="M28.5508 22.8552H27.1385C26.5367 22.8552 26.0488 22.3673 26.0488 21.7655C26.0488 21.1638 26.5367 20.6759 27.1385 20.6759H28.5508C29.1526 20.6759 29.6404 21.1638 29.6404 21.7655C29.6404 22.3673 29.1526 22.8552 28.5508 22.8552Z" fill="#697491"/>
<path d="M34.0215 22.8552H32.6092C32.0074 22.8552 31.5195 22.3673 31.5195 21.7655C31.5195 21.1638 32.0074 20.6759 32.6092 20.6759H34.0215C34.6233 20.6759 35.1111 21.1638 35.1111 21.7655C35.1111 22.3673 34.6233 22.8552 34.0215 22.8552Z" fill="#697491"/>
<path d="M17.6133 27.3121H16.201C15.5992 27.3121 15.1113 26.8242 15.1113 26.2224C15.1113 25.6207 15.5992 25.1328 16.201 25.1328H17.6133C18.2151 25.1328 18.7029 25.6207 18.7029 26.2224C18.7028 26.8242 18.2151 27.3121 17.6133 27.3121Z" fill="#697491"/>
<path d="M24.1725 26.2224C24.1725 26.5228 24.05 26.7959 23.853 26.9929C23.656 27.1906 23.3838 27.3123 23.0825 27.3123H21.6702C21.0686 27.3123 20.5803 26.824 20.5803 26.2224C20.5803 25.9851 20.6563 25.7645 20.7857 25.5859C20.8199 25.538 20.858 25.4931 20.8997 25.452C21.0967 25.2542 21.3698 25.1326 21.6702 25.1326H23.0825C23.6842 25.1326 24.1725 25.6208 24.1725 26.2224Z" fill="#697491"/>
<path d="M20.5801 26.2224C20.5801 25.9851 20.6561 25.7645 20.7855 25.5858C22.0237 26.1182 22.5682 26.7479 22.7736 27.3123H21.67C21.0683 27.3123 20.5801 26.824 20.5801 26.2224Z" fill="#576384"/>
<path d="M28.5508 27.3121H27.1385C26.5367 27.3121 26.0488 26.8242 26.0488 26.2224C26.0488 25.6207 26.5367 25.1328 27.1385 25.1328H28.5508C29.1526 25.1328 29.6404 25.6207 29.6404 26.2224C29.6404 26.8242 29.1526 27.3121 28.5508 27.3121Z" fill="#697491"/>
<path d="M34.0215 27.3121H32.6092C32.0074 27.3121 31.5195 26.8242 31.5195 26.2224C31.5195 25.6207 32.0074 25.1328 32.6092 25.1328H34.0215C34.6233 25.1328 35.1111 25.6207 35.1111 26.2224C35.1111 26.8242 34.6233 27.3121 34.0215 27.3121Z" fill="#697491"/>
<path d="M17.6133 31.769H16.201C15.5992 31.769 15.1113 31.2811 15.1113 30.6794C15.1113 30.0776 15.5992 29.5897 16.201 29.5897H17.6133C18.2151 29.5897 18.7029 30.0776 18.7029 30.6794C18.7028 31.2812 18.2151 31.769 17.6133 31.769Z" fill="#697491"/>
<path d="M24.1725 30.6792C24.1725 30.9797 24.05 31.2527 23.853 31.4497C23.656 31.6475 23.3838 31.7692 23.0825 31.7692H21.6702C21.0686 31.7692 20.5803 31.2809 20.5803 30.6793C20.5803 30.3789 20.702 30.1066 20.8997 29.9089C21.0967 29.7119 21.3698 29.5902 21.6702 29.5902H23.0825C23.6842 29.5901 24.1725 30.0776 24.1725 30.6792Z" fill="#697491"/>
<path d="M21.6699 29.5902H22.8815V31.1068C22.8815 31.3099 22.8473 31.5343 22.753 31.7692H21.6699C21.0683 31.7692 20.58 31.2809 20.58 30.6794C20.58 30.379 20.7017 30.1067 20.8995 29.9089C21.0965 29.712 21.3695 29.5902 21.6699 29.5902Z" fill="#576384"/>
<path d="M28.5527 31.7691H27.1404C26.5386 31.7691 26.0508 31.2812 26.0508 30.6795C26.0508 30.0777 26.5386 29.5898 27.1404 29.5898H28.5527C29.1545 29.5898 29.6424 30.0777 29.6424 30.6795C29.6424 31.2813 29.1545 31.7691 28.5527 31.7691Z" fill="#697491"/>
<path d="M34.0215 31.7691H32.6092C32.0074 31.7691 31.5195 31.2812 31.5195 30.6795C31.5195 30.0777 32.0074 29.5898 32.6092 29.5898H34.0215C34.6233 29.5898 35.1111 30.0777 35.1111 30.6795C35.1111 31.2813 34.6233 31.7691 34.0215 31.7691Z" fill="#697491"/>
<path d="M4.68555 33.9181V37.1032C4.68555 38.4686 8.07322 39.5756 12.2521 39.5756C16.431 39.5756 19.8187 38.4687 19.8187 37.1032V33.9181H4.68555Z" fill="#EFAE2E"/>
<path d="M19.8187 33.9178C19.8187 35.2837 16.4312 36.3903 12.2527 36.3903C8.07339 36.3903 4.68579 35.2837 4.68579 33.9178C4.68579 33.3223 5.33149 32.7754 6.40695 32.3487C7.79418 31.7973 9.89791 31.4459 12.2527 31.4459C16.3026 31.4459 19.6104 32.4856 19.8089 33.793C19.8157 33.8341 19.8187 33.8759 19.8187 33.9178Z" fill="#FFE28F"/>
<path d="M19.8081 33.7931C18.3205 34.2441 16.4122 34.4913 14.4021 34.4913C12.287 34.4913 10.2859 34.2183 8.76779 33.7224C7.53641 33.32 6.81467 32.8325 6.40625 32.3488C7.79348 31.7974 9.89721 31.446 12.252 31.446C16.3019 31.446 19.6096 32.4858 19.8081 33.7931Z" fill="#FFD243"/>
<path d="M6.83603 27.9213V31.1064C6.83603 32.4718 10.2237 33.5788 14.4026 33.5788C18.5815 33.5788 21.9692 32.4719 21.9692 31.1064V27.9213H6.83603Z" fill="#EFAE2E"/>
<path d="M21.9689 27.9215C21.9689 29.2867 18.5814 30.3933 14.4028 30.3933C10.2236 30.3933 6.83596 29.2867 6.83596 27.9215C6.83596 27.8796 6.83899 27.8379 6.84585 27.7967C7.04438 26.4886 10.352 25.4489 14.4028 25.4489C16.7575 25.4489 18.8605 25.8002 20.2477 26.3516C21.3231 26.7784 21.9689 27.3253 21.9689 27.9215Z" fill="#FFE28F"/>
<path d="M20.2477 26.3517C19.84 26.8355 19.1183 27.323 17.8862 27.7253C16.3681 28.2212 14.367 28.495 12.2527 28.495C10.2417 28.495 8.33349 28.2479 6.84578 27.7969C7.0443 26.4887 10.352 25.449 14.4028 25.449C16.7575 25.449 18.8604 25.8004 20.2477 26.3517Z" fill="#FFD243"/>
<path d="M4.68555 21.9244V25.1095C4.68555 26.475 8.07322 27.582 12.2521 27.582C16.431 27.582 19.8187 26.4751 19.8187 25.1095V21.9244H4.68555Z" fill="#EFAE2E"/>
<path d="M19.8187 21.9245C19.8187 22.4637 19.2917 22.9619 18.3965 23.368C17.0229 23.9909 14.783 24.3971 12.2527 24.3971C8.07339 24.3971 4.68579 23.2897 4.68579 21.9245C4.68579 21.421 5.1467 20.9525 5.93769 20.5624C7.29148 19.893 9.61426 19.4519 12.2527 19.4519C16.4312 19.4519 19.8187 20.5593 19.8187 21.9245Z" fill="#FFE28F"/>
<path d="M19.8187 21.9244C19.8187 22.4637 19.2916 22.9619 18.3965 23.368C17.191 23.5984 15.8228 23.7216 14.4027 23.7216C12.2876 23.7216 10.2873 23.4486 8.76848 22.9527C6.63891 22.2568 6.03271 21.3069 5.93769 20.5622C7.29148 19.8929 9.61426 19.4518 12.2527 19.4518C16.4312 19.4519 19.8187 20.5593 19.8187 21.9244Z" fill="#FFD243"/>
<path d="M6.83603 17.1519V20.3369C6.83603 21.7024 10.2237 22.8094 14.4026 22.8094C18.5815 22.8094 21.9692 21.7025 21.9692 20.3369V17.1519H6.83603Z" fill="#EFAE2E"/>
<path d="M14.4025 19.6243C18.5814 19.6243 21.9691 18.5174 21.9691 17.1519C21.9691 15.7864 18.5814 14.6794 14.4025 14.6794C10.2235 14.6794 6.83581 15.7864 6.83581 17.1519C6.83581 18.5174 10.2235 19.6243 14.4025 19.6243Z" fill="#FFE28F"/>
<path d="M9.29198 13.6082H7.36336C7.04834 13.6082 6.79297 13.3528 6.79297 13.0378C6.79297 12.7228 7.04834 12.4674 7.36336 12.4674H9.29198C9.607 12.4674 9.86237 12.7228 9.86237 13.0378C9.86237 13.3528 9.607 13.6082 9.29198 13.6082Z" fill="#9EAFC6"/>
<path d="M9.29198 11.8405H7.36336C7.04834 11.8405 6.79297 11.5851 6.79297 11.2701C6.79297 10.9551 7.04834 10.6997 7.36336 10.6997H9.29198C9.607 10.6997 9.86237 10.9551 9.86237 11.2701C9.86245 11.5851 9.607 11.8405 9.29198 11.8405Z" fill="#9EAFC6"/>
<path d="M9.29503 9.87944H9.28742C8.9724 9.87944 8.71703 9.62407 8.71703 9.30904C8.71703 8.99402 8.9724 8.73865 9.28742 8.73865C9.60245 8.73865 9.86166 8.99402 9.86166 9.30904C9.86166 9.62399 9.61005 9.87944 9.29503 9.87944Z" fill="#FFD243"/>
</g>
<defs>
<clipPath id="clip0_1_1680">
<rect width="37.8" height="37.8" fill="white" transform="translate(2.69922 1.77563)"/>
</clipPath>
</defs>
</svg>
