<svg width="60" height="60" viewBox="0 0 60 60" fill="none" xmlns="http://www.w3.org/2000/svg">
<circle cx="30" cy="30" r="30" fill="#B8EDFA"/>
<path d="M45.9551 31.5668C45.955 31.5666 45.955 31.5666 45.955 31.5664L39.9132 16.3961C39.785 16.0738 39.4196 15.9164 39.0973 16.0447C39.0971 16.0447 39.0968 16.0448 39.0966 16.045L14.5861 25.8048C14.4861 25.848 14.3994 25.917 14.3348 26.0046C14.131 26.1105 14.0022 26.3202 14 26.5498V42.8822C14 43.2291 14.2813 43.5104 14.6282 43.5104H41.0113C41.3582 43.5104 41.6394 43.2291 41.6394 42.8822V33.9622L45.6044 32.383C45.9267 32.2545 46.0837 31.889 45.9551 31.5668ZM40.3831 42.2541H15.2563V27.178H40.3831V42.2541ZM24.481 25.9248L34.9991 21.7337C35.9378 22.7204 37.2385 23.2812 38.6004 23.2865L39.6494 25.9248H24.481ZM41.6394 32.6129V26.5498C41.6394 26.2029 41.3582 25.9217 41.0113 25.9217H41.0012L39.6701 22.5786C39.6554 22.5507 39.6382 22.5241 39.6186 22.4994C39.5512 22.1969 39.2711 21.9904 38.9622 22.0157C37.695 22.1312 36.4554 21.5974 35.6687 20.5973C35.4729 20.3557 35.1289 20.2956 34.8628 20.4566C34.8329 20.4601 34.8033 20.4656 34.7742 20.4729L21.9331 25.5862C21.7778 25.6472 21.6535 25.768 21.5883 25.9217H17.6886L38.9785 17.4445L44.556 31.4496L41.6394 32.6129Z" fill="black"/>
<path d="M16.9602 38.0135C18.1798 38.374 19.1342 39.3272 19.4962 40.5463C19.5755 40.8124 19.8203 40.9947 20.0979 40.9948C20.1305 40.9928 20.1629 40.9879 20.1947 40.9804C20.2229 40.9884 20.2517 40.9943 20.2807 40.998H35.3568C35.3827 40.9946 35.4083 40.9893 35.4334 40.9822C35.7473 41.0586 36.0636 40.8661 36.14 40.5523C36.1402 40.5511 36.1405 40.55 36.1407 40.5488C36.5018 39.3284 37.4563 38.3739 38.6767 38.0129C38.9726 37.9224 39.1565 37.6275 39.1076 37.3219C39.116 37.2914 39.122 37.2603 39.1258 37.2289V32.2036C39.1221 32.1721 39.1158 32.141 39.107 32.1106C39.1562 31.8049 38.9722 31.5098 38.676 31.4196C37.4557 31.0587 36.5014 30.1038 36.1414 28.8831C36.0504 28.5851 35.7526 28.4007 35.4454 28.4522C35.4163 28.4441 35.3867 28.4382 35.3568 28.4346H20.2807C20.2491 28.4383 20.2178 28.4446 20.1871 28.4534C19.8816 28.4047 19.5868 28.5886 19.4962 28.8843C19.1349 30.1045 18.1804 31.0587 16.9602 31.4196C16.6643 31.5101 16.4804 31.805 16.5293 32.1106C16.5211 32.1412 16.5153 32.1722 16.5117 32.2036V37.2289C16.5153 37.2585 16.5212 37.2877 16.5293 37.3163C16.4778 37.6238 16.6621 37.922 16.9602 38.0135ZM17.7681 32.4586C19.0294 31.952 20.0292 30.9523 20.5358 29.6909H35.1011C35.608 30.9523 36.6079 31.952 37.8695 32.4586V36.9739C36.6085 37.4811 35.6089 38.4806 35.1018 39.7416H20.5358C20.0286 38.4806 19.029 37.4811 17.7681 36.9739V32.4586Z" fill="black"/>
<path d="M27.8197 38.4848C29.9013 38.4848 31.5887 36.7974 31.5887 34.7158C31.5887 32.6342 29.9013 30.9468 27.8197 30.9468C25.7381 30.9468 24.0507 32.6342 24.0507 34.7158C24.0527 36.7965 25.7389 38.4828 27.8197 38.4848ZM27.8197 32.2031C29.2074 32.2031 30.3323 33.3281 30.3323 34.7158C30.3323 36.1035 29.2074 37.2285 27.8197 37.2285C26.432 37.2285 25.307 36.1035 25.307 34.7158C25.307 33.3281 26.432 32.2031 27.8197 32.2031Z" fill="black"/>
<path d="M20.9091 35.6584C21.4294 35.6584 21.8513 35.2365 21.8513 34.7162C21.8513 34.1958 21.4294 33.7739 20.9091 33.7739C20.3887 33.7739 19.9668 34.1958 19.9668 34.7162C19.9668 35.2366 20.3887 35.6584 20.9091 35.6584ZM20.9091 34.4021C21.0825 34.4021 21.2231 34.5427 21.2231 34.7162C21.2231 34.8896 21.0825 35.0303 20.9091 35.0303C20.7356 35.0303 20.595 34.8896 20.595 34.7162C20.595 34.5427 20.7356 34.4021 20.9091 34.4021Z" fill="black"/>
<path d="M34.7296 35.6582C35.25 35.6582 35.6719 35.2363 35.6719 34.7159C35.6719 34.1956 35.25 33.7737 34.7296 33.7737C34.2092 33.7737 33.7874 34.1956 33.7874 34.7159C33.7874 35.2364 34.2092 35.6582 34.7296 35.6582ZM34.7296 34.4019C34.9031 34.4019 35.0437 34.5425 35.0437 34.7159C35.0437 34.8894 34.9031 35.03 34.7296 35.03C34.5562 35.03 34.4155 34.8894 34.4155 34.7159C34.4155 34.5425 34.5562 34.4019 34.7296 34.4019Z" fill="black"/>
</svg>
