<svg width="60" height="60" viewBox="0 0 60 60" fill="none" xmlns="http://www.w3.org/2000/svg">
<circle cx="30" cy="30" r="30" fill="#FFD4D2"/>
<path d="M32.6714 15C34.546 15 36.2707 15.7124 37.5829 16.8559C38.7639 17.9057 39.6262 19.3304 39.9449 20.9426C41.5946 21.2425 43.0381 22.0861 44.1066 23.2859C45.2689 24.5981 46 26.3415 46 28.2349C46 30.297 45.1564 32.1529 43.8067 33.5026C42.4757 34.8336 40.6011 35.6772 38.5577 35.6772C37.7891 35.6772 37.0392 35.5647 36.3456 35.3398C36.0082 35.2273 35.6895 35.1148 35.3708 34.9649C35.1084 36.0334 34.4523 37.0082 33.5149 37.7581C32.3339 38.6954 30.7217 39.2765 28.9408 39.2765C27.3474 39.2765 25.8664 38.8078 24.7229 38.0205C23.9356 37.4769 23.2982 36.7645 22.8858 35.9584C22.5858 36.2209 22.2484 36.4646 21.8735 36.652C21.1424 37.0269 20.2988 37.2332 19.4177 37.2332C17.918 37.2332 16.5682 36.6333 15.5934 35.6397C14.5999 34.6649 14 33.3152 14 31.8155C14 30.7094 14.3374 29.6784 14.8998 28.8161C15.3872 28.1037 16.0246 27.5038 16.7745 27.0914C16.7557 26.9977 16.737 26.9039 16.737 26.8102C16.6995 26.5103 16.6807 26.2103 16.6807 25.9104C16.6807 23.867 17.5056 22.0111 18.8553 20.6614C20.205 19.3117 22.0609 18.4868 24.1043 18.4868C24.5729 18.4868 25.0416 18.5243 25.5103 18.618C25.7352 18.6555 25.9789 18.7118 26.2039 18.7868C26.785 17.737 27.6286 16.8559 28.6409 16.1998C29.8032 15.4499 31.1904 15 32.6714 15ZM36.5893 17.9807C35.5395 17.0621 34.1711 16.4997 32.6714 16.4997C31.4716 16.4997 30.3656 16.8559 29.447 17.4558C28.6221 17.9807 27.6098 19.0305 27.2724 19.9678C27.1224 20.3615 26.6913 20.5489 26.2976 20.3989C25.9414 20.249 25.5852 20.1552 25.2291 20.0803C24.8729 20.024 24.4979 19.9865 24.1043 19.9865C22.4733 19.9865 20.9924 20.6426 19.9051 21.7299C18.8366 22.7985 18.1804 24.2794 18.1804 25.9104C18.1804 26.1728 18.1804 26.3978 18.2179 26.6415C18.2367 26.8664 18.2742 27.0726 18.3304 27.2789C18.4429 27.635 18.2742 28.0475 17.8992 28.1974C17.1306 28.5911 16.6432 28.9098 16.1558 29.6409C15.7434 30.2595 15.4997 31.0094 15.4997 31.8155C15.4997 32.9028 15.9309 33.8776 16.6432 34.5899C17.3556 35.3023 18.3304 35.7334 19.4177 35.7334C20.0551 35.7334 20.655 35.5835 21.1986 35.3023C21.7422 35.0211 22.2109 34.6274 22.5671 34.14C22.6796 33.9713 22.8483 33.8588 23.0545 33.8213C23.4669 33.7463 23.8606 34.0088 23.9356 34.4212C24.1043 35.4148 24.7604 36.2209 25.5852 36.7832C26.4663 37.4019 27.6473 37.7768 28.9408 37.7768C30.3656 37.7768 31.6591 37.3269 32.5776 36.577C33.3837 35.9397 34.0398 34.9274 34.0023 33.8588C33.9836 33.6714 34.0211 33.4839 34.1336 33.3152C34.3773 32.9777 34.8459 32.884 35.1834 33.1277C35.7458 33.4651 36.1394 33.7088 36.7768 33.9151C37.3392 34.0838 37.9391 34.1775 38.5577 34.1775C40.1886 34.1775 41.6883 33.5026 42.7569 32.4341C43.8254 31.3656 44.5003 29.8846 44.5003 28.2349C44.5003 26.7165 43.9192 25.3292 42.9818 24.2794C42.0445 23.2296 40.7323 22.5173 39.2701 22.3486C38.9139 22.3298 38.6139 22.0486 38.5577 21.6924C38.3702 20.2115 37.6579 18.918 36.5893 17.9807Z" fill="black"/>
<path d="M36.4956 36.9331C37.3392 36.9331 38.1078 37.2705 38.6702 37.8329C39.2326 38.3953 39.57 39.1639 39.57 40.0263C39.57 40.8698 39.2326 41.6384 38.6702 42.2008C38.1078 42.7632 37.3392 43.1007 36.4956 43.1007C35.6333 43.1007 34.8647 42.7632 34.3023 42.2008C33.7399 41.6384 33.4025 40.8698 33.4025 40.0263C33.4025 39.1639 33.7399 38.3953 34.3023 37.8329C34.8647 37.2705 35.6333 36.9331 36.4956 36.9331ZM37.6016 38.9015C37.3205 38.6015 36.9268 38.4328 36.4956 38.4328C36.0457 38.4328 35.652 38.6015 35.3708 38.9015C35.0709 39.1827 34.9022 39.5763 34.9022 40.0263C34.9022 40.4574 35.0709 40.8511 35.3708 41.1323C35.652 41.4322 36.0457 41.6009 36.4956 41.6009C36.9268 41.6009 37.3205 41.4322 37.6016 41.1323C37.9016 40.8511 38.0703 40.4574 38.0703 40.0263C38.0703 39.5763 37.9016 39.1827 37.6016 38.9015Z" fill="black"/>
<path d="M41.969 40.3638C42.7189 40.3638 43.3937 40.645 43.8811 41.1136C44.3685 41.5823 44.6872 42.2384 44.6872 42.9695C44.6872 43.6819 44.3685 44.338 43.8811 44.8254C43.3937 45.2753 42.7189 45.5565 41.969 45.5565C41.2379 45.5565 40.563 45.2753 40.0756 44.8254C39.5695 44.338 39.2695 43.6819 39.2695 42.9695C39.2695 42.2384 39.5695 41.5823 40.0756 41.1136C40.563 40.645 41.2379 40.3638 41.969 40.3638ZM42.8501 42.2009C42.6251 41.9947 42.3252 41.8635 41.969 41.8635C41.6316 41.8635 41.3129 41.9947 41.1067 42.2009C40.9005 42.3884 40.7692 42.6696 40.7692 42.9695C40.7692 43.2507 40.9005 43.5319 41.1067 43.7194C41.3129 43.9443 41.6316 44.0568 41.969 44.0568C42.3252 44.0568 42.6251 43.9443 42.8501 43.7194C43.0563 43.5319 43.1875 43.2507 43.1875 42.9695C43.1875 42.6696 43.0563 42.3884 42.8501 42.2009Z" fill="black"/>
</svg>
