<svg width="48" height="31" viewBox="0 0 48 31" fill="none" xmlns="http://www.w3.org/2000/svg">
<g clip-path="url(#clip0_1_2486)">
<path d="M24.5111 9.30005H8.17106L0 15.5L8.17106 21.7H24.5111V9.30005Z" fill="#FF9F00"/>
<path d="M39.8289 18.6H23.4889V31H39.8289L48 24.8L39.8289 18.6Z" fill="#FF7816"/>
<path d="M39.8289 0H23.4889V12.4H39.8289L48 6.2L39.8289 0Z" fill="#FF7816"/>
<path d="M22.6096 0H25.3475V31H22.6096V0Z" fill="#5A5A5A"/>
<path d="M24.4488 0H25.3475V31H24.4488V0Z" fill="#444444"/>
<path d="M24.744 25.8374C30.3865 25.8374 34.9606 21.2092 34.9606 15.4999C34.9606 9.79072 30.3865 5.16248 24.744 5.16248C19.1015 5.16248 14.5274 9.79072 14.5274 15.4999C14.5274 21.2092 19.1015 25.8374 24.744 25.8374Z" fill="#FED056"/>
<path d="M24.744 23.9236C29.3419 23.9236 33.0693 20.1522 33.0693 15.4999C33.0693 10.8476 29.3419 7.07617 24.744 7.07617C20.1461 7.07617 16.4187 10.8476 16.4187 15.4999C16.4187 20.1522 20.1461 23.9236 24.744 23.9236Z" fill="#FEB635"/>
<path d="M33.0693 15.5C33.0693 20.1438 29.3335 23.9237 24.744 23.9237C23.2478 23.9237 21.8467 23.5238 20.6334 22.8211C21.7507 23.3864 23.0119 23.7057 24.3447 23.7057C28.9342 23.7057 32.6699 19.9257 32.6699 15.2819C32.6699 12.152 30.9696 9.41468 28.4552 7.96491C31.1891 9.34648 33.0693 12.2005 33.0693 15.5ZM16.9865 15.8957C16.9865 18.6454 18.2958 21.0893 20.3148 22.6269C17.9761 21.1368 16.4197 18.4997 16.4197 15.5031C16.4197 10.8551 20.1555 7.07935 24.745 7.07935C26.6292 7.07935 28.3684 7.71691 29.7655 8.78331C28.4767 7.95561 26.9479 7.47098 25.3118 7.47098C20.7223 7.47098 16.9865 11.2509 16.9865 15.8947V15.8957Z" fill="#FC9924"/>
<path d="M27.6382 13.3961V14.0305C27.6382 14.0874 27.6178 14.1401 27.582 14.1762C27.5463 14.2124 27.4942 14.2289 27.4381 14.2289H26.4086C26.3126 14.8221 26.0532 15.3067 25.6182 15.6787C25.1831 16.0507 24.6204 16.276 23.926 16.3607C24.6082 17.0954 25.5467 18.2062 26.7395 19.6798C26.7957 19.7449 26.8039 19.8172 26.763 19.8895C26.7313 19.9619 26.667 20.0022 26.5873 20.0022H25.3945C25.3302 20.0022 25.2791 19.9784 25.2424 19.9298C23.9934 18.4119 22.9752 17.2328 22.1929 16.3927C22.1571 16.3566 22.1367 16.3121 22.1367 16.2553V15.4679C22.1367 15.4152 22.1571 15.3666 22.1929 15.3263C22.2327 15.286 22.2807 15.2695 22.3328 15.2695H23.0191C23.5583 15.2695 23.9934 15.1806 24.3242 15.0029C24.651 14.8252 24.8635 14.5668 24.9513 14.232H22.3369C22.2807 14.232 22.2327 14.2155 22.197 14.1793C22.1612 14.1432 22.1408 14.0987 22.1408 14.0336V13.3992C22.1408 13.3423 22.1612 13.2896 22.197 13.2535C22.2327 13.2173 22.2766 13.2008 22.3369 13.2008H24.8635C24.6316 12.7327 24.0812 12.5022 23.2233 12.5022H22.3338C22.2817 12.5022 22.2337 12.4816 22.1939 12.4454C22.1582 12.4051 22.1377 12.3565 22.1377 12.3038V11.4803C22.1377 11.4234 22.1582 11.3749 22.1939 11.3387C22.2297 11.3025 22.2736 11.2819 22.3338 11.2819H27.4299C27.4861 11.2819 27.5341 11.2984 27.5698 11.3387C27.6055 11.3749 27.626 11.4193 27.626 11.4803V12.1147C27.626 12.1716 27.6055 12.2201 27.5698 12.2563C27.5341 12.2925 27.4901 12.3131 27.4299 12.3131H26.0052C26.1972 12.5632 26.329 12.8618 26.3964 13.2059H27.4421C27.4983 13.2059 27.5504 13.2225 27.5861 13.2586C27.6219 13.2989 27.6382 13.3351 27.6382 13.3961Z" fill="#FC9924"/>
<path d="M27.3502 13.1057V13.7401C27.3502 13.797 27.3298 13.8497 27.2941 13.8858C27.2583 13.922 27.2062 13.9385 27.1501 13.9385H26.1206C26.0246 14.5317 25.7652 15.0163 25.3302 15.3883C24.8951 15.7603 24.3324 15.9856 23.638 16.0703C24.3202 16.805 25.2587 17.9158 26.4515 19.3894C26.5077 19.4545 26.5159 19.5268 26.475 19.5991C26.4433 19.6715 26.379 19.7118 26.2994 19.7118H25.1065C25.0422 19.7118 24.9911 19.688 24.9544 19.6394C23.7054 18.1215 22.6872 16.9424 21.9049 16.1023C21.8691 16.0662 21.8487 16.0217 21.8487 15.9649V15.1775C21.8487 15.1248 21.8691 15.0762 21.9049 15.0359C21.9447 14.9956 21.9927 14.9791 22.0448 14.9791H22.7311C23.2703 14.9791 23.7054 14.8902 24.0363 14.7125C24.3631 14.5348 24.5755 14.2764 24.6633 13.9416H22.0489C21.9927 13.9416 21.9447 13.9251 21.909 13.8889C21.8732 13.8528 21.8528 13.8083 21.8528 13.7432V13.1088C21.8528 13.0519 21.8732 12.9992 21.909 12.9631C21.9447 12.9269 21.9886 12.9104 22.0489 12.9104H24.5796C24.3477 12.4423 23.7973 12.2118 22.9394 12.2118H22.0499C21.9978 12.2118 21.9498 12.1912 21.91 12.155C21.8743 12.1147 21.8538 12.0661 21.8538 12.0134V11.1899C21.8538 11.133 21.8743 11.0845 21.91 11.0483C21.9457 11.0121 21.9897 10.9915 22.0499 10.9915H27.146C27.2021 10.9915 27.2501 11.008 27.2859 11.0483C27.3216 11.0845 27.3421 11.1289 27.3421 11.1899V11.8243C27.3421 11.8812 27.3216 11.9297 27.2859 11.9659C27.2501 12.0021 27.2062 12.0227 27.146 12.0227H25.7213C25.9133 12.2728 26.0451 12.5714 26.1125 12.9155H27.1582C27.2144 12.9155 27.2665 12.9321 27.3022 12.9682C27.3339 13.0127 27.3502 13.0488 27.3502 13.1057Z" fill="#FED056"/>
</g>
<defs>
<clipPath id="clip0_1_2486">
<rect width="48" height="31" fill="white"/>
</clipPath>
</defs>
</svg>
