<svg width="73" height="73" viewBox="0 0 73 73" fill="none" xmlns="http://www.w3.org/2000/svg">
<mask id="mask0_1_1291" style="mask-type:alpha" maskUnits="userSpaceOnUse" x="0" y="0" width="73" height="73">
<circle cx="36.5" cy="36.5" r="36.5" fill="#D8DFF9"/>
</mask>
<g mask="url(#mask0_1_1291)">
<path d="M48.9344 29.6181C49.5077 29.6288 49.9726 29.6703 50.4018 30.0966C50.7614 30.4533 50.9277 31.0082 50.9209 31.507C50.9064 32.6196 50.4386 33.5341 49.6449 34.3026C49.2486 34.6873 48.6551 35.0566 48.0828 35.0218C47.817 35.0053 47.5792 34.9174 47.3578 34.7724C47.2921 34.203 47.3288 33.5872 47.3278 33.0121L47.352 30.4456C47.9194 30.2184 48.4231 29.9536 48.9335 29.6162L48.9344 29.6181Z" fill="#F6AF86"/>
<path d="M25.6765 29.3437C25.8253 29.6444 25.6852 30.2998 25.6784 30.6381L25.6591 33.2954C25.6571 33.7217 25.6127 34.2051 25.6736 34.6246C25.2966 34.9301 25.0182 35.0741 24.5252 35.0277C23.7103 34.9513 22.9543 34.3868 22.4546 33.7662C21.9519 33.1427 21.6581 32.2418 21.7605 31.4424C21.8301 30.8991 22.0805 30.3162 22.5387 29.9895C22.9534 29.6946 23.4261 29.598 23.9258 29.6801C24.0177 29.6956 24.1037 29.7082 24.1965 29.7101L24.2922 29.712C24.6615 30.0465 25.2028 30.2553 25.6794 30.3848L25.6765 29.3428V29.3437Z" fill="#F6AF86"/>
<path d="M24.2904 29.713C23.2648 28.0726 22.7602 26.2147 22.476 24.3152C22.1502 22.1325 22.0748 19.0546 23.4485 17.2025C24.101 16.3228 24.8675 15.9256 25.9405 15.767C25.956 14.2697 26.4335 13.1686 27.1401 11.8743C27.6911 12.4369 28.2557 13.0633 28.7419 13.6819C28.9536 13.9516 29.1092 14.2919 29.3373 14.5384L29.7675 13.7902C30.9874 11.8627 33.146 10.7568 35.3142 10.2783C38.8087 9.50694 42.9411 10.3895 45.9387 12.3006C45.5182 12.9386 45.1499 13.5572 44.8387 14.2571L46.7014 13.5843C47.4409 13.9603 48.191 14.5548 48.8029 15.1126C50.0867 16.2803 51.1297 17.6684 51.9233 19.2112C52.0229 19.4046 52.2239 19.7071 52.2346 19.9236C51.8402 20.6941 51.1886 21.2199 50.54 21.7671L50.512 22.1885C50.4588 24.3693 50.0035 26.5627 49.293 28.6226C49.1819 28.9455 49.0891 29.3157 48.9325 29.6173C48.4221 29.9547 47.9184 30.2195 47.351 30.4467C47.3152 28.9629 47.3781 27.5477 47.1403 26.0697C46.2848 26.4225 45.467 26.6864 44.5496 26.8285C41.3036 27.3302 37.957 26.3007 34.9884 25.0643L33.3219 24.3509C32.5225 23.9875 31.7472 23.6095 30.8569 23.5438C30.274 23.5003 29.5829 23.6559 29.0464 23.8821C27.7453 24.4312 26.6297 25.6144 26.1058 26.9213L25.7752 28.0175C25.7259 28.1596 25.7162 28.2756 25.7095 28.4244C25.7056 28.4998 25.693 28.5627 25.6708 28.6342L25.6747 29.3418L25.6776 30.3839C25.2001 30.2543 24.6597 30.0446 24.2904 29.7111V29.713Z" fill="#2A1A66"/>
<path d="M25.673 28.636C25.6217 26.8631 25.7667 24.9405 26.7624 23.4151C27.5502 22.2077 28.7083 21.4499 30.1041 21.1502C31.8113 20.7838 33.4178 21.7283 34.9258 22.3846C35.8577 22.7906 36.7953 23.1763 37.7697 23.4663C40.515 24.2841 43.6828 24.3015 46.4542 23.5871C46.7529 24.402 46.9897 25.216 47.1434 26.0715C46.2879 26.4243 45.4701 26.6882 44.5528 26.8303C41.3067 27.332 37.9602 26.3025 34.9916 25.0661L33.325 24.3527C32.5256 23.9893 31.7504 23.6113 30.8601 23.5456C30.2772 23.5021 29.586 23.6577 29.0495 23.8839C27.7484 24.433 26.6329 25.6162 26.1089 26.9231L25.7783 28.0193C25.729 28.1614 25.7194 28.2774 25.7126 28.4262C25.7087 28.5016 25.6962 28.5645 25.6739 28.636H25.673Z" fill="#F9BE93"/>
<path d="M25.6736 28.6363C25.6958 28.5648 25.7084 28.5019 25.7122 28.4265C25.719 28.2777 25.7287 28.1617 25.778 28.0196L26.1086 26.9234C26.6325 25.6165 27.748 24.4323 29.0492 23.8842C29.5856 23.658 30.2768 23.5024 30.8597 23.5459C31.751 23.6116 32.5253 23.9896 33.3247 24.353L34.9912 25.0664C37.9598 26.3028 41.3064 27.3313 44.5524 26.8306C45.4707 26.6885 46.2885 26.4246 47.143 26.0718C47.3808 27.5488 47.317 28.965 47.3538 30.4488L47.3296 33.0153C47.3315 33.5895 47.2938 34.2062 47.3596 34.7755C47.3509 35.4967 47.3277 36.2236 47.2039 36.9351C46.7951 39.2831 45.6302 41.2376 43.9395 42.8858C43.5384 43.2763 43.1295 43.6166 42.6655 43.9298C42.4287 44.0903 42.1039 44.242 41.898 44.4334L41.8912 45.9269L41.8989 46.4189C41.6312 46.5562 41.3924 46.7582 41.1237 46.9023C40.1821 47.4078 39.0985 47.721 38.0313 47.7781C35.7046 47.9028 33.1052 46.9351 31.3788 45.3807L31.3537 44.7476V44.5678C31.2 44.3774 30.8433 44.2217 30.6364 44.0816C30.2217 43.8003 29.8012 43.4919 29.4252 43.1594C27.7355 41.6649 26.3995 39.5789 25.952 37.3488C25.7712 36.4459 25.7393 35.5392 25.6745 34.6247C25.6136 34.2052 25.6581 33.7219 25.66 33.2956L25.6794 30.6382C25.6861 30.2999 25.8263 29.6455 25.6774 29.3439L25.6736 28.6363Z" fill="#FAD9B0"/>
<path d="M31.3517 44.5676L31.4193 44.5889C31.6726 44.673 31.9133 44.8286 32.1579 44.9398C32.5387 45.1128 32.9505 45.2472 33.3488 45.3748C35.9327 46.2012 38.6741 45.9915 41.1091 44.8247L41.8525 44.4216C41.8496 44.9146 41.8099 45.4386 41.8902 45.9258L41.8979 46.4178C41.6301 46.555 41.3914 46.7571 41.1227 46.9011C40.1811 47.4067 39.0975 47.7199 38.0303 47.7769C35.7036 47.9016 33.1042 46.934 31.3778 45.3796L31.3526 44.7464V44.5666L31.3517 44.5676Z" fill="#F6AF86"/>
<path d="M31.3527 44.7476L31.3778 45.3807C33.1043 46.9351 35.7036 47.9027 38.0303 47.778C39.0975 47.721 40.1812 47.4078 41.1227 46.9022C41.3924 46.7582 41.6311 46.5562 41.8979 46.4189V51.4455C42.0043 51.5422 42.1502 51.5557 42.2875 51.5857L45.8448 52.8945C46.7071 53.2889 47.6196 53.6012 48.507 53.9366L52.943 55.5877C54.1629 56.0304 55.4534 56.4422 56.6163 57.0193C59.0252 58.2141 60.8261 60.2982 61.7676 62.8038C62.4278 64.5611 62.8125 66.479 63.1083 68.3282C63.5762 71.2552 63.8179 74.2374 63.844 77.2021C63.8546 78.4481 63.8662 79.7319 63.7376 80.9711L31.5334 80.9847L22.3608 80.974L19.9075 80.9721C19.5111 80.974 19.0616 81.0233 18.673 80.9615H18.6363C18.0147 81.032 17.3361 80.9847 16.7088 80.9847L12.8306 80.975L10.7551 80.9673C10.4874 80.9663 10.1007 81.0137 9.84648 80.9412C9.66668 79.7348 9.70535 78.4646 9.70342 77.2466C9.70052 74.1562 9.86871 71.06 10.3085 67.9995C10.6237 65.811 11.0229 63.5674 12.0698 61.5935C13.1544 59.55 14.8857 57.9444 16.9234 56.8723C18.6827 55.9473 20.6518 55.345 22.5165 54.6635C24.1578 54.0642 25.7992 53.3653 27.4667 52.8481L31.1738 51.577C31.2048 51.5722 31.2705 51.5335 31.2995 51.519L31.3237 46.7592C31.3217 46.0989 31.2773 45.4049 31.3507 44.7485L31.3527 44.7476Z" fill="#3D4AAC"/>
<path d="M18.6374 80.9584L17.836 80.9333L18.4305 67.1304L18.4817 67.1526L19.3266 77.6408L19.5161 79.9415C19.5373 80.2537 19.5953 80.6249 19.5518 80.9313C19.2686 80.9333 18.9496 80.911 18.6731 80.9594H18.6364L18.6374 80.9584Z" fill="#2A1A66"/>
<path d="M55.0674 66.4839C55.1437 66.7149 55.1147 67.0368 55.1225 67.2833L55.1805 68.9005L55.339 80.9374L53.8707 80.9403L53.6657 80.9325C53.6145 80.775 53.6493 80.5961 53.6628 80.4337L53.7624 79.3018L54.4874 72.2374L54.8769 68.2983C54.9243 67.9078 54.9436 67.4969 55.0152 67.1112C55.0548 66.9005 55.0606 66.6975 55.0664 66.4849L55.0674 66.4839Z" fill="#2A1A66"/>
<path d="M31.1739 51.5757L31.2136 51.6153C31.2996 51.7149 31.3412 51.8386 31.404 51.9527C31.5287 52.1798 31.6834 52.4022 31.8438 52.6052C32.8984 53.9363 34.36 54.8768 36.0662 55.0788C37.7172 55.2741 39.3548 54.7724 40.6414 53.7294C41.3644 53.1436 41.8391 52.3857 42.2857 51.5853L45.843 52.8942C45.5365 53.4636 45.0996 53.9981 44.681 54.4892C44.0005 55.2886 43.2456 56.0668 42.392 56.6825C40.332 58.1702 37.9483 58.8962 35.4147 58.4805C32.0352 57.9266 29.3904 55.5399 27.4668 52.8459L31.1739 51.5747V51.5757Z" fill="#F4AE25"/>
<path d="M31.3527 44.7476L31.3778 45.3807C33.1043 46.9351 35.7036 47.9027 38.0304 47.778C39.0975 47.721 40.1812 47.4078 41.1227 46.9022C41.3924 46.7582 41.6312 46.5562 41.898 46.4189V51.4455C42.0043 51.5422 42.1502 51.5557 42.2875 51.5857C41.8409 52.3861 41.3663 53.1439 40.6432 53.7297C39.3566 54.7728 37.7181 55.2745 36.068 55.0792C34.3609 54.8772 32.9003 53.9366 31.8457 52.6055C31.6842 52.4025 31.5296 52.1802 31.4058 51.953C31.343 51.839 31.3014 51.7152 31.2154 51.6157L31.1758 51.576C31.2067 51.5712 31.2724 51.5325 31.3014 51.518L31.3256 46.7582C31.3237 46.098 31.2792 45.4039 31.3527 44.7476Z" fill="#F9BE93"/>
</g>
</svg>
