<svg width="29" height="28" viewBox="0 0 29 28" fill="none" xmlns="http://www.w3.org/2000/svg">
<path d="M26.6116 22.4322L21.8163 18.3145C21.5035 18.8357 21.1387 19.3048 20.6696 19.7739C20.2526 20.1909 19.7314 20.6079 19.2623 20.8685L23.3278 25.6638C24.2139 26.7062 25.7776 26.7583 26.7158 25.8201C27.7062 24.8819 27.654 23.3182 26.6116 22.4322Z" fill="#2DAACD"/>
<path d="M15.4052 21.963C19.5505 21.963 22.9109 18.6026 22.9109 14.4573C22.9109 10.3121 19.5505 6.95166 15.4052 6.95166C11.26 6.95166 7.89957 10.3121 7.89957 14.4573C7.89957 18.6026 11.26 21.963 15.4052 21.963Z" fill="#D1DEE0"/>
<path d="M15.4052 20.0865C18.5142 20.0865 21.0345 17.5662 21.0345 14.4573C21.0345 11.3483 18.5142 8.828 15.4052 8.828C12.2963 8.828 9.77597 11.3483 9.77597 14.4573C9.77597 17.5662 12.2963 20.0865 15.4052 20.0865Z" fill="white"/>
<path d="M15.4052 22.4842C10.9748 22.4842 7.37833 18.8878 7.37833 14.4573C7.37833 10.0269 10.9748 6.43042 15.4052 6.43042C19.8357 6.43042 23.4321 10.0269 23.4321 14.4573C23.4321 18.8878 19.8357 22.4842 15.4052 22.4842ZM15.4052 7.47287C11.5481 7.47287 8.42078 10.6002 8.42078 14.4573C8.42078 18.3144 11.5481 21.4418 15.4052 21.4418C19.2623 21.4418 22.3897 18.3144 22.3897 14.4573C22.3897 10.6002 19.2623 7.47287 15.4052 7.47287Z" fill="#467487"/>
<path d="M16.0828 26.9147L16.0307 25.8722C16.7083 25.8201 17.3338 25.768 18.0113 25.6116L18.2198 26.6019C17.5422 26.7583 16.8125 26.8625 16.0828 26.9147ZM13.8937 26.8104C13.1639 26.7062 12.4342 26.5498 11.7566 26.3413L12.0694 25.351C12.6948 25.5595 13.3724 25.6637 13.9979 25.768L13.8937 26.8104ZM9.77596 25.5595C9.15048 25.2467 8.52501 24.8298 7.95166 24.4128L8.57713 23.5788C9.09836 23.9958 9.67171 24.3085 10.2451 24.6213L9.77596 25.5595ZM6.28373 22.9533C5.76251 22.4321 5.34552 21.8588 4.92854 21.2333L5.81463 20.6599C6.17949 21.2333 6.59647 21.7545 7.06557 22.2236L6.28373 22.9533ZM3.93821 19.3569C3.6776 18.6793 3.41698 18.0017 3.26061 17.272L4.30307 17.0635C4.45944 17.6889 4.66793 18.3665 4.92854 18.9399L3.93821 19.3569ZM27.7583 16.021L26.7158 15.9168C26.768 15.4477 26.8201 14.9786 26.8201 14.5095C26.8201 14.301 26.8201 14.1446 26.8201 13.9361L27.8625 13.884V14.5095C27.8625 14.9786 27.8104 15.4998 27.7583 16.021ZM3 15.1349C3 14.9264 3 14.7179 3 14.5095C3 13.9882 3.05212 13.467 3.10425 12.9979L4.1467 13.1021C4.04245 13.5191 3.99033 13.9882 3.99033 14.4573V15.0307L3 15.1349ZM26.5074 11.9033C26.351 11.2778 26.1425 10.6003 25.8819 10.0269L26.8201 9.60992C27.0807 10.2875 27.3413 10.9651 27.4977 11.6948L26.5074 11.9033ZM4.51156 11.1215L3.52123 10.8087C3.72972 10.1311 3.99033 9.45355 4.35519 8.77596L5.24128 9.29718C4.92854 9.87053 4.66793 10.496 4.51156 11.1215ZM24.9958 8.25473C24.6309 7.68138 24.214 7.16015 23.797 6.69105L24.5788 5.96133C25.0479 6.48256 25.517 7.05591 25.934 7.68138L24.9958 8.25473ZM6.28373 7.57713L5.44977 6.95166C5.81463 6.48256 6.17949 6.06557 6.59647 5.64859L6.90921 5.33586L7.63892 6.1177C7.53468 6.16982 7.43043 6.27406 7.32619 6.37831C6.96133 6.74317 6.59647 7.16015 6.28373 7.57713ZM22.2854 5.33586C21.7642 4.91887 21.1908 4.60614 20.6175 4.2934L21.0866 3.35519C21.7121 3.72005 22.3375 4.08491 22.9109 4.50189L22.2854 5.33586ZM9.20261 4.86675L8.62926 3.98066C9.25473 3.56368 9.8802 3.25095 10.5578 2.93821L10.9748 3.87642C10.3493 4.18916 9.72383 4.50189 9.20261 4.86675ZM18.7411 3.56368C18.1156 3.35519 17.438 3.25095 16.8125 3.1467L16.9168 2.10425C17.6465 2.20849 18.3241 2.36486 19.0538 2.57335L18.7411 3.56368ZM12.8512 3.35519L12.6427 2.31274C13.3724 2.15637 14.05 2.05212 14.7797 2L14.8319 3.04245C14.1543 3.09458 13.4767 3.19882 12.8512 3.35519Z" fill="#D1DEE0"/>
<path d="M15.4053 24.7776C15.0926 24.7776 14.7798 24.7776 14.4671 24.7254L14.5713 23.683C15.1447 23.7351 15.718 23.7351 16.2914 23.683L16.3956 24.7254C16.0308 24.7254 15.718 24.7776 15.4053 24.7776Z" fill="#D1DEE0"/>
<path d="M10.9748 23.7872C9.88022 23.266 8.88989 22.5884 8.05593 21.7545L8.42078 21.3896L8.78564 21.0247C9.51536 21.7545 10.4014 22.3799 11.3918 22.849L10.9748 23.7872ZM5.97102 18.7835C5.44979 17.6889 5.13705 16.5422 5.03281 15.3434L6.07526 15.2391C6.17951 16.3337 6.44012 17.3761 6.90923 18.3665L5.97102 18.7835ZM6.33588 12.0596L5.34554 11.799C5.65828 10.6523 6.17951 9.55773 6.8571 8.5674L7.69107 9.19287C7.11772 10.0268 6.64861 11.0172 6.33588 12.0596ZM23.7449 10.4438C23.2758 9.50561 22.7024 8.61952 21.9206 7.8898L21.8685 7.83768L22.5982 7.10796L22.6503 7.16008C23.4843 7.99405 24.1619 8.93226 24.6831 10.0268L23.7449 10.4438ZM9.98447 6.84735L9.35899 6.01338C10.3493 5.33579 11.4439 4.81456 12.5906 4.50182L12.8512 5.49215C11.8609 5.75277 10.8706 6.22187 9.98447 6.84735ZM19.2102 6.01338C18.2199 5.54428 17.1774 5.28366 16.0828 5.17942L16.1871 4.13696C17.3859 4.24121 18.5326 4.55395 19.6272 5.02305L19.2102 6.01338Z" fill="#D1DEE0"/>
<path d="M25.6735 15.3956L24.631 15.2913C24.6832 14.718 24.6832 14.1446 24.631 13.5713L25.6735 13.467C25.7256 14.1446 25.7256 14.718 25.6735 15.3956Z" fill="#D1DEE0"/>
<path d="M12.0694 13.3628H13.2161V17.2199H12.0694V13.3628Z" fill="#908EC3"/>
<path d="M13.8937 11.6948H15.0404V17.1677H13.8937V11.6948Z" fill="#FBCF4A"/>
<path d="M15.718 14.0403H16.8647V17.2198H15.718V14.0403Z" fill="#3BB3C0"/>
<path d="M17.5423 12.9979H18.689V17.2199H17.5423V12.9979Z" fill="#F475B1"/>
</svg>
