<svg width="37" height="39" viewBox="0 0 37 39" fill="none" xmlns="http://www.w3.org/2000/svg">
<path d="M22.9713 9.41477L21.3945 10.9915V13.0406H20.3129V4.9054H21.3945V9.46809L22.2095 8.65305L22.9713 9.41477Z" fill="#00894F"/>
<path fill-rule="evenodd" clip-rule="evenodd" d="M20.8537 35.3818C27.0084 35.3818 32.0205 30.3621 32.0205 24.215C32.0205 18.0679 27.0008 13.0482 20.8537 13.0482C14.7066 13.0482 9.6869 18.0679 9.6869 24.215C9.67928 30.3621 14.699 35.3818 20.8537 35.3818Z" fill="#FEDB41"/>
<path fill-rule="evenodd" clip-rule="evenodd" d="M20.8537 32.6473C25.5002 32.6473 29.2859 28.8615 29.2859 24.2151C29.2859 19.5686 25.5002 15.7828 20.8537 15.7828C16.2072 15.7828 12.4214 19.5686 12.4214 24.2151C12.4214 28.8539 16.2072 32.6473 20.8537 32.6473Z" fill="#FEA832"/>
<path d="M18.142 28.6787C17.8449 28.6787 17.6011 28.435 17.6011 28.1379C17.6011 27.8408 17.8449 27.5971 18.142 27.5971H21.166C21.6459 27.5971 22.08 27.4295 22.3847 27.1553C22.6742 26.8963 22.857 26.5535 22.857 26.1727C22.857 25.7918 22.6742 25.4414 22.3847 25.19C22.0724 24.9158 21.6382 24.7482 21.166 24.7482H20.4423C19.6959 24.7482 19.0332 24.474 18.5533 24.0398C18.0582 23.5828 17.7535 22.943 17.7535 22.2422C17.7535 21.5414 18.0734 20.9092 18.5914 20.4521C19.0408 20.0561 19.6425 19.7971 20.2976 19.7514V18.5555C20.2976 18.2584 20.5414 18.0146 20.8384 18.0146C21.1355 18.0146 21.3793 18.2584 21.3793 18.5555V19.7438H23.5502C23.8472 19.7438 24.091 19.9875 24.091 20.2846C24.091 20.5816 23.8472 20.8254 23.5502 20.8254H20.5261C20.0463 20.8254 19.6121 20.993 19.3074 21.2672C19.0179 21.5262 18.8351 21.8689 18.8351 22.2498C18.8351 22.6383 19.0027 22.9963 19.2845 23.2553C19.5664 23.5143 19.9701 23.6818 20.4423 23.6818H21.166C21.9125 23.6818 22.598 23.9561 23.1007 24.3902C23.6187 24.8473 23.9386 25.4795 23.9386 26.1803C23.9386 26.8811 23.6187 27.5133 23.1007 27.9703C22.6513 28.3664 22.0496 28.6254 21.3869 28.6711V29.867C21.3869 30.1641 21.1431 30.4078 20.8461 30.4078C20.549 30.4078 20.3052 30.1641 20.3052 29.867V28.6787H18.142Z" fill="#FEDB41"/>
<path d="M16.0853 0.121859C16.8014 -0.0152503 17.5478 0.0228356 18.2486 0.236117C18.9342 0.441781 19.574 0.815023 20.1148 1.35584C20.6556 1.89666 21.0213 2.53651 21.2346 3.22205C21.4478 3.93045 21.4859 4.67694 21.3488 5.40057C21.3031 5.62909 21.1279 5.78905 20.9146 5.82713C20.1986 5.96424 19.4521 5.92616 18.7513 5.71287C18.0658 5.49959 17.426 5.13397 16.8851 4.59315C16.3443 4.05233 15.9787 3.41248 15.7654 2.72694C15.5521 2.01854 15.514 1.27205 15.6512 0.548422C15.6969 0.319906 15.8721 0.159945 16.0853 0.121859Z" fill="#03AA6F"/>
<path fill-rule="evenodd" clip-rule="evenodd" d="M8.71188 15.9352V11.0754H10.38L7.64547 8.34082L4.91852 11.0754H6.5943V15.9352H8.71188Z" fill="#00894F"/>
<path fill-rule="evenodd" clip-rule="evenodd" d="M35.1131 15.9352V11.0754H36.7889L34.0543 8.34082L31.3273 11.0754H32.9955V15.9352H35.1131Z" fill="#00894F"/>
<path d="M26.4752 5.58335C26.5818 6.14702 26.5514 6.73355 26.3838 7.29722C26.2162 7.83804 25.9267 8.34839 25.5002 8.77495C25.0736 9.20151 24.5709 9.49097 24.0224 9.65855C23.4588 9.82612 22.8723 9.85659 22.301 9.74233C22.0724 9.69663 21.9125 9.52144 21.8744 9.30815C21.7678 8.74448 21.7982 8.15796 21.9658 7.59429C22.1334 7.05347 22.4228 6.54312 22.8494 6.11655C23.276 5.68999 23.7787 5.40054 24.3271 5.23296C24.8908 5.06538 25.4773 5.03491 26.0486 5.14155C26.2771 5.18726 26.4447 5.37007 26.4752 5.58335Z" fill="#03AA6F"/>
<path fill-rule="evenodd" clip-rule="evenodd" d="M20.8537 15.7828C25.5154 15.7828 29.2859 19.561 29.2859 24.2151C29.2859 28.8768 25.5078 32.6473 20.8537 32.6473C20.5719 32.6473 20.2977 32.6321 20.0234 32.6092C24.2891 32.1903 27.6254 28.5949 27.6254 24.2151C27.6254 19.8352 24.2891 16.2399 20.0234 15.8285C20.2977 15.7905 20.5719 15.7828 20.8537 15.7828Z" fill="#FE9923"/>
<path fill-rule="evenodd" clip-rule="evenodd" d="M33.841 29.8365C34.5189 31.2381 33.9248 32.9444 32.5232 33.6223C17.9973 40.6606 20.808 40.9272 6.16777 33.2948H4.48438V22.5621H12.9623C15.6969 24.6721 18.4238 26.7821 21.1584 28.8844C22.2629 29.7375 22.56 31.2533 21.9354 32.4492L30.0553 28.5112C31.4568 27.8408 33.1631 28.4274 33.841 29.8365Z" fill="#F6DCCD"/>
<path fill-rule="evenodd" clip-rule="evenodd" d="M0.211121 20.6198H6.16776V35.2371H0.211121V20.6198Z" fill="#757575"/>
<path d="M13.5793 28.8996C13.3432 28.7168 13.3051 28.3817 13.4803 28.1455C13.6631 27.9094 13.9983 27.8713 14.2344 28.0465L19.5817 32.175C20.0844 32.5635 20.6938 32.7082 21.2803 32.6321C21.5012 32.6016 21.7221 32.5407 21.9277 32.4492C21.5393 32.9444 20.9908 33.2414 20.4043 33.3176C19.8178 33.3938 19.2084 33.2491 18.7057 32.8606L13.5793 28.8996Z" fill="#F1CBBC"/>
<path fill-rule="evenodd" clip-rule="evenodd" d="M32.4318 31.7712C17.9363 38.7943 20.7014 39.0761 6.16779 31.4894V33.2947C20.808 40.9347 17.9973 40.6681 32.5233 33.6222C33.8715 32.9747 34.4656 31.3751 33.9172 30.004C33.7039 30.7505 33.1859 31.4056 32.4318 31.7712Z" fill="#F1CBBC"/>
<path fill-rule="evenodd" clip-rule="evenodd" d="M3.95117 20.6198H6.16777V35.2371H3.95117V20.6198Z" fill="#616161"/>
</svg>
