<svg width="39" height="39" viewBox="0 0 39 39" fill="none" xmlns="http://www.w3.org/2000/svg">
<g clip-path="url(#clip0_1_2416)">
<path d="M25.9131 14.8993C25.6746 15.8147 25.1257 16.637 24.3442 17.2079H19.4134C18.3468 16.4285 17.7107 15.1817 17.7107 13.8677C17.7107 13.7472 17.717 13.6282 17.7272 13.5103C17.2825 12.8172 16.7471 12.2888 16.2529 11.9013C15.0519 10.9597 13.8574 10.6329 13.8071 10.6193C13.7694 10.6092 13.731 10.6044 13.6928 10.6044C13.5971 10.6044 13.5028 10.6355 13.4251 10.6946C13.3165 10.7774 13.2528 10.9058 13.2528 11.042V15.7116C9.96397 17.2001 7.61003 20.3734 7.30428 24.1227H4.71786C4.47586 24.1227 4.27789 24.3197 4.27789 24.5602V30.4229C4.27789 30.6636 4.47586 30.8604 4.71786 30.8604H8.46476C9.66644 33.1014 11.689 34.8401 14.1327 35.6827V37.9335H18.9574L19.2077 36.2412H24.5155C24.6426 36.2412 24.7689 36.2381 24.8948 36.2335L25.1462 37.9335H29.9708V34.6706C32.8263 32.8715 34.7223 29.7019 34.7223 26.0913V24.9538C34.7221 19.82 30.8888 15.577 25.9131 14.8993Z" fill="#FE99A0"/>
<path d="M4.71786 30.8603H8.46476C9.66644 33.1013 11.689 34.8399 14.1327 35.6826V37.9336H16.037V34.1591C13.5933 33.3164 11.5708 31.5778 10.3691 29.3368H6.62216C6.38016 29.3368 6.18219 29.14 6.18219 28.8993V24.1226H4.71786C4.47586 24.1226 4.27789 24.3195 4.27789 24.56V30.4227C4.27789 30.6635 4.47586 30.8603 4.71786 30.8603Z" fill="#FD8087"/>
<path d="M10.7117 26.7521C10.3962 26.7521 10.1404 26.4963 10.1404 26.1808V23.1622C10.1404 22.8467 10.3962 22.5909 10.7117 22.5909C11.0272 22.5909 11.283 22.8467 11.283 23.1622V26.1808C11.283 26.4963 11.0272 26.7521 10.7117 26.7521Z" fill="#444444"/>
<path d="M34.7221 39H4.27789C3.96239 39 3.7066 38.7443 3.7066 38.4287C3.7066 38.1131 3.96239 37.8574 4.27789 37.8574H34.7222C35.0377 37.8574 35.2935 38.1131 35.2935 38.4287C35.2935 38.7443 35.0376 39 34.7221 39Z" fill="#FB8801"/>
<path d="M19.822 10.2651V8.88208C19.822 8.5665 19.5662 8.31079 19.2507 8.31079C18.9352 8.31079 18.6794 8.5665 18.6794 8.88208V11.2148C18.999 10.8342 19.3862 10.5121 19.822 10.2651Z" fill="#FB8801"/>
<path d="M25.0782 11.2147V9.27466C25.0782 8.95908 24.8225 8.70337 24.507 8.70337C24.1915 8.70337 23.9357 8.95908 23.9357 9.27466V10.265C24.3714 10.5121 24.7586 10.8342 25.0782 11.2147Z" fill="#FB8801"/>
<path d="M24.5068 7.58813C24.3567 7.58813 24.2097 7.52712 24.1031 7.42056C23.9964 7.31468 23.9355 7.16767 23.9355 7.01685C23.9355 6.86671 23.9964 6.71901 24.1031 6.61306C24.2097 6.50649 24.3567 6.44556 24.5068 6.44556C24.6576 6.44556 24.8046 6.50649 24.9112 6.61306C25.0171 6.71901 25.0781 6.86671 25.0781 7.01685C25.0781 7.16759 25.0171 7.31468 24.9112 7.42056C24.8046 7.52712 24.6576 7.58813 24.5068 7.58813Z" fill="#FB8801"/>
<path d="M21.8788 9.72314C22.0898 9.72314 22.297 9.73913 22.4996 9.7693V7.20581C22.4996 6.89023 22.2438 6.63452 21.9283 6.63452C21.6128 6.63452 21.3571 6.89023 21.3571 7.20581V9.75681C21.5281 9.73548 21.702 9.72314 21.8788 9.72314Z" fill="#FB8801"/>
<path d="M21.9283 5.42871C21.7783 5.42871 21.6305 5.36777 21.5246 5.26113C21.418 5.15525 21.3571 5.00756 21.3571 4.85742C21.3571 4.70736 21.418 4.55959 21.5246 4.45371C21.6305 4.34707 21.7775 4.28613 21.9283 4.28613C22.0784 4.28613 22.2262 4.34707 22.3321 4.45371C22.4387 4.55959 22.4996 4.70736 22.4996 4.85742C22.4996 5.00756 22.4387 5.15525 22.3321 5.26113C22.2262 5.36777 22.0784 5.42871 21.9283 5.42871Z" fill="#FB8801"/>
<path d="M19.3886 17.284H24.369C25.4316 16.5172 26.1232 15.2733 26.1232 13.8677C26.1232 11.5366 24.2229 9.64697 21.8788 9.64697C19.5347 9.64697 17.6344 11.5367 17.6344 13.8677C17.6344 15.2733 18.326 16.5172 19.3886 17.284Z" fill="#FFDC48"/>
<path d="M23.8989 13.8677C23.8989 14.9772 22.9945 15.8764 21.8788 15.8764C20.7632 15.8764 19.8588 14.9772 19.8588 13.8677C19.8588 12.7584 20.7632 11.859 21.8788 11.859C22.9945 11.859 23.8989 12.7583 23.8989 13.8677Z" fill="#FEA613"/>
<path d="M21.406 13.8677C21.406 13.0309 21.9208 12.3139 22.6524 12.012C22.4142 11.9135 22.1529 11.859 21.8788 11.859C20.7632 11.859 19.8588 12.7584 19.8588 13.8677C19.8588 14.9772 20.7632 15.8764 21.8788 15.8764C22.1529 15.8764 22.4141 15.8219 22.6524 15.7235C21.9208 15.4216 21.406 14.7046 21.406 13.8677Z" fill="#FB8801"/>
<path d="M18.9929 4.24194C18.9929 6.58468 17.0926 8.48387 14.7485 8.48387C12.4043 8.48387 10.5041 6.5846 10.5041 4.24194C10.5042 1.89927 12.4043 0 14.7486 0C17.0927 0 18.9929 1.89927 18.9929 4.24194Z" fill="#FFDC48"/>
<path d="M16.7687 4.24188C16.7687 5.35704 15.8642 6.26067 14.7486 6.26067C13.6329 6.26067 12.7285 5.35704 12.7285 4.24188C12.7285 3.12688 13.6329 2.22302 14.7486 2.22302C15.8642 2.22302 16.7687 3.12695 16.7687 4.24188Z" fill="#FEA613"/>
<path d="M14.2757 4.24188C14.2757 3.40087 14.7905 2.68021 15.5222 2.37674C15.2839 2.27787 15.0227 2.22302 14.7486 2.22302C13.6329 2.22302 12.7285 3.12688 12.7285 4.24188C12.7285 5.35704 13.6329 6.26067 14.7486 6.26067C15.0227 6.26067 15.2839 6.20582 15.5222 6.10703C14.7905 5.80363 14.2757 5.08305 14.2757 4.24188Z" fill="#FB8801"/>
<path d="M9.37391 11.4793C9.37391 12.5943 8.46945 13.4983 7.35376 13.4983C6.23807 13.4983 5.33368 12.5943 5.33368 11.4793C5.33368 10.3642 6.23807 9.46033 7.35376 9.46033C8.46945 9.46033 9.37391 10.3643 9.37391 11.4793Z" fill="#FEA613"/>
<path d="M6.88103 11.4793C6.88103 10.6382 7.39573 9.91751 8.12743 9.61397C7.88909 9.51517 7.6279 9.46033 7.35376 9.46033C6.23807 9.46033 5.33368 10.3642 5.33368 11.4793C5.33368 12.5943 6.23807 13.4983 7.35376 13.4983C7.6279 13.4983 7.88909 13.4434 8.12743 13.3446C7.39573 13.0411 6.88103 12.3204 6.88103 11.4793Z" fill="#FB8801"/>
<path d="M32.2511 8.85434C32.2511 9.96934 31.3466 10.8733 30.231 10.8733C29.1153 10.8733 28.2109 9.96934 28.2109 8.85434C28.2109 7.73911 29.1154 6.83533 30.231 6.83533C31.3466 6.83533 32.2511 7.73918 32.2511 8.85434Z" fill="#FFDC48"/>
<path d="M29.7582 8.85434C29.7582 8.01317 30.273 7.29251 31.0046 6.98904C30.7663 6.89017 30.5051 6.83533 30.231 6.83533C29.1153 6.83533 28.2109 7.73911 28.2109 8.85434C28.2109 9.96934 29.1153 10.8733 30.231 10.8733C30.5051 10.8733 30.7663 10.8184 31.0046 10.7196C30.273 10.4162 29.7582 9.69543 29.7582 8.85434Z" fill="#FEA613"/>
<path d="M26.011 18.3505H18.0044C17.6889 18.3505 17.4331 18.0948 17.4331 17.7792C17.4331 17.4636 17.6889 17.2079 18.0044 17.2079H26.011C26.3266 17.2079 26.5823 17.4636 26.5823 17.7792C26.5823 18.0948 26.3266 18.3505 26.011 18.3505Z" fill="#FD8087"/>
</g>
<defs>
<clipPath id="clip0_1_2416">
<rect width="39" height="39" fill="white"/>
</clipPath>
</defs>
</svg>
