<svg width="60" height="60" viewBox="0 0 60 60" fill="none" xmlns="http://www.w3.org/2000/svg">
<circle cx="30" cy="30" r="30" fill="#D8EEFF"/>
<path d="M38.7112 30.6018C38.4259 30.6018 38.1951 30.3709 38.1951 30.0856V28.9464C38.1951 28.6611 38.4259 28.4303 38.7112 28.4303C38.9965 28.4303 39.2274 28.6611 39.2274 28.9464V30.0856C39.2274 30.3709 38.9965 30.6018 38.7112 30.6018ZM45 31.6206V34.5807C45 35.6207 44.155 36.4658 43.1199 36.4658H41.2099C40.4998 37.7158 39.5298 38.8358 38.3298 39.7909L38.0098 43.346C37.8997 44.5511 36.9097 45.4611 35.6997 45.4611C34.6146 45.4611 33.6846 44.716 33.4396 43.656L33.1396 42.336C30.6695 42.971 28.0194 42.971 25.5443 42.336L25.2443 43.656C25.0043 44.716 24.0743 45.4611 22.9842 45.4611C21.7792 45.4611 20.7841 44.5511 20.6791 43.346L20.3591 39.7909C17.8357 37.7835 16.3366 35.0048 16.1841 32.0793C15.968 32.132 15.7454 32.1606 15.5189 32.1606H15.449C14.7489 32.1456 14.1189 31.8756 13.6689 31.4006C12.9089 30.6006 12.7839 29.3155 13.3589 28.2755C13.4989 28.0255 13.8089 27.9355 14.0589 28.0705C14.3089 28.2105 14.3989 28.5255 14.2589 28.7755C13.8989 29.4255 13.9639 30.2105 14.4189 30.6906C14.6739 30.9606 15.0589 31.1206 15.474 31.1306C15.7276 31.1252 15.9708 31.0752 16.1975 30.9843C16.4794 26.4718 19.8987 22.6618 24.6326 21.1095C24.5294 20.7145 24.4693 20.3023 24.4693 19.8752C24.4693 17.1901 26.6544 15 29.3444 15C32.0345 15 34.2196 17.1901 34.2196 19.8752C34.2196 20.2996 34.16 20.7097 34.0575 21.1028C35.0379 21.4242 35.9753 21.8412 36.8547 22.3603C37.1597 22.1502 37.4697 21.9702 37.7997 21.8253C38.4998 21.5102 39.6548 21.2802 40.4198 21.4802C40.7198 21.5552 40.9548 21.7502 41.0999 22.0403C41.5849 23.0253 40.9099 25.0553 40.6298 25.7954C41.4899 27.0104 42.0599 28.3305 42.3349 29.7355H43.1199C44.155 29.7355 45 30.5806 45 31.6206ZM25.4993 19.8752C25.4993 21.1482 26.1278 22.2705 27.085 22.9719C28.5689 22.7133 30.1157 22.7131 31.6032 22.9726C32.562 22.2736 33.1896 21.1513 33.1896 19.8752C33.1896 17.7601 31.4645 16.035 29.3444 16.035C27.2244 16.035 25.4993 17.7601 25.4993 19.8752ZM43.97 31.6206C43.97 31.1506 43.5849 30.7705 43.1199 30.7705H41.8949C41.6399 30.7705 41.4249 30.5806 41.3849 30.3306C41.1649 28.8405 40.5749 27.4404 39.6348 26.1804C39.5248 26.0304 39.4998 25.8354 39.5748 25.6704C40.0898 24.4603 40.4048 22.7253 40.1548 22.4703C39.7148 22.3603 38.8248 22.4953 38.2248 22.7653C37.8647 22.9303 37.5297 23.1303 37.1997 23.3853C37.0297 23.5203 36.7897 23.5303 36.6097 23.4153C35.7044 22.8463 34.7251 22.4 33.6946 22.0678C33.4732 22.5058 33.1878 22.9054 32.851 23.2556C33.2948 23.3807 33.7305 23.5277 34.1524 23.7021C34.4166 23.8105 34.5416 24.1124 34.4327 24.376C34.3248 24.6397 34.0244 24.7657 33.7593 24.6558C31.0131 23.5216 27.659 23.5247 24.9315 24.6558C24.867 24.6825 24.7999 24.6951 24.7339 24.6951C24.5318 24.6951 24.3392 24.5751 24.2571 24.3765C24.1482 24.1134 24.2732 23.8115 24.5363 23.7021C24.9568 23.5278 25.3915 23.3809 25.8347 23.2557C25.5007 22.9076 25.2184 22.5114 24.9983 22.0779C20.4444 23.5456 17.204 27.2524 17.204 31.5856C17.204 34.4357 18.6491 37.1808 21.1642 39.1109C21.2792 39.2009 21.3542 39.3309 21.3692 39.4759L21.7042 43.256C21.7642 43.926 22.3142 44.4261 22.9842 44.4261C23.5893 44.4261 24.1043 44.016 24.2393 43.426L24.6593 41.581C24.6893 41.4409 24.7793 41.3209 24.9043 41.2459C25.0243 41.1759 25.1743 41.1609 25.3093 41.2009C27.9194 41.971 30.7695 41.971 33.3796 41.2009C33.4246 41.1859 33.4746 41.1759 33.5246 41.1759C33.6146 41.1759 33.7046 41.2009 33.7846 41.2459C33.9096 41.3209 33.9946 41.4409 34.0296 41.581L34.4497 43.426C34.5796 44.016 35.0997 44.4261 35.6997 44.4261C36.3697 44.4261 36.9197 43.921 36.9847 43.256L37.3198 39.4759C37.3347 39.3309 37.4048 39.2009 37.5197 39.1109C38.7748 38.1458 39.7598 37.0008 40.4449 35.7058C40.5349 35.5357 40.7099 35.4307 40.9049 35.4307H43.1199C43.585 35.4307 43.97 35.0507 43.97 34.5807L43.97 31.6206ZM26.6151 19.8772C26.6151 18.3721 27.8395 17.1477 29.3446 17.1477C30.8498 17.1477 32.0746 18.3721 32.0746 19.8772C32.0746 21.3824 30.8498 22.6072 29.3446 22.6072C27.8395 22.6072 26.6151 21.3824 26.6151 19.8772ZM27.6474 19.8772C27.6474 20.8133 28.4086 21.5749 29.3446 21.5749C30.2812 21.5749 31.0423 20.8133 31.0423 19.8772C31.0423 18.9411 30.2812 18.18 29.3446 18.18C28.4086 18.18 27.6474 18.9412 27.6474 19.8772Z" fill="black"/>
</svg>
