<svg width="60" height="60" viewBox="0 0 60 60" fill="none" xmlns="http://www.w3.org/2000/svg">
<circle cx="30" cy="30" r="30" fill="#FEEBAF"/>
<path fill-rule="evenodd" clip-rule="evenodd" d="M34.8124 25.1885C36.2183 26.5944 38.4977 26.5944 39.9038 25.1885C41.3097 23.7825 41.3097 21.5029 39.9038 20.097C38.4977 18.691 36.2183 18.691 34.8124 20.097C33.4063 21.5029 33.4063 23.7825 34.8124 25.1885ZM36.0852 23.9156C36.7882 24.6186 37.928 24.6186 38.631 23.9156C39.3339 23.2126 39.3339 22.0728 38.631 21.3698C37.928 20.6669 36.7882 20.6669 36.0852 21.3698C35.3821 22.0728 35.3821 23.2126 36.0852 23.9156Z" fill="black"/>
<path d="M31.099 34.8117C31.2873 35.2718 31.7939 35.5287 32.2655 35.3715C32.7371 35.2144 32.9945 34.7028 32.81 34.2413C31.4713 30.8925 29.1072 28.5286 25.7584 27.1897C25.2969 27.0051 24.7854 27.2627 24.6282 27.7342C24.4711 28.2058 24.728 28.7124 25.188 28.9007C27.9933 30.0484 29.9513 32.0064 31.099 34.8117Z" fill="black"/>
<path fill-rule="evenodd" clip-rule="evenodd" d="M37.4679 14.5575C39.9078 14.0129 42.206 13.9678 43.6207 14.0135C44.923 14.0555 45.9454 15.078 45.9874 16.3802C46.0331 17.7948 45.9879 20.0931 45.4434 22.5329C44.9001 24.9671 43.8436 27.6131 41.8131 29.6436L41.7729 29.6837C40.1318 31.3249 38.8427 32.614 37.7768 33.5369L38.2047 37.3881C38.2652 37.9315 38.0753 38.473 37.6886 38.8597L33.8681 42.68C32.9543 43.594 31.4039 43.2757 30.9238 42.0757L29.1541 37.6514L23.4744 38.5979C22.2561 38.801 21.1998 37.7448 21.4029 36.5263L22.3495 30.8466L17.9251 29.0769C16.7252 28.597 16.4069 27.0466 17.3207 26.1327L21.1412 22.3123C21.5279 21.9256 22.0693 21.7356 22.6129 21.796L26.4638 22.2239C27.3869 21.1581 28.6758 19.8691 30.3172 18.2278L30.3571 18.1877C32.3877 16.1572 35.0338 15.1008 37.4679 14.5575ZM37.86 16.3144C35.6136 16.8158 33.3315 17.7592 31.63 19.4606C29.7427 21.3479 28.409 22.6831 27.5363 23.7435L27.2265 24.1199L22.4141 23.5851L18.5936 27.4055L23.018 29.1754C23.8035 29.4895 24.2642 30.3082 24.1251 31.1426L23.1785 36.8223L28.8582 35.8758C29.6927 35.7366 30.5114 36.1973 30.8255 36.9829L32.5952 41.4072L36.4156 37.5868L35.881 32.7744L36.2574 32.4646C37.3178 31.5917 38.653 30.258 40.5402 28.3707C42.2417 26.6694 43.1851 24.3872 43.6865 22.1408C44.1865 19.9 44.231 17.7653 44.1883 16.4382C44.1768 16.0847 43.9161 15.824 43.5626 15.8126C42.2356 15.7698 40.1008 15.8143 37.86 16.3144Z" fill="black"/>
<path fill-rule="evenodd" clip-rule="evenodd" d="M23.1737 45.6604C22.8222 45.309 22.8222 44.7391 23.1737 44.3875L26.9922 40.569C27.3438 40.2176 27.9137 40.2176 28.2651 40.569C28.6167 40.9205 28.6167 41.4904 28.2651 41.8418L24.4466 45.6604C24.0951 46.012 23.5252 46.012 23.1737 45.6604Z" fill="black"/>
<path fill-rule="evenodd" clip-rule="evenodd" d="M14.2636 36.7503C13.9121 36.3989 13.9121 35.829 14.2636 35.4774L18.0822 31.6588C18.4338 31.3074 19.0036 31.3074 19.3551 31.6588C19.7066 32.0104 19.7066 32.5803 19.3551 32.9317L15.5365 36.7503C15.185 37.1018 14.6151 37.1018 14.2636 36.7503Z" fill="black"/>
<path fill-rule="evenodd" clip-rule="evenodd" d="M16.1699 43.7476C15.8184 43.3962 15.8184 42.8263 16.1699 42.4747L19.9885 38.6561C20.34 38.3047 20.9099 38.3047 21.2614 38.6561C21.6129 39.0077 21.6129 39.5776 21.2614 39.929L17.4427 43.7476C17.0912 44.0991 16.5214 44.0991 16.1699 43.7476Z" fill="black"/>
</svg>
