<svg width="26" height="24" viewBox="0 0 26 24" fill="none" xmlns="http://www.w3.org/2000/svg">
<path d="M12.4928 23.779C1.05874 20.3434 2.15864 7.42453 2.36945 5.62744C2.38462 5.49814 2.46234 5.38446 2.5776 5.32393C3.06152 5.06983 3.54491 4.82183 4.02376 4.58112H4.02435C8.46297 2.3497 12.4929 0.74292 12.4929 0.74292C12.4929 0.74292 17.439 2.71531 22.4079 5.32388C22.5232 5.38441 22.601 5.49814 22.6162 5.62753C22.827 7.42498 23.9267 20.3435 12.4928 23.779Z" fill="#8CEAEA"/>
<path d="M12.4928 23.779C1.05874 20.3435 2.15864 7.42459 2.36945 5.62749C2.38462 5.4982 2.46234 5.38452 2.5776 5.32398C3.06152 5.06988 3.54491 4.82188 4.02376 4.58118H4.02435C4.02435 4.58118 1.19591 18.2267 12.4928 23.779Z" fill="#9DFCFF"/>
<path d="M12.4928 23.779V0.74292C12.4928 0.74292 17.439 2.71531 22.4079 5.32383C22.5232 5.38437 22.601 5.49809 22.6162 5.62749C22.827 7.42498 23.9267 20.3435 12.4928 23.779Z" fill="#82D8D5"/>
<path d="M12.4928 21.412C2.72237 18.4762 4.47115 6.82532 4.47115 6.82532C4.9105 6.59324 5.35045 6.3675 5.78462 6.14926H5.78521C9.30415 4.38201 12.4928 3.11011 12.4928 3.11011C12.4928 3.11011 16.5186 4.7157 20.5144 6.82532C20.5144 6.82532 22.2632 18.4762 12.4928 21.412Z" fill="#FFDA2D"/>
<path d="M12.4928 21.4119C2.72237 18.4761 4.47115 6.82524 4.47115 6.82524C4.9105 6.59315 5.35045 6.36742 5.78462 6.14917H5.78521C5.78521 6.14917 4.03466 16.5622 12.4928 21.4119Z" fill="#FFE571"/>
<path d="M12.4928 21.412L14.365 18.6893C17.0855 14.7328 17.0422 9.49757 14.2567 5.58657L12.4928 3.11011C12.4928 3.11011 16.5186 4.7157 20.5144 6.82532C20.5144 6.82532 22.2632 18.4762 12.4928 21.412Z" fill="#FFCE00"/>
<path d="M17.0486 10.6682L12.4927 15.2246L12.0263 15.6911C11.7826 15.9347 11.4524 16.0716 11.1077 16.0716C10.763 16.0716 10.4328 15.9347 10.1892 15.6911L7.93695 13.4389C7.42948 12.9314 7.42948 12.1087 7.93695 11.6018C8.44442 11.0943 9.26658 11.0943 9.77404 11.6018L11.1077 12.9354L12.4927 11.5504L15.2115 8.83112C15.719 8.3242 16.5411 8.3242 17.0486 8.83112C17.5561 9.33854 17.5561 10.1612 17.0486 10.6682Z" fill="#6B7F9E"/>
<path d="M2.43956 22.4727H2.04656C1.8425 22.4727 1.67715 22.3074 1.67715 22.1033C1.67715 21.8992 1.8425 21.7339 2.04656 21.7339H2.43956C2.64362 21.7339 2.80897 21.8992 2.80897 22.1033C2.80897 22.3074 2.64362 22.4727 2.43956 22.4727Z" fill="#6B7F9E"/>
<path d="M2.43956 20.9443H2.04656C1.8425 20.9443 1.67715 20.7789 1.67715 20.5749C1.67715 20.3708 1.8425 20.2054 2.04656 20.2054H2.43956C2.64362 20.2054 2.80897 20.3708 2.80897 20.5749C2.80897 20.7789 2.64362 20.9443 2.43956 20.9443Z" fill="#6B7F9E"/>
<path d="M2.43956 19.4156H2.04656C1.8425 19.4156 1.67715 19.2502 1.67715 19.0462C1.67715 18.8421 1.8425 18.6768 2.04656 18.6768H2.43956C2.64362 18.6768 2.80897 18.8421 2.80897 19.0462C2.80897 19.2502 2.64362 19.4156 2.43956 19.4156Z" fill="#6B7F9E"/>
<path d="M24.8488 2.8015H24.5142V2.46682C24.5142 2.26276 24.3488 2.09741 24.1447 2.09741C23.9407 2.09741 23.7753 2.26276 23.7753 2.46682V2.8015H23.4407C23.2366 2.8015 23.0712 2.96685 23.0712 3.17091C23.0712 3.37497 23.2366 3.54032 23.4407 3.54032H23.7753V3.87501C23.7753 4.07907 23.9407 4.24441 24.1447 4.24441C24.3488 4.24441 24.5142 4.07907 24.5142 3.87501V3.54032H24.8488C25.0529 3.54032 25.2182 3.37497 25.2182 3.17091C25.2182 2.96685 25.0529 2.8015 24.8488 2.8015Z" fill="#6B7F9E"/>
<path d="M1.77754 3.17113H1.44285V2.83645C1.44285 2.63239 1.27751 2.46704 1.07344 2.46704C0.869383 2.46704 0.704035 2.63239 0.704035 2.83645V3.17113H0.369351C0.16529 3.17113 -5.72205e-05 3.33648 -5.72205e-05 3.54054C-5.72205e-05 3.7446 0.16529 3.90995 0.369351 3.90995H0.704035V4.24463C0.704035 4.4487 0.869383 4.61404 1.07344 4.61404C1.27751 4.61404 1.44285 4.4487 1.44285 4.24463V3.90995H1.77754C1.9816 3.90995 2.14694 3.7446 2.14694 3.54054C2.14694 3.33648 1.98155 3.17113 1.77754 3.17113Z" fill="#6B7F9E"/>
<path d="M4.94247 0.704093H4.60783V0.369409C4.60783 0.165347 4.44249 0 4.23843 0C4.03436 0 3.86902 0.165347 3.86902 0.369409V0.704093H3.53433C3.33027 0.704093 3.16492 0.86944 3.16492 1.0735C3.16492 1.27756 3.33027 1.44291 3.53433 1.44291H3.86902V1.77759C3.86902 1.98165 4.03436 2.147 4.23843 2.147C4.44249 2.147 4.60783 1.98165 4.60783 1.77759V1.44291H4.94247C5.14653 1.44291 5.31188 1.27756 5.31188 1.0735C5.31188 0.86944 5.14648 0.704093 4.94247 0.704093Z" fill="#6B7F9E"/>
</svg>
