<svg width="64" height="73" viewBox="0 0 64 73" fill="none" xmlns="http://www.w3.org/2000/svg">
<path d="M60.2395 55.9846L39.7675 67.8857C35.4082 70.4232 28.3101 70.4232 23.9212 67.8857L3.30733 55.9846C1.10102 54.707 -0.00508871 53.033 0.000826314 51.365V53.731C-0.0110037 55.405 1.09511 57.0789 3.30141 58.3506L23.9094 70.2458C28.2983 72.7833 35.3904 72.7833 39.7557 70.2458L60.2276 58.3447C62.3925 57.0848 63.4809 55.4404 63.4809 53.7902V51.4241C63.4809 53.0744 62.3984 54.7247 60.2335 55.9787L60.2395 55.9846Z" fill="#0184E9"/>
<path d="M60.1862 46.8042C64.5751 49.3417 64.5988 53.4468 60.2394 55.9843L39.7675 67.8853C35.4081 70.4229 28.3101 70.4229 23.9212 67.8853L3.3073 55.9843C-1.08165 53.4468 -1.10531 49.3417 3.25407 46.8042L23.7319 34.9032C28.0913 32.3656 35.1893 32.3656 39.5782 34.9032L60.1862 46.8042Z" fill="#EAEDFF"/>
<path d="M28.7022 18.1153C28.7022 18.1153 28.6625 18.6327 28.5284 19.3937C28.397 20.1548 28.1725 21.1595 27.896 22.1533C27.8289 22.4024 27.755 22.6488 27.6838 22.8939C27.6099 23.1375 27.5346 23.3757 27.4552 23.6056C27.3758 23.8356 27.2937 24.056 27.2129 24.2654C27.1294 24.4735 27.0487 24.6706 26.9679 24.8499C26.8064 25.2099 26.6558 25.507 26.5395 25.7123C26.4833 25.8149 26.4354 25.8957 26.4012 25.9505C26.3684 26.0052 26.3492 26.034 26.3492 26.034C26.1959 26.2543 25.8934 26.3077 25.673 26.1544C25.5649 26.0791 25.4978 25.9669 25.4745 25.8478C25.4745 25.8478 25.4677 25.8136 25.4608 25.7506C25.4526 25.6876 25.4403 25.5946 25.4307 25.4768C25.4074 25.2414 25.391 24.9088 25.3896 24.5146C25.3896 24.3174 25.3951 24.1039 25.4033 23.8808C25.4143 23.6563 25.4293 23.4222 25.4499 23.1799C25.4718 22.9377 25.4992 22.6885 25.5306 22.4367C25.5662 22.1848 25.5977 21.9288 25.6388 21.6742C25.7907 20.6544 25.9933 19.6456 26.1836 18.8969C26.3697 18.1467 26.5449 17.6581 26.5449 17.6581C26.7516 17.0791 27.3881 16.7765 27.9685 16.9832C28.4517 17.1557 28.7419 17.628 28.705 18.1166L28.7022 18.1153Z" fill="#DEAC79"/>
<path d="M35.3009 14.3495C35.3009 14.3495 38.107 17.0187 39.1337 17.9769C39.1337 17.9769 40.4573 19.8481 40.6394 24.0449C40.6394 24.0449 40.5025 29.6571 36.4398 29.6448C36.4398 29.6448 34.8889 29.9638 35.0025 27.044L35.3009 14.3495Z" fill="#85994D"/>
<path d="M40.6394 24.0466C40.5723 22.4971 40.3492 21.2651 40.0946 20.3261C40.1014 20.4274 40.1069 20.5287 40.111 20.6286C40.1521 21.7606 40.0603 22.9296 39.9604 24.0589C39.7729 26.1902 38.7682 28.5624 36.4877 28.8361C36.0907 28.8841 35.7951 29.1674 35.4351 29.1879C35.8594 29.7628 36.4398 29.6451 36.4398 29.6451C40.6394 29.7943 40.6394 24.0452 40.6394 24.0452V24.0466Z" fill="#C1DB6F"/>
<path d="M37.4747 16.1962C37.5719 16.5261 37.6595 16.8587 37.7457 17.1913C37.8319 17.5239 37.91 17.8579 37.9935 18.1906L38.222 19.1939C38.2973 19.5279 38.3685 19.8647 38.4383 20.2C38.5081 20.5354 38.5766 20.8721 38.6409 21.2088C38.708 21.5456 38.7696 21.8823 38.8325 22.2204C38.9571 22.8952 39.0735 23.5715 39.1857 24.249L39.1063 24.0136C39.376 24.6487 39.6415 25.2866 39.8989 25.9272C40.0275 26.2475 40.1562 26.5678 40.2808 26.8909C40.4081 27.2125 40.5313 27.5356 40.6531 27.8586C40.8967 28.5061 41.1349 29.1563 41.3608 29.812C41.4703 30.1418 41.5853 30.4676 41.692 30.7989C41.7988 31.1301 41.9042 31.4614 42.0014 31.7968C42.0698 32.0377 41.9316 32.2882 41.6907 32.3566C41.4977 32.4127 41.2964 32.332 41.1897 32.1732C40.9953 31.883 40.8091 31.5887 40.6257 31.2944C40.4409 31.0001 40.2643 30.7017 40.0837 30.4047C39.7278 29.8092 39.3842 29.2083 39.0461 28.6047C38.8777 28.3021 38.7094 27.9996 38.5465 27.6957C38.3795 27.3932 38.2193 27.0866 38.0564 26.7827C37.7334 26.1722 37.4172 25.559 37.1051 24.943L37.0695 24.8718L37.0271 24.7062C36.8546 24.041 36.6848 23.3757 36.5247 22.7091C36.4453 22.3751 36.3645 22.0411 36.2893 21.7071C36.2112 21.3731 36.1373 21.0377 36.0648 20.7024C35.9922 20.367 35.9197 20.0317 35.8526 19.6949L35.6541 18.6847C35.5939 18.3466 35.5296 18.0099 35.4734 17.6704C35.4173 17.3323 35.3626 16.9928 35.3174 16.652C35.238 16.0456 35.6637 15.4899 36.2701 15.4091C36.8176 15.3366 37.3255 15.6788 37.476 16.1921L37.4747 16.1962Z" fill="#FDC388"/>
<path d="M41.0347 32.0006C41.6959 31.3326 42.7198 32.0704 42.7198 32.0704C42.8416 32.1594 42.9689 32.2415 43.0921 32.3277C43.1249 32.351 43.1578 32.3729 43.1906 32.3962C43.3398 32.4947 43.2865 32.6097 43.2865 32.6097C43.2194 32.7384 43.0729 32.674 43.0729 32.674L42.368 32.3277L42.7677 33.7759C42.7677 33.7759 42.8416 34.0196 42.6965 34.0538C42.6965 34.0538 42.613 34.0976 42.5281 33.8526L42.1284 32.7438C42.1284 32.7438 42.3625 33.7869 42.4665 34.1045C42.4665 34.1045 42.472 34.2605 42.3091 34.2181C42.3091 34.2181 42.216 34.188 42.1681 33.9594C42.1681 33.9594 41.9053 33.0765 41.8903 32.9478C41.8903 32.9478 41.9614 33.7308 42.0545 34.0319C42.0545 34.0319 42.0641 34.1182 41.9642 34.1209C41.9642 34.1209 41.8916 34.1195 41.8492 34.0059C41.8492 34.0059 41.7068 33.5788 41.5795 33.0121L41.6069 33.6637C41.6069 33.6637 41.5919 33.739 41.5207 33.7363C41.5207 33.7363 41.4344 33.7445 41.4153 33.6445L41.2661 32.9779C41.2661 32.9779 40.8937 32.2141 41.032 32.0006H41.0347Z" fill="#FDC388"/>
<path d="M36.7112 51.263L37.2272 52.4539C37.991 53.9788 36.3772 53.9925 36.3772 53.9925C34.2692 54.117 34.662 52.7003 34.662 52.7003L34.8892 51.263C34.8892 51.263 35.7995 51.6121 36.7112 51.263Z" fill="#D1D3D4"/>
<path d="M36.6169 50.9221L37.0987 52.0856C37.8365 53.731 36.3089 53.6461 36.3089 53.6461C34.2461 53.7378 34.7019 52.3265 34.7019 52.3265L34.914 50.9221C34.914 50.9221 35.7655 51.263 36.6155 50.9221H36.6169Z" fill="#A61C3D"/>
<g style="mix-blend-mode:multiply">
<path d="M36.1387 53.2669C35.0039 53.0411 35.1038 51.9282 35.3338 51.0316C35.0792 50.9865 34.9149 50.9221 34.9149 50.9221L34.7028 52.3265C34.7028 52.3265 34.2182 53.7022 36.3016 53.6529C36.3016 53.6529 37.1598 53.6666 37.2844 53.0205C36.9682 53.2505 36.537 53.3477 36.1387 53.2683V53.2669Z" fill="#BCBEC0"/>
</g>
<path d="M35.661 53.5118C36.4125 53.5788 37.3638 53.5213 37.1831 52.5508C37.0544 52.6001 36.8655 52.6508 36.7369 52.6781C36.1099 52.8123 35.3762 52.7589 34.7657 52.6083C34.7657 52.9218 34.9615 53.4502 35.6596 53.5118H35.661Z" fill="#D1D3D4"/>
<path d="M37.408 52.9464C37.4696 53.8251 36.3567 53.8347 36.3567 53.8347C35.0782 53.91 34.7196 53.4186 34.6361 53.0203C34.6607 53.4295 34.9263 54.0756 36.3786 53.9908C36.3786 53.9908 37.6215 53.9798 37.4094 52.9464H37.408Z" fill="#A7A9AC"/>
<path d="M36.4892 52.3745C36.4468 52.3635 36.4016 52.3608 36.3565 52.3608C36.3154 52.3238 36.2688 52.3375 36.2127 52.3293C36.1525 52.3211 36.0936 52.3033 36.0348 52.2828C36.1539 52.2198 36.2743 52.1486 36.366 52.0555C36.3729 52.0487 36.3729 52.0418 36.3756 52.035C36.3893 52.0295 36.4044 52.0227 36.4167 52.0158C36.4646 51.9898 36.4413 51.9186 36.3893 51.9173C36.3578 51.9173 36.3263 51.9173 36.2935 51.92C36.299 51.8995 36.288 51.8776 36.2593 51.8735C36.1936 51.8653 36.1333 51.8475 36.0745 51.8242C36.1908 51.7612 36.3003 51.6928 36.4016 51.6216C36.4071 51.6216 36.4126 51.6216 36.418 51.6216C36.4619 51.6216 36.4865 51.5901 36.4906 51.5559C36.4947 51.5532 36.5002 51.5491 36.5043 51.5463C36.5495 51.5107 36.492 51.4437 36.4454 51.4697C36.4441 51.4697 36.4427 51.471 36.4413 51.4724C36.4345 51.4697 36.4276 51.4683 36.418 51.4683C36.2812 51.4683 36.1457 51.471 36.0088 51.471C36.2798 51.1849 36.5317 50.8578 36.4714 50.4444C36.4646 50.3938 36.3879 50.3623 36.3469 50.3938C36.0895 50.5922 35.8527 50.8318 35.735 51.1261C35.7199 51.0563 35.7049 50.9851 35.6871 50.9153C35.6501 50.7702 35.6104 50.5087 35.4681 50.4211C35.3066 50.3212 35.2559 50.636 35.2628 50.7223C35.2819 50.9728 35.4393 51.2493 35.631 51.4204C35.6337 51.4354 35.6364 51.4505 35.6392 51.4656C35.5502 51.4628 35.4599 51.4573 35.3709 51.4505C35.3408 51.4396 35.3107 51.4272 35.2805 51.4204C35.2586 51.4149 35.2436 51.4286 35.2381 51.4464C35.2025 51.4587 35.2025 51.5189 35.2422 51.5326C35.2956 51.5518 35.3504 51.5655 35.4051 51.5778C35.5242 51.6504 35.6433 51.7243 35.7637 51.7941C35.772 51.7982 35.7802 51.8037 35.7884 51.8078C35.6789 51.8598 35.5694 51.9118 35.4585 51.9638C35.3859 51.9666 35.3148 51.972 35.245 51.9898C35.208 51.9994 35.2094 52.0542 35.245 52.0624C35.2491 52.0624 35.2532 52.0624 35.2573 52.0651C35.245 52.0897 35.2682 52.1253 35.2997 52.1185C35.3202 52.1144 35.3408 52.1089 35.3613 52.1034C35.4859 52.1705 35.6228 52.2458 35.7637 52.3088C35.6939 52.3444 35.6255 52.3813 35.5571 52.4169C35.4941 52.4169 35.4311 52.4196 35.3682 52.421C35.3052 52.4237 35.286 52.5223 35.3531 52.5346C35.375 52.5387 35.3969 52.5401 35.4188 52.5442C35.427 52.5524 35.438 52.5593 35.4517 52.5538C35.4558 52.5538 35.4599 52.551 35.4626 52.5497C35.6186 52.5675 35.7747 52.5647 35.9321 52.5579C36.1032 52.551 36.3537 52.5661 36.5002 52.4675C36.5358 52.4429 36.533 52.3854 36.4879 52.3731L36.4892 52.3745ZM35.412 50.7483C35.3996 50.6949 35.4051 50.6484 35.4202 50.5977C35.4202 50.5936 35.4215 50.5922 35.4229 50.5881C35.4489 50.6333 35.4626 50.6949 35.4749 50.7373C35.5215 50.8838 35.5543 51.033 35.5844 51.1836C35.505 51.0453 35.4421 50.8906 35.4106 50.7483H35.412ZM36.3099 50.6415C36.2757 50.9221 36.0457 51.1617 35.8363 51.3643C35.891 51.0727 36.0827 50.8359 36.3099 50.6415ZM35.7815 51.675C35.8007 51.6723 35.8212 51.6654 35.839 51.6476C35.8445 51.6408 35.8514 51.6353 35.8582 51.6285C35.9581 51.6312 36.0567 51.6285 36.1566 51.6285C36.0745 51.6709 35.9937 51.7106 35.9116 51.7516C35.8678 51.7284 35.8253 51.7024 35.7829 51.6764L35.7815 51.675ZM35.9485 51.8913C35.9937 51.9118 36.0416 51.9296 36.0895 51.9405C36.0074 51.9515 35.9266 51.9611 35.8459 51.9638C35.8267 51.9638 35.8075 51.9638 35.7884 51.9638C35.8431 51.9405 35.8965 51.9159 35.9485 51.8913ZM35.8445 52.0993C35.9335 52.0993 36.0361 52.1007 36.1347 52.0925C36.0594 52.1404 35.9841 52.1897 35.9075 52.2348C35.9006 52.2321 35.8924 52.2294 35.8856 52.2266C35.7966 52.191 35.7049 52.1445 35.6118 52.1021C35.6898 52.1021 35.7679 52.1021 35.8431 52.1007L35.8445 52.0993Z" fill="white"/>
<path d="M29.359 50.2937L29.2372 50.9823L26.683 51.7378C26.683 51.7378 25.4661 51.9254 26.2436 52.6769C26.2436 52.6769 26.9403 53.2572 28.0819 52.8534L30.4623 52.2197L31.0482 52.0623L31.1618 50.3416L29.359 50.2924V50.2937Z" fill="#A61C3D"/>
<g style="mix-blend-mode:multiply">
<path d="M30.3597 50.321C30.5007 50.7467 30.6321 51.2751 30.3747 51.646C30.012 52.1703 29.1921 52.3921 28.5966 52.4988C28.0423 52.5987 27.3058 52.7507 26.7788 52.4838C26.5653 52.3756 26.4462 52.0389 26.386 51.8185C26.0862 51.9321 25.7344 52.1826 26.245 52.6768C26.245 52.6768 26.9417 53.2572 28.0833 52.8534L30.4637 52.2196L31.0496 52.0622L31.1632 50.3415L30.3597 50.3196V50.321Z" fill="#BCBEC0"/>
</g>
<path d="M27.859 52.7123C27.7728 52.7287 27.6852 52.7438 27.6003 52.7588C27.2362 52.8245 26.8269 52.8218 26.482 52.6794C26.2191 52.5699 25.8742 52.2031 26.241 51.9635C26.4833 51.8061 26.7995 51.7377 27.0801 51.6884C27.0829 51.6884 27.0856 51.6857 27.0883 51.6857L27.859 52.7123Z" fill="#D1D3D4"/>
<path d="M27.1361 52.9899C27.351 53.0064 27.6001 52.9899 27.8794 52.916C27.6412 52.9584 27.3852 52.9872 27.1361 52.9899Z" fill="#A61C3D"/>
<path d="M29.5369 50.7576C29.5328 50.7261 29.4972 50.6987 29.4657 50.7001C29.3261 50.7069 29.2084 50.7768 29.1181 50.8739C29.1181 50.633 29.0633 50.3757 28.8607 50.4113C28.6157 50.4551 28.7266 50.7973 28.8443 51.0505C28.8292 51.0587 28.8183 51.0779 28.8292 51.0943C28.8402 51.1121 28.8511 51.1285 28.8621 51.145C28.8361 51.2134 28.8155 51.2832 28.7923 51.3517C28.7019 51.312 28.613 51.2709 28.5267 51.2216C28.5117 51.2093 28.498 51.1984 28.4815 51.1888C28.4528 51.1737 28.4117 51.197 28.4227 51.2312C28.4268 51.2422 28.4323 51.2531 28.4364 51.2641C28.4104 51.3311 28.4008 51.4064 28.383 51.4749C28.383 51.479 28.3803 51.4844 28.3789 51.4885C28.305 51.4502 28.2338 51.4064 28.1626 51.3626C28.1421 51.3393 28.1202 51.3188 28.0955 51.3024C28.0654 51.2819 28.0339 51.3133 28.038 51.3434C28.0408 51.3612 28.0476 51.3777 28.0531 51.3941C28.0298 51.442 28.0216 51.4995 28.0161 51.5556C27.9258 51.5132 27.8272 51.4694 27.7287 51.4598C27.7232 51.4543 27.7164 51.4475 27.7109 51.442C27.6712 51.405 27.5987 51.4502 27.6301 51.5009C27.6356 51.5104 27.6425 51.5187 27.6479 51.5269C27.6342 51.572 27.6315 51.6213 27.626 51.6665C27.6247 51.6843 27.6219 51.7021 27.6192 51.7199C27.6151 51.7185 27.611 51.7171 27.6069 51.7158C27.4823 51.6706 27.366 51.6035 27.24 51.5625C27.2345 51.5611 27.2291 51.5625 27.2236 51.5625C27.1907 51.5625 27.1593 51.5994 27.1907 51.6268C27.3427 51.7568 27.4371 51.9006 27.5179 52.0799C27.5398 52.1292 27.6069 52.1032 27.611 52.058C27.6192 52.0539 27.6274 52.0484 27.6329 52.0374C27.663 51.9786 27.6794 51.9156 27.6931 51.8527C27.7629 51.8787 27.8341 51.9019 27.9053 51.9129C27.9066 51.917 27.9094 51.9197 27.9107 51.9238C27.919 51.943 27.9436 51.9567 27.9628 51.9553C27.9819 51.9553 27.9929 51.9512 28.0066 51.9389C28.0285 51.9197 28.0285 51.8882 28.0189 51.8636C28.0161 51.8568 28.0107 51.8499 28.0079 51.8431C28.0326 51.7938 28.0435 51.7349 28.0545 51.6843C28.1188 51.7267 28.1968 51.7842 28.2584 51.776C28.2749 51.8143 28.2817 51.8362 28.3241 51.8513C28.3447 51.8595 28.3679 51.8485 28.3803 51.8308C28.4008 51.7993 28.3953 51.7596 28.3803 51.7199C28.4035 51.6857 28.42 51.646 28.4309 51.6035C28.5021 51.6364 28.5815 51.6638 28.6581 51.6665C28.6622 51.6774 28.6663 51.687 28.6704 51.698C28.6978 51.7801 28.8101 51.75 28.7991 51.6665C28.7978 51.6542 28.7936 51.6432 28.7909 51.6309C28.806 51.5775 28.8251 51.5228 28.8457 51.468C28.9114 51.5009 28.9784 51.5337 29.0455 51.5666C29.0482 51.5762 29.051 51.5857 29.0551 51.5953C29.0866 51.6884 29.2166 51.6378 29.1797 51.546C29.1536 51.4817 29.1317 51.4037 29.1016 51.3284C29.3617 51.2422 29.5807 51.0505 29.5356 50.7535L29.5369 50.7576ZM27.5726 51.9334C27.5453 51.8746 27.5097 51.8143 27.4659 51.7609C27.4891 51.7705 27.5124 51.7815 27.5357 51.7911C27.5576 51.8006 27.5809 51.8102 27.6041 51.8212C27.5973 51.8595 27.5863 51.8978 27.5726 51.9334ZM27.7123 51.7514C27.7177 51.7171 27.7232 51.6802 27.7273 51.6419C27.7643 51.6911 27.8026 51.7404 27.8368 51.7911C27.7958 51.7774 27.7547 51.7637 27.7136 51.7514H27.7123ZM27.9669 51.7664C27.9285 51.7021 27.8875 51.6391 27.8382 51.5816C27.893 51.6063 27.9491 51.6282 28.0011 51.6542C27.9929 51.6898 27.9792 51.7281 27.9669 51.7678V51.7664ZM28.8429 50.5399C28.936 50.4263 28.9716 50.8164 28.973 50.8425C28.973 50.9013 28.973 50.9615 28.9675 51.0218C28.9579 51.0012 28.9483 50.9807 28.9401 50.9602C28.9073 50.8822 28.7745 50.6221 28.8443 50.5386L28.8429 50.5399ZM28.5473 51.5611C28.5144 51.5515 28.4829 51.5392 28.4514 51.5255C28.4528 51.5173 28.4555 51.5077 28.4569 51.4995C28.4679 51.4516 28.4802 51.4009 28.4857 51.3503C28.5062 51.3777 28.5267 51.4037 28.5445 51.4311C28.576 51.4762 28.5993 51.5228 28.6212 51.5707C28.5897 51.5679 28.5609 51.5666 28.5473 51.5625V51.5611ZM28.8758 51.3886C28.8922 51.338 28.9086 51.2873 28.9182 51.2367C28.9346 51.2654 28.9524 51.2928 28.9661 51.3243C28.9839 51.3654 28.9962 51.4064 29.0099 51.4488C28.9661 51.4283 28.9209 51.4078 28.8758 51.3886ZM29.1071 51.1573C29.1646 51.0314 29.2604 50.9013 29.3918 50.863C29.3781 51.0136 29.2467 51.1066 29.1071 51.1573Z" fill="white"/>
<path d="M31.0481 52.0634L30.4623 52.2208L28.0819 52.8546C26.8212 53.1557 26.2545 52.6671 26.2545 52.6671C26.0957 52.5589 26.0136 52.4001 25.9917 52.2934C25.9534 52.4535 26.0054 52.6602 26.2367 52.9258C26.2367 52.9258 26.7418 53.5828 28.1147 53.2173L30.4541 52.5069L31.0413 52.3167L31.0481 52.0648V52.0634Z" fill="#D1D3D4"/>
<path d="M30.4486 52.3619L28.1093 53.0724C26.7363 53.4378 26.2312 52.7808 26.2312 52.7808C26.0834 52.6111 26.0095 52.466 25.9848 52.3414C25.967 52.4933 26.0286 52.685 26.2381 52.9259C26.2381 52.9259 26.7432 53.5829 28.1161 53.2175L30.4554 52.507L31.0427 52.3168L31.0468 52.173L30.45 52.3619H30.4486Z" fill="#A7A9AC"/>
<path d="M33.2781 12.4056H31.1865V14.4547H33.2781V12.4056Z" fill="#FDC388"/>
<g style="mix-blend-mode:multiply">
<path d="M31.3713 13.8867C31.9449 13.3857 32.799 13.5198 33.2781 12.8751V12.4056H31.1865V14.1125C31.2372 14.0276 31.2974 13.951 31.3713 13.8867Z" fill="#BCBEC0"/>
</g>
<path d="M35.3218 8.29654C35.2478 8.85229 35.471 9.34096 35.82 9.3875C36.1691 9.43404 36.5126 9.02202 36.5866 8.46491C36.6605 7.90916 36.4374 7.42049 36.0869 7.37395C35.7379 7.32741 35.3943 7.73942 35.3204 8.29517L35.3218 8.29654Z" fill="#FDC388"/>
<g style="mix-blend-mode:multiply">
<path d="M35.7515 8.13093C35.7515 8.13093 35.7542 8.09944 35.7652 8.0488C35.7748 7.99678 35.798 7.9256 35.8364 7.84758C35.8747 7.77366 35.939 7.68606 36.0266 7.68058C36.0485 7.67921 36.0704 7.68058 36.0937 7.68743C36.0978 7.68879 36.1211 7.69701 36.1279 7.70111C36.1361 7.70659 36.1444 7.70933 36.1539 7.71754C36.1923 7.74492 36.2237 7.78735 36.2456 7.83663C36.2689 7.88454 36.2853 7.93929 36.2963 7.99267C36.3059 8.04606 36.3141 8.10355 36.3086 8.15146C36.3018 8.20758 36.3018 8.2637 36.2922 8.31298C36.284 8.36226 36.2758 8.4088 36.2689 8.4526C36.258 8.49641 36.2498 8.5361 36.2415 8.57306C36.2347 8.60865 36.2224 8.63876 36.2169 8.66477C36.2018 8.71542 36.195 8.74553 36.195 8.74553C36.195 8.74553 36.2114 8.71953 36.2374 8.67299C36.2498 8.64971 36.2675 8.62097 36.2812 8.58675C36.2963 8.55253 36.3141 8.5142 36.3305 8.4704C36.3469 8.4266 36.3606 8.37732 36.3757 8.3253C36.3921 8.27329 36.3976 8.2199 36.4072 8.16378C36.4168 8.09944 36.414 8.03785 36.4031 7.97351C36.3921 7.91054 36.3743 7.84758 36.3469 7.78735C36.3182 7.72712 36.2758 7.66963 36.2155 7.6272C36.2018 7.61625 36.1827 7.60803 36.1635 7.59982C36.1444 7.59161 36.1389 7.59161 36.1156 7.58476C36.0814 7.57929 36.0458 7.57655 36.0102 7.58203C35.939 7.59298 35.8829 7.63678 35.8473 7.68332C35.8104 7.72986 35.7898 7.77914 35.7748 7.82431C35.7447 7.91465 35.7433 7.99404 35.7433 8.04743C35.7433 8.10218 35.7515 8.13093 35.7515 8.13093Z" fill="#BCBEC0"/>
</g>
<g style="mix-blend-mode:multiply">
<path d="M35.7515 8.13092C35.7515 8.13092 35.7159 8.07206 35.9431 8.05426C35.9431 8.05426 36.2005 8.08848 36.0677 8.36635C36.039 8.42658 36.0157 8.48818 36.0034 8.55388C35.9869 8.64697 36.0348 8.77153 35.9801 8.85503C35.9075 8.96317 35.7036 8.90704 35.6844 8.78522C35.6694 8.69214 35.7761 8.53198 35.8268 8.46491C35.8268 8.46491 35.9774 8.26095 35.7529 8.13365L35.7515 8.13092Z" fill="#BCBEC0"/>
</g>
<g style="mix-blend-mode:multiply">
<path d="M35.6827 8.77117C35.6827 8.77117 35.6758 8.77528 35.6662 8.78623C35.6553 8.79718 35.6443 8.81497 35.6361 8.83824C35.6307 8.85056 35.6293 8.86288 35.6265 8.87794C35.6252 8.893 35.6211 8.90805 35.6265 8.92311C35.6293 8.93954 35.6307 8.95596 35.6348 8.97239C35.6402 8.98882 35.6484 9.0025 35.6567 9.01756C35.6662 9.03125 35.6731 9.04767 35.6854 9.05863C35.6964 9.07095 35.71 9.08053 35.721 9.09011C35.7443 9.11201 35.7703 9.12296 35.7935 9.12844C35.8387 9.14349 35.8716 9.14349 35.8716 9.14349C35.8716 9.14349 35.8565 9.11064 35.8319 9.07642C35.825 9.06821 35.8196 9.05863 35.8113 9.05041C35.8059 9.04083 35.8004 9.02988 35.7935 9.0203C35.7867 9.01072 35.7812 8.99977 35.773 8.99155C35.7648 8.98334 35.7621 8.97102 35.7566 8.96144C35.7415 8.94227 35.7347 8.92174 35.7251 8.90121C35.7196 8.89163 35.7169 8.88068 35.7128 8.8711C35.71 8.86014 35.7046 8.85056 35.7018 8.84098C35.6909 8.80265 35.684 8.76843 35.684 8.76843L35.6827 8.77117Z" fill="#BCBEC0"/>
</g>
<path d="M29.1415 8.2966C29.2154 8.85235 28.9923 9.34102 28.6432 9.38756C28.2942 9.4341 27.9506 9.02208 27.8767 8.46497C27.8028 7.90922 28.0259 7.42055 28.3763 7.37401C28.7254 7.32747 29.0689 7.73949 29.1429 8.29523L29.1415 8.2966Z" fill="#FDC388"/>
<g style="mix-blend-mode:multiply">
<path d="M28.7127 8.13099C28.7127 8.13099 28.7099 8.0995 28.699 8.04886C28.6894 7.99684 28.6661 7.92566 28.6292 7.84764C28.5909 7.77372 28.5265 7.68612 28.4389 7.68064C28.417 7.67927 28.3951 7.68064 28.3718 7.68749C28.3677 7.68886 28.3445 7.69707 28.3376 7.70117C28.3308 7.70665 28.3212 7.70939 28.3116 7.7176C28.2747 7.74498 28.2432 7.78741 28.2199 7.83669C28.1966 7.8846 28.1802 7.93935 28.1692 7.99274C28.1597 8.04612 28.1515 8.10361 28.1569 8.15152C28.1638 8.20764 28.1624 8.26376 28.172 8.31304C28.1802 8.36232 28.1884 8.40886 28.1953 8.45266C28.2062 8.49647 28.2144 8.53616 28.2226 8.57312C28.2295 8.60871 28.2418 8.63883 28.2473 8.66483C28.2623 8.71548 28.2692 8.74559 28.2692 8.74559C28.2692 8.74559 28.2527 8.71959 28.2267 8.67305C28.2144 8.64978 28.1966 8.62103 28.1829 8.58681C28.1679 8.55259 28.1501 8.51426 28.1337 8.47046C28.1172 8.42666 28.1035 8.37738 28.0885 8.32536C28.0721 8.27335 28.068 8.21996 28.057 8.16384C28.0474 8.0995 28.0502 8.03791 28.0611 7.97357C28.0721 7.91061 28.0899 7.84764 28.1172 7.78741C28.146 7.72718 28.1884 7.66969 28.2486 7.62726C28.2623 7.61631 28.2815 7.60809 28.3007 7.59988C28.3198 7.59167 28.3253 7.59167 28.3486 7.58482C28.3828 7.57935 28.4184 7.57661 28.454 7.58209C28.5251 7.59304 28.5813 7.63684 28.6169 7.68338C28.6538 7.72992 28.6743 7.7792 28.6908 7.82437C28.7195 7.91471 28.7223 7.9941 28.7223 8.04749C28.7223 8.10224 28.714 8.13099 28.714 8.13099H28.7127Z" fill="#BCBEC0"/>
</g>
<g style="mix-blend-mode:multiply">
<path d="M28.7131 8.13098C28.7131 8.13098 28.7487 8.07212 28.5228 8.05432C28.5228 8.05432 28.2655 8.08854 28.3969 8.36642C28.4256 8.42664 28.4489 8.48824 28.4612 8.55395C28.4776 8.64703 28.4297 8.77159 28.4845 8.85509C28.557 8.96323 28.761 8.9071 28.7815 8.78528C28.7966 8.6922 28.6898 8.53204 28.6392 8.46497C28.6392 8.46497 28.4886 8.26101 28.7131 8.13371V8.13098Z" fill="#BCBEC0"/>
</g>
<g style="mix-blend-mode:multiply">
<path d="M28.7816 8.77123C28.7816 8.77123 28.7898 8.77534 28.798 8.78629C28.8076 8.79724 28.8199 8.81503 28.8281 8.8383C28.8336 8.85062 28.835 8.86294 28.8377 8.878C28.8391 8.89306 28.8432 8.90812 28.8377 8.92317C28.835 8.9396 28.8336 8.95602 28.8295 8.97245C28.824 8.98888 28.8144 9.00256 28.8076 9.01762C28.798 9.03131 28.7912 9.04774 28.7788 9.05869C28.7679 9.07101 28.7542 9.08059 28.7432 9.09017C28.72 9.11207 28.694 9.12302 28.6707 9.1285C28.6242 9.14355 28.5913 9.14355 28.5913 9.14355C28.5913 9.14355 28.6064 9.1107 28.631 9.07648C28.6365 9.06827 28.6433 9.05869 28.6515 9.05047C28.657 9.04089 28.6625 9.02994 28.6693 9.02036C28.6762 9.01078 28.6817 8.99983 28.6899 8.99161C28.6981 8.9834 28.7008 8.97108 28.7063 8.9615C28.7213 8.94234 28.7282 8.9218 28.7378 8.90127C28.7432 8.89169 28.746 8.88074 28.7501 8.87116C28.7528 8.86021 28.7583 8.85062 28.761 8.84104C28.772 8.80271 28.7788 8.76849 28.7788 8.76849L28.7816 8.77123Z" fill="#BCBEC0"/>
</g>
<path d="M32.2431 2.00391C32.2431 2.00391 32.2348 2.00391 32.2307 2.00391C32.2266 2.00391 32.2225 2.00391 32.2184 2.00391C31.3821 2.05182 27.7341 2.57471 28.6061 8.19651L28.8196 10.5495C28.8196 10.5495 29.0058 11.0779 29.6614 11.5762C29.6614 11.5762 30.7894 12.5248 31.7352 12.945C31.7352 12.945 31.9419 13.0038 32.2198 13.1065V13.1147C32.2198 13.1147 32.228 13.112 32.2321 13.1106C32.2362 13.112 32.2403 13.1134 32.2444 13.1147V13.1065C32.5223 13.0052 32.729 12.945 32.729 12.945C33.6749 12.5248 34.8014 11.5762 34.8014 11.5762C35.4557 11.0779 35.4872 10.5495 35.4872 10.5495L35.8554 8.19651C36.7246 2.57471 33.0767 2.05318 32.2417 2.00801L32.2431 2.00391Z" fill="#FDC388"/>
<g style="mix-blend-mode:multiply">
<path d="M32.2227 13.1106V13.1024C31.9941 13.0011 31.8243 12.9408 31.8243 12.9408C31.0482 12.5206 30.1243 11.572 30.1243 11.572C29.5877 11.0737 29.4344 10.5454 29.4344 10.5454L29.2592 8.19236C28.5433 2.57056 31.5342 2.04767 32.2199 2.00112C32.2199 2.00112 32.2186 1.99976 32.2172 1.99976C31.3808 2.04767 27.7329 2.57056 28.6048 8.19236L28.8184 10.5454C28.8184 10.5454 29.0045 11.0737 29.6602 11.572C29.6602 11.572 30.7881 12.5206 31.734 12.9408C31.734 12.9408 31.9407 12.9997 32.2186 13.1024V13.1106C32.2186 13.1106 32.2199 13.1106 32.2213 13.1106H32.2227Z" fill="#E6E7E8"/>
<path d="M32.2431 2.00397C32.2431 2.00397 32.2417 2.0026 32.2404 2.00397C32.9261 2.05187 35.917 2.5734 35.2039 8.19383L34.9027 10.5469C34.9027 10.5469 34.8767 11.0752 34.3401 11.5735C34.3401 11.5735 33.4162 12.5221 32.6401 12.9423C32.6401 12.9423 32.4703 13.0025 32.2431 13.1038V13.112C32.2431 13.112 32.2445 13.112 32.2458 13.112V13.1038C32.5237 13.0025 32.7304 12.9423 32.7304 12.9423C33.6763 12.5221 34.8028 11.5735 34.8028 11.5735C35.4571 11.0752 35.4886 10.5469 35.4886 10.5469L35.8568 8.19383C36.726 2.57203 33.0781 2.05051 32.2431 2.00533V2.00397Z" fill="#E6E7E8"/>
</g>
<path d="M31.0788 10.2636C31.1007 10.8207 31.6085 11.2656 32.2313 11.2656C32.8541 11.2656 33.362 10.8207 33.3839 10.2636H31.0774H31.0788Z" fill="white"/>
<path d="M33.3851 10.2638C33.3851 10.2638 33.2413 10.2939 33.0251 10.3144C32.9169 10.3254 32.791 10.335 32.6555 10.3418C32.52 10.3487 32.3762 10.35 32.2325 10.3528C31.9437 10.3528 31.6562 10.3377 31.44 10.3158C31.2237 10.2953 31.08 10.2652 31.08 10.2652C31.08 10.2652 31.2237 10.235 31.44 10.2145C31.6562 10.1926 31.9451 10.1776 32.2325 10.1776C32.3762 10.1789 32.5213 10.1803 32.6555 10.1885C32.791 10.1953 32.9169 10.2036 33.0251 10.2159C33.2413 10.2364 33.3851 10.2665 33.3851 10.2665V10.2638Z" fill="#D2A373"/>
<path d="M31.0785 10.2636C31.0785 10.2636 31.0826 10.2759 31.0895 10.3006C31.0963 10.3238 31.1059 10.3608 31.1237 10.4032C31.1374 10.4457 31.1634 10.4936 31.1908 10.5483C31.2223 10.6017 31.2606 10.6578 31.3071 10.7153C31.355 10.7701 31.4112 10.8262 31.4769 10.8768C31.5412 10.9275 31.6165 10.9727 31.6959 11.011C31.7753 11.0521 31.8642 11.0767 31.9532 11.0986C32.0408 11.1205 32.1435 11.1273 32.2256 11.1301C32.3392 11.1273 32.4173 11.1205 32.5103 11.0986C32.5993 11.0767 32.6897 11.0521 32.7677 11.011C32.8471 10.9727 32.9224 10.9275 32.9867 10.8768C33.0524 10.8262 33.1071 10.7701 33.1564 10.7153C33.203 10.6592 33.2413 10.6017 33.2728 10.5483C33.3002 10.4936 33.3262 10.4457 33.3399 10.4019C33.3576 10.3594 33.3659 10.3252 33.3741 10.3006C33.3809 10.2759 33.385 10.2636 33.385 10.2636C33.385 10.2636 33.385 10.2773 33.3891 10.3019C33.3891 10.3266 33.3987 10.3649 33.3932 10.4128C33.3932 10.4607 33.385 10.5196 33.37 10.5867C33.3604 10.6195 33.3508 10.6551 33.3385 10.6907C33.3234 10.7263 33.3084 10.7646 33.2878 10.8016C33.2468 10.8768 33.1961 10.9562 33.1263 11.0261C33.0592 11.0986 32.9785 11.1684 32.884 11.2218C32.7909 11.2793 32.6869 11.3245 32.576 11.3546C32.4693 11.3874 32.3351 11.3984 32.2379 11.4011C32.1093 11.397 32.0011 11.3861 31.8889 11.3532C31.778 11.3231 31.674 11.2765 31.5809 11.2204C31.4865 11.167 31.4057 11.0972 31.3386 11.0247C31.2688 10.9549 31.2182 10.8741 31.1771 10.8002C31.1566 10.7632 31.1415 10.7249 31.1264 10.6893C31.1141 10.6524 31.1045 10.6168 31.095 10.5853C31.0799 10.5182 31.0717 10.4607 31.0717 10.4114C31.0676 10.3635 31.0758 10.3279 31.0772 10.3019C31.0799 10.2773 31.0813 10.2636 31.0813 10.2636H31.0785Z" fill="#D2A373"/>
<path d="M32.0433 7.22748C32.0365 7.4287 32.016 7.62718 32.0009 7.8284C31.9831 8.02825 31.9598 8.22673 31.9366 8.42658C31.8914 8.82491 31.823 9.2205 31.7586 9.61609L31.7025 9.52438C31.7176 9.52986 31.7422 9.53396 31.7614 9.53944L31.8257 9.55176C31.8681 9.55997 31.9133 9.56408 31.9571 9.57366C32.0461 9.58598 32.1351 9.59556 32.2254 9.60377C32.3157 9.61472 32.4061 9.61609 32.4978 9.62567C32.5895 9.63389 32.6812 9.63526 32.7743 9.64621C32.7291 9.65853 32.684 9.66811 32.6388 9.67632C32.5936 9.68453 32.5471 9.69548 32.5019 9.70233C32.4102 9.71191 32.3171 9.72697 32.224 9.72697C32.1775 9.72697 32.131 9.73107 32.083 9.7297L31.9421 9.72423C31.8955 9.72012 31.8476 9.71465 31.8011 9.7078L31.7299 9.69548C31.7052 9.69001 31.6833 9.6859 31.656 9.67769L31.5875 9.65852L31.5998 9.58598L31.7025 8.99601C31.7422 8.80027 31.7737 8.60316 31.8106 8.40604L31.9229 7.81608C31.964 7.62033 32.0009 7.42322 32.0461 7.22748H32.0433Z" fill="#D2A373"/>
<path d="M36.8601 16.8926C37.1339 15.7483 36.2442 15.1939 36.2442 15.1939L33.1889 13.9797H31.2753L28.2201 15.1939C28.2201 15.1939 27.3303 15.7483 27.6041 16.8926L28.8251 25.493C28.8251 25.493 28.8826 25.9228 28.836 26.9494H35.635C35.5433 26.2417 35.6405 25.493 35.6405 25.493L36.8601 16.8926Z" fill="#FDC388"/>
<path d="M36.7519 51.2847H34.9053L33.2586 39.948L32.1553 32.3551L31.2013 48.7236C31.2013 48.7236 31.1848 49.5792 31.063 50.9713H29.1959L28.2035 32.8657C28.2035 32.8657 28.172 31.9691 28.1187 30.473V26.9482H36.2577V30.473L36.7519 51.2847Z" fill="#00586A"/>
<path d="M31.3028 49.9677H28.884V50.9711H31.3028V49.9677Z" fill="#067A90"/>
<path d="M37.0917 50.2581H34.673V51.2615H37.0917V50.2581Z" fill="#067A90"/>
<path d="M32.9445 6.60461C32.9445 6.60461 32.8775 6.86742 33.0664 6.99883C33.0664 6.99883 33.7535 6.82909 34.4913 6.99883C34.4913 6.99883 34.8883 7.08096 34.9992 7.33556C34.9992 7.33556 35.0142 6.6443 34.1943 6.45814C34.1943 6.45814 33.1841 6.38559 32.9459 6.60324L32.9445 6.60461Z" fill="#3C2415"/>
<path d="M34.1505 7.75048C34.1505 7.94349 33.9944 8.09953 33.8014 8.09953C33.6084 8.09953 33.4524 7.94349 33.4524 7.75048C33.4524 7.55748 33.6084 7.40143 33.8014 7.40143C33.9944 7.40143 34.1505 7.55748 34.1505 7.75048Z" fill="#4A2405"/>
<path d="M33.9626 7.75073C33.9626 7.8397 33.8901 7.91088 33.8025 7.91088C33.7149 7.91088 33.6423 7.83833 33.6423 7.75073C33.6423 7.66312 33.7149 7.59058 33.8025 7.59058C33.8901 7.59058 33.9626 7.66312 33.9626 7.75073Z" fill="#230000"/>
<path d="M34.0885 7.65615C34.0885 7.72596 34.0324 7.78208 33.9626 7.78208C33.8928 7.78208 33.8367 7.72596 33.8367 7.65615C33.8367 7.58633 33.8928 7.53021 33.9626 7.53021C34.0324 7.53021 34.0885 7.58633 34.0885 7.65615Z" fill="white"/>
<path d="M33.8329 7.56998C33.8329 7.61241 33.7987 7.64526 33.7577 7.64526C33.7166 7.64526 33.6824 7.61104 33.6824 7.56998C33.6824 7.52891 33.7166 7.49469 33.7577 7.49469C33.7987 7.49469 33.8329 7.52891 33.8329 7.56998Z" fill="white"/>
<path d="M31.5192 6.59356C31.5192 6.59356 31.5863 6.85637 31.3974 6.98778C31.3974 6.98778 30.7103 6.81805 29.9725 6.98778C29.9725 6.98778 29.5755 7.06991 29.4646 7.32452C29.4646 7.32452 29.4496 6.63325 30.2695 6.44709C30.2695 6.44709 31.2797 6.37455 31.5179 6.59219L31.5192 6.59356Z" fill="#3C2415"/>
<path d="M30.3137 7.74096C30.3137 7.93396 30.4698 8.09001 30.6628 8.09001C30.8558 8.09001 31.0118 7.93396 31.0118 7.74096C31.0118 7.54795 30.8558 7.39191 30.6628 7.39191C30.4698 7.39191 30.3137 7.54795 30.3137 7.74096Z" fill="#4A2405"/>
<path d="M30.5009 7.74102C30.5009 7.83 30.5734 7.90118 30.661 7.90118C30.7486 7.90118 30.8212 7.82863 30.8212 7.74102C30.8212 7.65342 30.7486 7.58087 30.661 7.58087C30.5734 7.58087 30.5009 7.65342 30.5009 7.74102Z" fill="#230000"/>
<path d="M30.3754 7.64522C30.3754 7.71503 30.4315 7.77115 30.5013 7.77115C30.5711 7.77115 30.6272 7.71503 30.6272 7.64522C30.6272 7.57541 30.5711 7.51929 30.5013 7.51929C30.4315 7.51929 30.3754 7.57541 30.3754 7.64522Z" fill="white"/>
<path d="M30.631 7.55893C30.631 7.60136 30.6652 7.63421 30.7063 7.63421C30.7473 7.63421 30.7816 7.59999 30.7816 7.55893C30.7816 7.51786 30.7473 7.48364 30.7063 7.48364C30.6652 7.48364 30.631 7.51786 30.631 7.55893Z" fill="white"/>
<path d="M31.856 11.6461C31.856 11.6461 31.9025 11.642 31.9737 11.6392C32.0449 11.6379 32.1379 11.6351 32.2324 11.6324C32.3268 11.6351 32.4213 11.6365 32.4911 11.6392C32.5623 11.642 32.6088 11.6461 32.6088 11.6461V11.6734C32.6088 11.6734 32.5623 11.7515 32.4911 11.8062C32.4555 11.8363 32.4144 11.861 32.3706 11.8774C32.3487 11.8829 32.3255 11.8966 32.3022 11.8966L32.2324 11.9048L32.1626 11.8966C32.1393 11.8966 32.116 11.8829 32.0941 11.876C32.0503 11.8596 32.0093 11.835 31.9737 11.8049C31.9025 11.7501 31.856 11.6734 31.856 11.6734V11.6461Z" fill="#D2A373"/>
<path d="M36.4004 3.78209C36.5605 5.19609 36.2867 7.45466 36.2867 7.45466C35.7844 7.36295 35.8254 8.46212 35.8254 8.46212L35.5804 8.47034L35.7173 7.06728C35.7748 6.29116 35.3067 6.17754 35.3067 6.17754C35.7693 5.60263 35.3915 4.01479 35.3915 4.01479C33.1097 5.47533 30.6061 3.80536 30.6061 3.80536C28.6445 3.98741 29.214 5.79016 29.214 5.79016C28.6432 5.81343 28.6897 7.05633 28.6897 7.05633L28.8376 8.47034L28.6391 8.46212C28.4748 7.1193 28.2106 7.45466 28.2106 7.45466C27.9136 6.40477 27.982 5.2878 27.982 5.2878C28.0737 2.48169 30.1954 2.09431 30.1954 2.09431C30.1954 2.09431 30.0531 0.365478 33.3834 0.41065C33.3834 0.41065 34.5702 0.776128 35.5284 0C35.5284 0 35.9842 0.913012 35.2998 1.50572C35.2998 1.50572 36.3949 1.77948 36.6235 0.958183C36.6235 0.958183 38.3112 2.69249 36.3045 3.96962" fill="#3C2415"/>
<path d="M36.2442 15.1941L33.4449 14.0826C33.1944 14.4536 32.7755 14.715 32.1897 14.715C31.6038 14.715 31.2041 14.4673 30.9522 14.1086L28.2201 15.1941C28.2201 15.1941 27.3303 15.7485 27.6041 16.8929L27.6191 30.8016H36.6315L36.8601 16.8929C37.1339 15.7485 36.2442 15.1941 36.2442 15.1941Z" fill="#FC4B55"/>
<path d="M34.1542 14.5807C34.1843 14.5191 34.2158 14.4602 34.2514 14.4014L33.4451 14.0811C33.1946 14.452 32.7758 14.7135 32.1899 14.7135C31.6041 14.7135 31.2044 14.4657 30.9525 14.1071L30.2037 14.4041C30.6445 15.0694 31.3987 15.517 32.2433 15.517C33.0098 15.517 33.7025 15.1474 34.1542 14.5807Z" fill="#DD343E"/>
<path d="M28.2229 15.1996C28.7472 16.5684 27.8821 21.2526 27.8821 21.2526L25.566 21.2676L25.8289 17.3856C25.8289 17.3856 25.7604 16.359 26.3764 15.9826L28.2229 15.1996Z" fill="#DD343E"/>
<path d="M36.1826 15.1777C35.6583 16.5465 36.5235 21.2307 36.5235 21.2307L38.8395 21.2457L38.5767 17.3637C38.5767 17.3637 38.6451 16.3371 38.0292 15.9606L36.1826 15.1777Z" fill="#DD343E"/>
<path d="M34.5484 14.5548C34.5484 14.5548 34.7537 14.1442 35.3013 14.3495L35.8488 14.5548C35.8488 14.5548 36.3115 14.5671 36.1828 15.1763C36.1828 15.1763 35.3013 19.3457 36.807 25.3001C36.807 25.3001 37.0123 26.3268 36.6701 27.5587C36.6701 27.5587 34.0009 25.3686 34.5484 14.5548Z" fill="#C1DB6F"/>
<path d="M24.6706 26.1914L20.5846 20.2658C20.4436 20.0618 20.4956 19.7812 20.6996 19.6402C20.8803 19.5156 21.1212 19.5417 21.2718 19.6922L26.3666 24.7774C26.8005 25.21 26.8005 25.9122 26.3679 26.3448C25.9354 26.7773 25.2332 26.7787 24.8006 26.3461C24.7541 26.2996 24.7075 26.2435 24.6706 26.1914Z" fill="#FDC388"/>
<path d="M24.6776 21.0007C24.6776 21.0349 24.6502 21.0623 24.616 21.0623H22.4943C22.4601 21.0623 22.3505 21.0623 22.2889 20.9993L19.0955 18.3301C19.0955 18.2959 19.1228 18.2672 19.1571 18.2672H21.2651C21.2993 18.2672 21.3978 18.2672 21.4841 18.3301L24.6776 20.9993V21.0007Z" fill="black"/>
<path d="M24.3956 21.0006C24.3956 21.0348 24.3682 21.0622 24.3326 21.0622H22.2109C22.1767 21.0622 22.0672 21.0622 22.0056 20.9992L18.8135 18.33C18.8135 18.2958 18.8409 18.267 18.8764 18.267H20.9844C21.0187 18.267 21.1172 18.267 21.2035 18.33L24.3969 20.9992L24.3956 21.0006Z" fill="#000E1D"/>
<path d="M21.558 19.5578C21.324 19.6837 20.7915 19.8548 20.53 19.9342C20.5273 19.9288 20.5246 19.9233 20.5205 19.9178C20.8216 19.7768 21.4513 19.4469 21.4513 19.4469C21.6977 19.3443 21.7113 19.2334 21.7113 19.2334C21.7223 19.0417 21.5498 19.0828 21.5498 19.0828C21.324 19.2087 20.7381 19.4743 20.3849 19.6331C20.3808 19.6208 20.3754 19.6098 20.3713 19.5975L21.2542 19.0691C21.5088 18.9213 21.4417 18.8364 21.4417 18.8364C21.3719 18.6817 21.1145 18.8173 21.1145 18.8173L20.296 19.2252C20.2248 19.2389 19.8826 19.3757 19.899 19.6194C19.899 19.6194 20.1495 20.9882 20.9147 20.5201C20.9147 20.5201 20.9119 20.516 20.9092 20.5119L21.2624 20.3572C21.3705 20.312 21.3418 20.2176 21.3418 20.2176C21.3308 20.1368 21.2418 20.1368 21.2418 20.1368L20.7299 20.26C20.723 20.2491 20.7148 20.2381 20.7066 20.2258C21.2145 19.9931 21.5717 19.7919 21.5717 19.7919C21.6894 19.7193 21.6758 19.6386 21.6758 19.6386C21.6497 19.5263 21.5553 19.5564 21.5553 19.5564L21.558 19.5578Z" fill="#FDC388"/>
</svg>
