<svg width="64" height="67" viewBox="0 0 64 67" fill="none" xmlns="http://www.w3.org/2000/svg">
<path d="M60.2395 49.9846L39.7675 61.8857C35.4082 64.4232 28.3101 64.4232 23.9212 61.8857L3.30733 49.9846C1.10102 48.707 -0.00508871 47.033 0.000826314 45.365V47.731C-0.0110037 49.405 1.09511 51.0789 3.30141 52.3506L23.9094 64.2458C28.2983 66.7833 35.3904 66.7833 39.7557 64.2458L60.2276 52.3447C62.3925 51.0848 63.4809 49.4404 63.4809 47.7902V45.4241C63.4809 47.0744 62.3984 48.7247 60.2335 49.9787L60.2395 49.9846Z" fill="#0184E9"/>
<path d="M60.1862 40.8042C64.5751 43.3417 64.5988 47.4468 60.2394 49.9843L39.7675 61.8853C35.4081 64.4229 28.3101 64.4229 23.9212 61.8853L3.3073 49.9843C-1.08165 47.4468 -1.10531 43.3417 3.25407 40.8042L23.7319 28.9032C28.0913 26.3656 35.1893 26.3656 39.5782 28.9032L60.1862 40.8042Z" fill="#EAEDFF"/>
<path d="M26.3581 37.4756L27.3183 49.0604L29.5687 48.8507L29.5923 38.333L26.3581 37.4756Z" fill="#FFB27D"/>
<path d="M32.3581 37.4756L33.3183 49.0604L35.5687 48.8507L35.5923 38.333L32.3581 37.4756Z" fill="#FFB27D"/>
<path d="M28.7313 11.4254C28.7313 11.4254 25.6988 10.1611 23.2789 11.4886C20.859 12.8162 18.691 24.5895 26.1048 26.0864C26.1048 26.0864 33.0622 33.996 28.7313 11.4254Z" fill="#233862"/>
<path d="M37.0248 29.979L36.8397 29.2815C36.8397 29.2815 35.9505 29.1882 35.9402 29.2065L36.0194 31.314C36.0194 31.314 36.4779 31.208 36.6454 31.0076L36.9713 30.4419C37.0515 30.309 37.0258 29.9801 37.0258 29.9801L37.0248 29.979Z" fill="#FFB27D"/>
<path d="M34.7189 11.9367C34.7189 11.9367 35.8054 11.8777 36.414 13.3714C37.6753 16.4647 37.1274 23.1432 37.0514 24.0989C37.0514 24.0989 37.4841 25.9976 36.8406 29.2806L36.0378 29.2345C36.0378 29.2345 34.7106 16.8247 34.869 15.5432C35.0273 14.2617 34.7199 11.9377 34.7199 11.9377L34.7189 11.9367Z" fill="white"/>
<path d="M26.5173 48.0767L26.9311 50H30.4262C30.4262 50 31.4667 47.5396 26.5173 48.0767Z" fill="#233862"/>
<path d="M33.1044 48.4544L33.5156 50.0005H36.9891C36.9891 50.0005 38.0232 48.0225 33.1044 48.4544Z" fill="#233862"/>
<path d="M33.256 11.8316L29.9984 13.5663L29.5697 11.3205C29.5697 11.3205 29.8719 10.459 29.9943 9.10147C30.0467 8.52395 30.0672 7.85535 30.0158 7.12354L32.6711 8.54002C32.6711 8.54002 32.6105 8.78539 32.5683 9.15076C32.5334 9.45077 32.5118 9.83222 32.5478 10.2244C32.6012 10.8169 32.7862 11.4341 33.2571 11.8327L33.256 11.8316Z" fill="#FFB27D"/>
<path d="M35.9332 25.6846L29.3439 26.2268C29.3439 26.2268 26.1874 28.3411 30.5172 39.0001H36.0172L35.9332 25.6857V25.6846Z" fill="#233862"/>
<path d="M25.3061 26C25.3061 26 23.8677 30.0099 24.8757 39L28.0173 39.5L31.0173 39L32.2285 28.0743C32.3198 27.7551 33.4728 27.3101 33.4728 27.3101L33.5173 26.0778L25.305 26H25.3061Z" fill="#2B478B"/>
<path d="M25.7422 17.282L26.1205 20.0839L25.0761 25.6834C24.9835 26.1805 25.3289 26.6499 25.8142 26.6841C27.7982 26.8256 32.5916 27.0324 35.8472 26.0723C36.281 25.9448 36.5689 25.5173 36.5339 25.0491L35.9613 17.5584L35.7598 14.9237L35.5532 12.2161C35.5532 12.2161 34.5612 11.5775 32.8373 11.3224C32.863 11.7393 32.7294 12.1207 31.906 12.2139C30.9397 12.3296 30.2129 11.8732 29.6773 11.4457C29.6639 11.4221 29.5951 11.346 29.5683 11.3235C28.9803 11.3814 28.3029 11.4885 27.7221 11.6096C27.6306 11.6289 25.5592 15.9191 25.5592 15.9191L25.7422 17.2852V17.282Z" fill="#FF445B"/>
<path d="M25.0762 25.6824C25.0762 25.6824 34.2972 20.7633 29.7679 12.7326C29.551 12.3479 29.1881 11.644 28.7307 11.4265C28.3072 11.4672 28.2208 11.4897 27.8775 11.5754C28.3473 11.7115 29.0257 12.8612 29.3855 13.9048C30.0578 15.8559 31.7211 19.5493 25.1965 24.4138L25.0762 25.6835V25.6824Z" fill="#2B478B"/>
<path d="M28.0691 19.8376C28.1709 19.8301 29.0282 19.8633 29.0282 19.8633C29.0282 19.8633 29.4538 18.1907 30.636 18.1907C30.636 18.1907 31.1891 18.1339 31.0194 18.6011C30.9475 18.7982 30.8303 18.7275 30.6514 19.4068C30.4715 20.0851 30.2762 20.2619 29.6718 20.6197L29.1609 20.7633C29.1609 20.7633 27.8019 19.8579 28.0702 19.8376H28.0691Z" fill="#FFB27D"/>
<path d="M32.5661 10.4762C31.569 10.608 30.0301 9.13047 29.9921 9.10046C29.9921 9.10046 31.8363 9.11546 32.5661 9.14868C32.5312 9.44869 32.5301 10.0841 32.5661 10.4762Z" fill="#ED975D"/>
<path d="M33.6067 9.83332C33.6067 9.83332 29.0723 10.4098 28.9746 7.07964C28.878 3.7495 30.7685 1.59263 32.0298 1.61727C34.5452 1.66656 34.9606 2.72625 35.2525 3.82986C35.5444 4.93348 35.6945 9.59974 33.6067 9.83439V9.83332Z" fill="#FFB27D"/>
<path d="M32.7074 8.00656C32.7074 8.00656 32.7907 8.35479 33.6223 8.2905C33.6223 8.2905 34.3213 8.23692 34.2956 7.85334C34.2956 7.85334 33.6141 7.58868 32.7074 8.00656Z" fill="white"/>
<path d="M29.9625 9.10037C29.9625 9.10037 29.576 7.91425 29.6253 7.24887C29.6253 7.24887 28.7186 6.04346 29.247 5.74559C29.7754 5.44773 30.0602 6.16025 30.1815 6.01989C30.3028 5.87953 30.4919 3.51158 31.1334 3.58658C31.7748 3.66158 34.6799 4.52305 35.7202 3.58765C36.7605 2.65226 33.7054 -1.0979 29.4269 0.314305C25.1485 1.72543 26.0007 6.62313 29.9635 9.0993L29.9625 9.10037Z" fill="#2C3A64"/>
<path d="M27.3155 2.25995C27.3155 2.25995 27.1212 1.65778 27.3298 1.22705C27.3298 1.22705 27.3401 1.81957 27.5632 2.08316C27.7863 2.34674 27.3155 2.25995 27.3155 2.25995Z" fill="#2C3A64"/>
<path d="M27.4049 1.83901C27.4049 1.83901 26.8755 1.77686 26.6257 2.20116C26.6257 2.20116 26.9988 1.93865 27.3751 2.21723L27.4049 1.84008V1.83901Z" fill="#2C3A64"/>
<path d="M27.7214 11.6066C27.7214 11.6066 26.9463 11.5616 25.5585 13.9746C24.8174 15.2636 21.6553 21.387 23.2836 22.0524C24.9109 22.7178 28.1881 22.0481 29.028 21.1213L28.553 19.6962C28.553 19.6962 26.2822 19.8034 26.2956 19.677C26.309 19.5505 26.8045 18.3387 27.4531 17.3861C29.6705 14.1267 27.7224 11.6066 27.7224 11.6066H27.7214Z" fill="white"/>
<path d="M31.9059 12.212C31.9059 12.212 30.3105 11.4631 29.7502 10.6541C29.7502 10.6541 29.1715 11.0034 29.118 11.4331C29.0635 11.8627 31.0702 12.6106 31.9069 12.212H31.9059Z" fill="white"/>
<path d="M32.6532 10.8274C32.6532 10.8274 32.5422 11.9942 31.9059 12.2106C31.9059 12.2106 33.0685 12.2974 33.4581 11.4263C33.4581 11.4263 33.0562 10.8156 32.6532 10.8274Z" fill="white"/>
<path d="M32.7635 16.7634C32.7635 16.9017 32.6751 17.0131 32.5661 17.0131C32.4572 17.0131 32.3688 16.9017 32.3688 16.7634C32.3688 16.6252 32.4572 16.5138 32.5661 16.5138C32.6751 16.5138 32.7635 16.6252 32.7635 16.7634Z" fill="#ED7D2B"/>
<path d="M32.7635 20.1139C32.7635 20.2521 32.6751 20.3636 32.5661 20.3636C32.4572 20.3636 32.3688 20.2521 32.3688 20.1139C32.3688 19.9757 32.4572 19.8643 32.5661 19.8643C32.6751 19.8643 32.7635 19.9757 32.7635 20.1139Z" fill="#ED7D2B"/>
<path d="M32.7635 23.7282C32.7635 23.8664 32.6751 23.9778 32.5661 23.9778C32.4572 23.9778 32.3688 23.8664 32.3688 23.7282C32.3688 23.5899 32.4572 23.4785 32.5661 23.4785C32.6751 23.4785 32.7635 23.5899 32.7635 23.7282Z" fill="#ED7D2B"/>
<path d="M36.84 29.2805L37.0528 28.6472L36.0176 28.5829L36.0371 29.2344L36.84 29.2805Z" fill="white"/>
<path d="M28.9962 19.5483C28.9962 19.5483 29.1617 18.7425 29.1257 18.5539C29.0898 18.3654 29.4423 18.5079 29.4413 18.899C29.4413 19.0222 29.3416 19.139 29.3416 19.139L29.1566 19.9115L28.9952 19.5483H28.9962Z" fill="#FFB27D"/>
<path d="M28.9968 19.5485L28.0706 19.7585L28.2392 20.9296H28.9269L28.5342 21.5125L28.71 21.5896L29.6712 20.6199C29.6712 20.6199 29.1572 20.0606 28.9968 19.5485Z" fill="#D7E9FF"/>
</svg>
