<svg width="64" height="73" viewBox="0 0 64 73" fill="none" xmlns="http://www.w3.org/2000/svg">
<path d="M60.2395 55.9846L39.7675 67.8857C35.4082 70.4232 28.3101 70.4232 23.9212 67.8857L3.30733 55.9846C1.10102 54.707 -0.00508871 53.033 0.000826314 51.365V53.731C-0.0110037 55.405 1.09511 57.0789 3.30141 58.3506L23.9094 70.2458C28.2983 72.7833 35.3904 72.7833 39.7557 70.2458L60.2276 58.3447C62.3925 57.0848 63.4809 55.4404 63.4809 53.7902V51.4241C63.4809 53.0744 62.3984 54.7247 60.2335 55.9787L60.2395 55.9846Z" fill="#0184E9"/>
<path d="M60.1862 46.8042C64.5751 49.3417 64.5988 53.4468 60.2394 55.9843L39.7675 67.8853C35.4081 70.4229 28.3101 70.4229 23.9212 67.8853L3.3073 55.9843C-1.08165 53.4468 -1.10531 49.3417 3.25407 46.8042L23.7319 34.9032C28.0913 32.3656 35.1893 32.3656 39.5782 34.9032L60.1862 46.8042Z" fill="#EAEDFF"/>
<path d="M24.8563 14.0062C24.8563 14.0062 25.4713 12.1969 25.8374 12.0228C26.2035 11.8487 27.4954 11.9918 28.3497 12.3742L27.6077 12.8314C27.6077 12.8314 26.5761 12.5792 26.3874 12.6443C26.1986 12.7094 25.8439 13.645 25.8439 13.645L24.8579 14.0062H24.8563Z" fill="#2B3152"/>
<path d="M22.7589 20.1305C22.7589 20.1305 21.729 20.835 21.4166 21.5005C21.1041 22.1644 20.9154 25.2705 21.0374 26.2598C21.1595 27.2491 21.6346 27.6021 22.3668 27.6705L22.7605 20.1321L22.7589 20.1305Z" fill="#FFA500"/>
<path d="M27.0171 13.0055C27.0171 13.0055 24.8401 13.7377 24.0883 14.3267C23.3366 14.9158 23.1739 15.7391 22.868 17.4231C22.5621 19.1072 22.1879 21.5495 21.9731 24.1919C21.8202 26.063 21.9536 26.8668 21.9731 27.2931C21.9926 27.7194 22.5117 28.1067 23.1316 28.3198C23.7515 28.533 25.46 28.8275 26.4167 28.5834L27.637 14.509L27.0171 13.0039V13.0055Z" fill="#E82658"/>
<path d="M26.4785 22.9306C26.4785 22.9306 25.8277 22.981 25.5641 23.0738C25.3005 23.1665 23.0632 24.2225 22.9607 24.5187C22.8582 24.8148 22.4824 26.6534 22.6158 27.4068C22.7492 28.1601 22.8501 28.3212 23.2861 28.5051C23.7238 28.6873 25.2989 28.8728 26.3565 28.6792L26.4785 22.9322V22.9306Z" fill="#2B3152"/>
<path d="M26.1725 13.4561C26.1725 13.4561 25.4452 13.9882 25.1735 14.7074C24.9018 15.4265 24.5096 17.0943 24.0622 17.7305C23.6147 18.3667 22.8695 19.9548 22.8695 19.9548L26.9096 19.2226L26.1725 13.4561Z" fill="#FF4D57"/>
<path d="M37.6534 29.1594C37.6534 29.1594 37.4956 29.5776 37.3263 29.7907C37.1571 30.0055 36.996 30.0641 36.9326 30.2772C36.8691 30.4904 36.778 30.6596 36.7682 30.7849C36.7569 30.9086 36.7341 31.0745 36.6885 31.1559C36.643 31.2372 36.7341 31.4048 37.0042 31.247C37.2759 31.0892 37.2303 30.9037 37.3149 30.7621C37.3996 30.6206 37.7266 30.5132 37.7559 30.5864C37.7836 30.6596 37.7331 31.439 37.6941 31.6424C37.655 31.8458 37.6257 32.2298 37.4321 32.3404C37.2368 32.4494 36.7585 32.7146 36.6788 32.7944C36.599 32.8741 36.407 33.1946 36.503 33.3134C36.599 33.4322 36.8529 33.2467 37.175 33.1328C37.4972 33.0205 37.847 32.9799 37.9935 32.8172C38.1399 32.6528 38.6768 32.0052 38.8623 31.7107C39.0478 31.4178 39.1503 31.4178 39.1552 31.0957C39.1601 30.7735 39.2284 29.9372 39.217 29.6752C39.2056 29.4133 39.217 29.1594 39.217 29.1594H37.6518H37.6534Z" fill="#FFB27D"/>
<path d="M36.6624 13.7247C36.6624 13.7247 38.244 22.6868 38.794 24.802C39.3439 26.9172 39.6889 29.0325 39.6693 29.174C39.6498 29.3156 38.5499 29.519 37.0464 29.174C37.0464 29.174 35.8456 20.4088 35.8668 18.5376C35.8879 16.6665 36.6641 13.7247 36.6641 13.7247H36.6624Z" fill="#FB5D66"/>
<path d="M33.5498 11.5558V10.0101H30.2061V11.4566L28.8979 12.4751V15.7H35.3461V12.5581L33.5498 11.5558Z" fill="#FFB27D"/>
<path style="mix-blend-mode:multiply" d="M30.2061 11.5181C30.6861 11.9493 31.2719 12.2926 31.8788 12.2926C32.4857 12.2926 33.0698 11.9493 33.5514 11.5181V10.0082H30.2061V11.5181Z" fill="url(#paint0_linear_32_17153)"/>
<path d="M37.2222 48.2828C37.11 47.8288 37.2108 43.5674 37.1588 41.8085C37.1067 40.0513 37.5037 33.9496 37.5721 32.3925C37.6404 30.8354 37.5721 28.8031 37.5721 28.8031H26.1758C26.1758 28.8031 26.1075 30.8354 26.1758 32.3925C26.2442 33.9496 26.6412 40.0513 26.5891 41.8085C26.537 43.5658 26.6379 47.8272 26.5257 48.2828C26.4134 48.7367 26.0294 49.1207 26.0408 49.3469C26.0522 49.5731 26.594 49.9864 26.594 49.9864C26.594 49.9864 27.196 50.1588 28.4977 50.1588C29.7994 50.1588 30.3412 49.9864 30.3412 49.9864C30.3412 49.9864 30.7366 49.6284 30.7366 49.4152C30.7366 49.2021 30.3754 48.5285 30.3412 48.2828C30.307 48.0371 30.8993 45.5541 30.8993 43.9124C30.8993 42.2706 31.3956 40.7737 31.5306 39.7926C31.6608 38.8505 32.4272 35.7183 32.4727 34.5045C32.5183 35.7183 32.4792 38.6194 32.6094 39.5615C32.7444 40.5426 32.8469 42.2706 32.8469 43.9124C32.8469 45.5541 33.4392 48.0387 33.405 48.2828C33.3709 48.5285 33.0097 49.2005 33.0097 49.4152C33.0097 49.63 33.405 49.9864 33.405 49.9864C33.405 49.9864 33.9469 50.1588 35.2486 50.1588C36.5502 50.1588 37.1523 49.9864 37.1523 49.9864C37.1523 49.9864 37.6941 49.5731 37.7055 49.3469C37.7169 49.1207 37.3329 48.7367 37.2206 48.2828H37.2222Z" fill="#35488B"/>
<path d="M31.8771 28.803H30.1361L26.1595 29.4929C26.1465 30.1486 26.1367 31.1672 26.166 32.0865C27.2171 32.3501 29.6968 32.9358 31.005 32.9358C32.6939 32.9358 32.484 31.8164 32.4759 31.6748C32.4759 31.6748 34.4837 31.5804 35.0516 31.4112C35.0516 31.4112 35.377 32.8349 35.5804 32.8349C35.7268 32.8349 36.9293 32.1922 37.5915 31.831C37.6257 30.3878 37.5736 28.803 37.5736 28.803H31.8788H31.8771Z" fill="#1A2F78"/>
<path d="M32.4744 34.5027L33.3904 32.1564L32.502 36.2925L32.4744 34.5027Z" fill="#1A2F78"/>
<path d="M26.5419 49.9452C26.5419 49.9452 26.4459 49.9957 26.4459 50.2446C26.4459 50.4936 26.6265 51.4861 26.6884 51.7286C26.7502 51.971 27.0268 52.0621 27.4108 52.0621H29.8824C30.102 52.0621 30.2778 51.8978 30.3331 51.7351C30.39 51.5707 30.4144 50.2105 30.4047 50.1047C30.3949 49.9973 30.4047 49.9257 30.4047 49.9257C30.4047 49.9257 27.9445 50.1747 26.5403 49.9485L26.5419 49.9452Z" fill="#1A2F78"/>
<path d="M29.3535 54.685H27.6434V51.5919C27.9672 50.8434 29.0297 50.8434 29.3535 51.5919V54.685Z" fill="#14537A"/>
<path d="M28.0926 52.2022C28.0698 51.9093 27.5004 51.3349 27.3783 51.3105C27.2563 51.2878 26.9976 51.4456 26.952 51.6718C26.9065 51.8979 27.2124 52.3145 27.0985 53.1166C26.9862 53.9172 26.5892 55.1489 26.5892 55.1489C26.5892 55.1489 27.5947 55.5443 27.8209 55.5443C28.0471 55.5443 28.2342 55.624 28.2342 55.2953C28.2342 54.9666 28.0926 52.2022 28.0926 52.2022Z" fill="#1D75AB"/>
<path d="M28.9045 52.2022C28.9273 51.9093 29.4968 51.3349 29.6188 51.3105C29.7392 51.2878 29.9995 51.4456 30.0451 51.6718C30.0907 51.8979 29.7848 52.3145 29.8987 53.1166C30.0109 53.9172 30.4079 55.1489 30.4079 55.1489C30.4079 55.1489 29.4024 55.5443 29.1762 55.5443C28.9501 55.5443 28.7629 55.624 28.7629 55.2953C28.7629 54.9666 28.9045 52.2022 28.9045 52.2022Z" fill="#1D75AB"/>
<path d="M30.4063 55.1486C29.4138 54.2342 28.4977 54.3025 28.4977 54.3025C28.4977 54.3025 27.5817 54.2342 26.5891 55.1486C26.5891 55.1486 26.4883 55.352 26.511 55.6791C26.5338 56.0061 26.5533 56.2209 26.747 56.2779C26.9406 56.3348 27.8322 56.5496 28.4977 56.5496C29.1632 56.5496 30.0549 56.3348 30.2485 56.2779C30.4421 56.2209 30.4616 56.0061 30.4844 55.6791C30.5072 55.352 30.4063 55.1486 30.4063 55.1486Z" fill="white"/>
<path d="M27.6274 54.2227C27.5899 54.2227 27.5558 54.2032 27.5379 54.169C27.5118 54.1186 27.5314 54.0584 27.5802 54.0323C28.1448 53.7378 28.8493 53.733 29.4172 54.0242C29.4676 54.0502 29.4871 54.1104 29.4611 54.1609C29.4367 54.2113 29.3749 54.2309 29.3244 54.2048C28.8135 53.9445 28.1806 53.9477 27.6729 54.213C27.6583 54.2211 27.642 54.2243 27.6257 54.2243L27.6274 54.2227Z" fill="white"/>
<path d="M27.6842 53.7542C27.6484 53.7542 27.6126 53.7347 27.5947 53.7005C27.5687 53.6501 27.5882 53.5899 27.637 53.5638C28.1658 53.2872 28.8264 53.284 29.3585 53.5557C29.4089 53.5817 29.4284 53.6419 29.4024 53.6924C29.3764 53.7428 29.3162 53.7623 29.2657 53.7363C28.7906 53.4939 28.2032 53.4971 27.7314 53.7444C27.7167 53.7526 27.7005 53.7558 27.6842 53.7558V53.7542Z" fill="white"/>
<path d="M27.7429 53.2855C27.7055 53.2855 27.6713 53.266 27.6534 53.2318C27.6274 53.1814 27.6469 53.1212 27.6957 53.0952C28.1887 52.8381 28.8038 52.8348 29.3 53.087C29.3505 53.1131 29.37 53.1733 29.344 53.2237C29.3196 53.2741 29.2577 53.2937 29.2073 53.2676C28.768 53.0447 28.2245 53.0463 27.7885 53.2741C27.7738 53.2823 27.7575 53.2855 27.7413 53.2855H27.7429Z" fill="white"/>
<path d="M27.8014 52.8171C27.764 52.8171 27.7298 52.7975 27.7119 52.7634C27.6859 52.7129 27.7054 52.6527 27.7543 52.6267C28.2115 52.3875 28.7826 52.3843 29.2431 52.6202C29.2935 52.6462 29.313 52.7064 29.287 52.7569C29.2609 52.8073 29.2007 52.8268 29.1503 52.8008C28.7468 52.5958 28.2473 52.5974 27.8486 52.8073C27.834 52.8154 27.8177 52.8187 27.8014 52.8187V52.8171Z" fill="white"/>
<path d="M27.8583 52.3483C27.8225 52.3483 27.7867 52.3288 27.7688 52.2946C27.7427 52.2458 27.7623 52.184 27.8111 52.1579C28.2325 51.9383 28.7597 51.935 29.1844 52.1514C29.2348 52.1775 29.2543 52.2377 29.2283 52.2881C29.2022 52.3386 29.142 52.3581 29.0916 52.3321C28.7255 52.1449 28.2699 52.1466 27.9054 52.3386C27.8908 52.3467 27.8745 52.3499 27.8583 52.3499V52.3483Z" fill="white"/>
<path d="M37.2059 49.9452C37.2059 49.9452 37.3019 49.9957 37.3019 50.2446C37.3019 50.4936 37.1213 51.4861 37.0595 51.7286C36.9976 51.971 36.721 52.0621 36.337 52.0621H33.8655C33.6458 52.0621 33.4701 51.8978 33.4148 51.7351C33.3578 51.5707 33.3334 50.2105 33.3432 50.1047C33.3529 49.9973 33.3432 49.9257 33.3432 49.9257C33.3432 49.9257 35.8033 50.1747 37.2075 49.9485L37.2059 49.9452Z" fill="#1A2F78"/>
<path d="M34.3961 54.685H36.1061V51.5919C35.7823 50.8434 34.7199 50.8434 34.3961 51.5919V54.685Z" fill="#14537A"/>
<path d="M35.6571 52.2022C35.6798 51.9093 36.2493 51.3349 36.3714 51.3105C36.4918 51.2878 36.7521 51.4456 36.7977 51.6718C36.8432 51.8979 36.5373 52.3145 36.6512 53.1166C36.7635 53.9172 37.1605 55.1489 37.1605 55.1489C37.1605 55.1489 36.155 55.5443 35.9288 55.5443C35.7026 55.5443 35.5155 55.624 35.5155 55.2953C35.5155 54.9666 35.6571 52.2022 35.6571 52.2022Z" fill="#1D75AB"/>
<path d="M34.8435 52.2022C34.8207 51.9093 34.2512 51.3349 34.1292 51.3105C34.0071 51.2878 33.7484 51.4456 33.7029 51.6718C33.6573 51.8979 33.9632 52.3145 33.8493 53.1166C33.737 53.9172 33.34 55.1489 33.34 55.1489C33.34 55.1489 34.3456 55.5443 34.5717 55.5443C34.7979 55.5443 34.985 55.624 34.985 55.2953C34.985 54.9666 34.8435 52.2022 34.8435 52.2022Z" fill="#1D75AB"/>
<path d="M33.3417 55.1486C34.3342 54.2342 35.2503 54.3025 35.2503 54.3025C35.2503 54.3025 36.1664 54.2342 37.1589 55.1486C37.1589 55.1486 37.2598 55.352 37.237 55.6791C37.2142 56.0061 37.1947 56.2209 37.0011 56.2779C36.8074 56.3348 35.9158 56.5496 35.2503 56.5496C34.5848 56.5496 33.6932 56.3348 33.4995 56.2779C33.3059 56.2209 33.2864 56.0061 33.2636 55.6791C33.2408 55.352 33.3417 55.1486 33.3417 55.1486Z" fill="white"/>
<path d="M36.1224 54.2227C36.1598 54.2227 36.194 54.2032 36.2119 54.169C36.2379 54.1186 36.2184 54.0584 36.1696 54.0323C35.605 53.7378 34.9004 53.733 34.3326 54.0242C34.2821 54.0502 34.2626 54.1104 34.2886 54.1609C34.313 54.2113 34.3749 54.2309 34.4253 54.2048C34.9362 53.9445 35.5692 53.9477 36.0768 54.213C36.0915 54.2211 36.1077 54.2243 36.124 54.2243L36.1224 54.2227Z" fill="white"/>
<path d="M36.0638 53.7542C36.0996 53.7542 36.1354 53.7347 36.1533 53.7005C36.1794 53.6501 36.1598 53.5899 36.1094 53.5638C35.5806 53.2872 34.9216 53.284 34.3879 53.5557C34.3375 53.5817 34.3179 53.6419 34.344 53.6924C34.37 53.7428 34.4302 53.7623 34.4807 53.7363C34.9558 53.4939 35.5432 53.4971 36.015 53.7444C36.0297 53.7526 36.0459 53.7558 36.0622 53.7558L36.0638 53.7542Z" fill="white"/>
<path d="M36.0069 53.2855C36.0443 53.2855 36.0785 53.266 36.0964 53.2318C36.1224 53.1814 36.1029 53.1212 36.0541 53.0952C35.5611 52.8381 34.946 52.8348 34.4497 53.087C34.3993 53.1131 34.3798 53.1733 34.4058 53.2237C34.4302 53.2741 34.492 53.2937 34.5425 53.2676C34.9818 53.0447 35.5253 53.0463 35.9613 53.2741C35.976 53.2823 35.9922 53.2855 36.0085 53.2855H36.0069Z" fill="white"/>
<path d="M35.9482 52.8171C35.9857 52.8171 36.0198 52.7975 36.0377 52.7634C36.0638 52.7129 36.0442 52.6527 35.9954 52.6267C35.5382 52.3875 34.9671 52.3843 34.5066 52.6202C34.4562 52.6462 34.4367 52.7064 34.4627 52.7569C34.4887 52.8073 34.5489 52.8268 34.5994 52.8008C35.0029 52.5958 35.5024 52.5974 35.9011 52.8073C35.9157 52.8154 35.932 52.8187 35.9482 52.8187V52.8171Z" fill="white"/>
<path d="M35.8897 52.3483C35.9255 52.3483 35.9613 52.3288 35.9792 52.2946C36.0052 52.2458 35.9857 52.184 35.9353 52.1579C35.5138 51.9383 34.9883 51.935 34.562 52.1514C34.5115 52.1775 34.492 52.2377 34.5181 52.2881C34.5441 52.3386 34.6043 52.3581 34.6547 52.3321C35.0208 52.1449 35.4764 52.1466 35.8409 52.3386C35.8555 52.3467 35.8718 52.3499 35.8881 52.3499L35.8897 52.3483Z" fill="white"/>
<path d="M34.858 13.4528C33.75 14.8261 31.9374 14.735 29.6806 12.6458L26.1433 28.4026L26.0489 29.47C29.4935 30.9132 34.3195 31.6568 37.5916 29.4895V28.5653L34.8597 13.4544L34.858 13.4528Z" fill="#4A4748"/>
<path d="M35.2517 6.74234C35.2517 6.74234 35.735 6.27699 35.9628 6.49828C36.1906 6.71956 36.132 7.1182 35.9628 7.6942C35.7936 8.27019 35.6748 8.41338 35.4372 8.54843C35.1997 8.68348 34.9117 8.6672 34.9117 8.6672L35.2501 6.74071L35.2517 6.74234Z" fill="#FFB27D"/>
<path d="M28.5042 6.74252C28.5042 6.74252 28.0209 6.27717 27.7932 6.49846C27.5637 6.72137 27.6239 7.11839 27.7932 7.69438C27.9624 8.27037 28.0812 8.41356 28.3171 8.54861C28.5546 8.68366 28.8426 8.66739 28.8426 8.66739L28.5042 6.7409V6.74252Z" fill="#FFB27D"/>
<path d="M35.5122 4.82277C35.3088 2.30076 33.4913 1.4986 31.8773 1.4986C30.2632 1.4986 28.4457 2.30076 28.2423 4.82277C28.0389 7.34478 28.7955 9.07276 29.2137 9.62435C29.6319 10.1776 30.7155 11.1376 31.8773 11.1376C33.0406 11.1376 34.1243 10.1776 34.5408 9.62435C34.959 9.07113 35.7156 7.34478 35.5122 4.82277Z" fill="#FFB27D"/>
<path opacity="0.4" d="M34.9135 7.74146C34.907 8.28492 34.3554 8.72098 33.6834 8.71284C33.0098 8.70471 32.4696 8.25725 32.4761 7.71218C32.4826 7.16872 33.0325 6.73429 33.7062 6.74242C34.3798 6.75056 34.92 7.19801 34.9135 7.74146Z" fill="url(#paint1_radial_32_17153)"/>
<path d="M34.4235 7.43553C34.4203 7.46319 34.3031 7.47946 34.1599 7.47295C34.0167 7.46481 33.9012 7.43553 33.9028 7.40787C33.9045 7.38021 34.0233 7.36231 34.1664 7.37044C34.3096 7.37858 34.4251 7.40787 34.4235 7.43715V7.43553Z" fill="#FFEDDE"/>
<path opacity="0.4" d="M28.8426 7.74165C28.8491 8.2851 29.4007 8.72116 30.0727 8.71303C30.7463 8.70489 31.2865 8.25744 31.28 7.71236C31.2735 7.16891 30.7235 6.73447 30.0499 6.74261C29.3763 6.75074 28.8361 7.19819 28.8426 7.74165Z" fill="url(#paint2_radial_32_17153)"/>
<path d="M29.3309 7.43571C29.3341 7.46337 29.4496 7.47964 29.5928 7.47313C29.7376 7.465 29.8515 7.43571 29.8499 7.40805C29.8483 7.38039 29.7311 7.36249 29.5863 7.37063C29.4431 7.37876 29.3276 7.40805 29.3292 7.43734L29.3309 7.43571Z" fill="#FFEDDE"/>
<path d="M33.4799 6.1456C33.2293 6.19116 32.8697 6.38316 32.8193 6.81922C33.0877 7.21461 33.3562 7.25692 33.7402 7.23414C34.1242 7.21136 34.339 6.76878 34.3585 6.6077C34.2153 6.32621 33.9778 6.07401 33.4815 6.1456H33.4799Z" fill="white"/>
<path d="M34.1372 6.67439C34.1372 6.97378 33.8948 7.21622 33.5954 7.21622C33.296 7.21622 33.0536 6.97378 33.0536 6.67439C33.0536 6.37501 33.296 6.13257 33.5954 6.13257C33.8948 6.13257 34.1372 6.37501 34.1372 6.67439Z" fill="#357871"/>
<path d="M33.3188 6.47254C33.309 6.41071 33.2244 6.37492 33.13 6.38956C33.0356 6.4042 32.9673 6.46603 32.9771 6.52786C32.9868 6.58969 33.0714 6.62549 33.1658 6.61085C33.2602 6.5962 33.3285 6.53437 33.3188 6.47254Z" fill="white"/>
<path d="M32.7997 6.74264C32.7997 6.74264 33.0275 6.20895 33.5953 6.20895C34.1632 6.20895 34.3145 6.74264 34.3145 6.74264L34.5521 6.50183C34.5521 6.50183 34.2771 5.99417 33.6165 6.03485C32.9136 6.07878 32.7997 6.74264 32.7997 6.74264Z" fill="#193835"/>
<path d="M32.58 5.70967C32.58 5.70967 32.7737 5.72594 33.2146 5.59902C33.9045 5.40052 34.1974 5.37123 34.5521 5.49977C34.5521 5.49977 34.2559 5.24594 33.7939 5.25571C33.3659 5.26547 32.9282 5.31754 32.7997 5.3452C32.6354 5.37937 32.4987 5.5616 32.58 5.70967Z" fill="#193835"/>
<path d="M30.2761 6.1456C30.5266 6.19116 30.8862 6.38316 30.9367 6.81922C30.6682 7.21461 30.3997 7.25692 30.0173 7.23414C29.6334 7.21136 29.4186 6.76878 29.399 6.6077C29.5422 6.32621 29.7798 6.07401 30.2761 6.1456Z" fill="white"/>
<path d="M29.6188 6.67439C29.6188 6.97378 29.8613 7.21622 30.1607 7.21622C30.46 7.21622 30.7025 6.97378 30.7025 6.67439C30.7025 6.37501 30.46 6.13257 30.1607 6.13257C29.8613 6.13257 29.6188 6.37501 29.6188 6.67439Z" fill="#357871"/>
<path d="M29.5749 6.4939C29.5554 6.43533 29.6123 6.36211 29.7034 6.33119C29.7945 6.30028 29.884 6.32306 29.9036 6.38163C29.9231 6.44021 29.8661 6.51343 29.775 6.54434C29.6839 6.57526 29.5944 6.55248 29.5749 6.4939Z" fill="white"/>
<path d="M30.9562 6.74264C30.9562 6.74264 30.7268 6.20895 30.1606 6.20895C29.5944 6.20895 29.4414 6.74264 29.4414 6.74264L29.2039 6.50183C29.2039 6.50183 29.4788 5.99417 30.1394 6.03485C30.8407 6.07878 30.9562 6.74264 30.9562 6.74264Z" fill="#193835"/>
<path d="M31.1759 5.70967C31.1759 5.70967 30.9823 5.72594 30.5413 5.59902C29.8514 5.40052 29.5586 5.37123 29.2039 5.49977C29.2039 5.49977 29.5 5.24594 29.9621 5.25571C30.39 5.26547 30.8277 5.31754 30.9562 5.3452C31.1206 5.37937 31.2573 5.5616 31.1759 5.70967Z" fill="#193835"/>
<path d="M31.2525 9.19619C31.0377 9.19294 30.753 9.13111 30.7692 9.49883C30.7822 9.78358 31.1923 10.1611 31.765 10.1611C32.7803 10.1611 33.0927 9.62575 33.1074 9.41748C33.122 9.20921 33 9.08555 32.5558 9.13924C32.1506 9.18806 31.6723 9.20433 31.2525 9.19619Z" fill="#A3394A"/>
<path d="M33.0178 9.64717C32.7787 9.47633 32.4077 9.36731 31.9895 9.36731C31.5046 9.36731 31.0832 9.51538 30.8571 9.73341C31.0084 9.95632 31.3419 10.163 31.765 10.163C32.5004 10.163 32.8649 9.8831 33.0178 9.6488V9.64717Z" fill="#D94C63"/>
<path d="M32.9949 9.17711C32.9103 9.12993 32.772 9.11366 32.554 9.13969C32.1489 9.1885 31.6705 9.20477 31.2507 9.19664C31.0798 9.19338 30.8618 9.15433 30.7902 9.32681C30.8797 9.4228 31.0717 9.51555 31.4752 9.51392C32.1944 9.50904 32.72 9.45209 32.9933 9.17711H32.9949Z" fill="white"/>
<path d="M31.7438 8.71957C31.7438 8.71957 31.6673 8.55035 31.5616 8.55035C31.4558 8.55035 31.4395 8.6431 31.4509 8.66913C31.4639 8.69517 31.5648 8.74886 31.7422 8.71957H31.7438Z" fill="#DD8076"/>
<path d="M32.0107 8.71963C32.0107 8.71963 32.0872 8.55042 32.1929 8.55042C32.2987 8.55042 32.3149 8.64316 32.3036 8.66919C32.2905 8.69523 32.1897 8.74892 32.0123 8.71963H32.0107Z" fill="#DD8076"/>
<path d="M33.1903 4.01569C33.1903 4.01569 33.3481 4.84551 33.5955 5.26531C33.8444 5.68347 34.1438 5.82015 34.1633 5.73879C34.1828 5.65744 34.1633 5.2588 34.1633 5.2588C34.1633 5.2588 34.7051 5.98449 35.1445 6.38801C35.1445 6.38801 35.1249 7.74664 35.356 7.55627C35.5854 7.3659 36.1549 6.18625 36.2021 5.96984C36.3306 6.24157 36.5617 6.29526 36.5812 6.22041C36.6007 6.14557 36.5812 5.3792 36.4315 4.87155C36.656 5.00009 36.9733 4.98707 36.9733 4.85202C36.9733 4.71697 36.5535 3.7879 36.1598 3.33393C36.4234 3.32743 36.7569 3.07685 36.6886 2.9955C36.6202 2.91414 36.0654 2.5757 35.4748 2.43903C35.3739 1.66615 35.0208 1.1585 34.7898 0.914432C34.5587 0.670366 33.9485 0.13505 33.9014 0.209896C33.8542 0.284743 33.8395 0.678502 33.9014 0.894907C33.366 0.372607 32.4435 0 32.0578 0C31.6722 0 32.0578 0.413284 32.0578 0.413284C30.9319 0.318912 30.3299 0.541825 29.7734 0.507656C29.2169 0.473487 28.7499 0.385623 28.763 0.479995C28.776 0.574367 28.9192 0.955109 29.2169 1.08365C28.3562 1.28704 28.0519 1.85002 27.5491 2.18195C27.048 2.51387 26.5924 2.76445 26.7079 2.8458C26.8235 2.92716 27.1147 3.09638 27.4938 3.002C26.952 3.72118 27.0675 4.61609 27.087 5.01636C27.1066 5.41663 26.9862 5.9796 27.1147 5.98611C27.2432 5.99262 27.471 5.91126 27.6386 5.65744C27.7444 6.35872 28.2895 7.58555 28.3985 7.57742C28.5075 7.56928 28.6295 6.35872 28.6605 5.75832C28.898 5.73391 29.8059 4.92036 29.9621 4.69745C29.9215 5.18558 29.8255 5.58584 29.9036 5.61188C29.9817 5.63954 31.311 4.85202 31.6706 4.20932C31.6706 4.20932 31.4542 5.37595 31.6364 5.40198C31.8187 5.42802 32.8031 4.75114 33.1854 4.01894L33.1903 4.01569Z" fill="black"/>
<path d="M32.4744 14.774C32.4744 14.774 32.162 19.8994 32.1213 23.1325C32.0806 26.3655 32.009 31.7154 31.9993 31.8879C31.9895 32.0604 31.8984 32.2947 31.6836 32.3565C31.4704 32.4183 28.1251 32.6006 25.4193 30.9832C25.582 29.2845 26.1824 25.5536 26.3646 24.068C26.5468 22.5825 26.0262 13.8368 26.0457 13.6611C26.0652 13.4854 26.4996 13.1193 26.8934 12.9419C27.2872 12.7646 29.3471 11.8713 29.3471 11.8713L32.4727 14.7724L32.4744 14.774Z" fill="#FC4B55"/>
<path d="M30.2062 10.721L29.2039 11.8323L30.2062 16.3068C30.2062 16.3068 31.8316 15.6967 32.476 14.7741L30.2062 10.7194V10.721Z" fill="#C11922"/>
<path d="M34.2235 14.7529C34.2235 14.7529 34.7474 18.645 34.9769 21.6079C35.1331 23.6207 35.5805 31.7969 35.7025 31.8587C35.8246 31.9205 37.9398 30.6384 38.0212 30.3129C38.1025 29.9875 36.9636 24.1706 36.9229 23.907C36.8822 23.6434 36.8822 14.0321 36.6381 13.6514C36.3941 13.2707 34.4253 12.0438 34.4253 12.0438L34.2235 14.7529Z" fill="#FC4B55"/>
<path d="M33.5385 11.5477C33.5385 11.5477 34.0429 13.3099 34.1633 14.7076C34.1633 14.7076 34.9622 15.3307 35.4503 15.7928C35.4503 15.7928 34.9996 13.3619 34.5831 12.0407L33.5498 10.8708L33.5385 11.5494V11.5477Z" fill="#C11922"/>
<path d="M28.8979 16.3231C28.8979 16.3231 29.2266 16.3264 29.3144 16.3768C29.4023 16.4272 29.6122 16.699 29.7521 16.7592C29.8904 16.821 30.0238 16.8373 30.0027 17.0195C29.9815 17.2017 29.7635 17.4572 29.4511 17.4165C29.1387 17.3758 29.0769 17.2261 29.0769 17.2261L28.8979 16.3215V16.3231Z" fill="url(#paint3_linear_32_17153)"/>
<path style="mix-blend-mode:multiply" d="M28.8979 16.3231C28.8979 16.3231 29.2266 16.3264 29.3144 16.3768C29.4023 16.4272 29.6122 16.699 29.7521 16.7592C29.8904 16.821 30.0238 16.8373 30.0027 17.0195C29.9815 17.2017 29.7635 17.4572 29.4511 17.4165C29.1387 17.3758 29.0769 17.2261 29.0769 17.2261L28.8979 16.3215V16.3231Z" fill="url(#paint4_linear_32_17153)"/>
<path d="M29.1485 11.9592C29.1485 11.9592 29.1013 11.7883 28.7857 11.8729C28.47 11.9576 26.8022 12.815 26.742 12.8541C26.6818 12.8931 26.6574 13.0705 26.6574 13.0705C26.6574 13.0705 26.9893 20.4087 26.0472 22.9909L26.3987 23.4791C26.3987 23.4791 28.8215 19.6407 29.2022 16.5834C29.5813 13.5277 29.308 12.7841 29.1485 11.9592Z" fill="#2B3152"/>
<path d="M26.9145 16.5137C26.9145 16.5137 25.7657 17.4183 25.5217 17.5713C25.2776 17.7242 24.9522 17.8869 24.7179 18.1001C24.4836 18.3132 24.1175 18.6793 23.6407 18.995C23.1624 19.3107 22.7149 19.6865 22.6238 19.8997C22.5327 20.1128 22.2675 21.7513 22.806 22.3712C23.3446 22.9912 24.3615 22.8089 25.0742 22.5242C25.7869 22.2394 26.0602 21.5675 26.5288 21.1509C26.9974 20.7344 27.2806 20.4692 27.3522 20.1437C27.4237 19.8183 27.5865 17.4688 26.9145 16.5137Z" fill="#FC4B55"/>
<path d="M27.1993 16.1165C26.9926 16.1116 26.7111 16.1978 26.6021 16.4077C26.4931 16.6176 26.6639 16.8893 26.6021 17.2083C26.5403 17.5272 26.3922 19.1787 26.4003 19.2324C26.4069 19.2861 27.2936 19.6375 27.8094 19.6619C28.3252 19.6863 28.623 19.4862 28.7108 19.4114C28.7987 19.3365 28.7857 18.9981 28.8198 18.9232C28.854 18.8484 29.1046 18.5783 29.1111 18.3944C29.1176 18.2105 29.1925 17.5678 29.2543 17.4865C29.3161 17.4051 29.4707 17.2489 29.4984 17.1269C29.526 17.0049 29.1502 16.3752 28.9484 16.3068C28.7466 16.2385 27.5133 16.1246 27.2009 16.1165H27.1993Z" fill="#FFB27D"/>
<defs>
<linearGradient id="paint0_linear_32_17153" x1="31.8772" y1="10.083" x2="31.8772" y2="12.8263" gradientUnits="userSpaceOnUse">
<stop stop-color="#FBB8A6"/>
<stop offset="1" stop-color="#FBDAD0" stop-opacity="0.1"/>
</linearGradient>
<radialGradient id="paint1_radial_32_17153" cx="0" cy="0" r="1" gradientUnits="userSpaceOnUse" gradientTransform="translate(33.7119 7.40551) rotate(0.68) scale(1.2187 0.621537)">
<stop stop-color="#FA8787"/>
<stop offset="1" stop-color="#FACDAB" stop-opacity="0"/>
</radialGradient>
<radialGradient id="paint2_radial_32_17153" cx="0" cy="0" r="1" gradientUnits="userSpaceOnUse" gradientTransform="translate(29.9972 7.47016) rotate(179.32) scale(1.2187 0.621537)">
<stop stop-color="#FA8787"/>
<stop offset="1" stop-color="#FACDAB" stop-opacity="0"/>
</radialGradient>
<linearGradient id="paint3_linear_32_17153" x1="28.7889" y1="16.7494" x2="29.8953" y2="17.0276" gradientUnits="userSpaceOnUse">
<stop stop-color="#FBDAD0"/>
<stop offset="1" stop-color="#FBD0C4"/>
</linearGradient>
<linearGradient id="paint4_linear_32_17153" x1="29.1794" y1="16.821" x2="30.1182" y2="17.2994" gradientUnits="userSpaceOnUse">
<stop stop-color="#FBB8A6"/>
<stop offset="1" stop-color="#FBDAD0" stop-opacity="0.1"/>
</linearGradient>
</defs>
</svg>
