<svg width="64" height="87" viewBox="0 0 64 87" fill="none" xmlns="http://www.w3.org/2000/svg">
<path d="M60.2395 69.9846L39.7675 81.8857C35.4082 84.4232 28.3101 84.4232 23.9212 81.8857L3.30733 69.9846C1.10102 68.707 -0.00508871 67.033 0.000826314 65.365V67.731C-0.0110037 69.405 1.09511 71.0789 3.30141 72.3506L23.9094 84.2458C28.2983 86.7833 35.3904 86.7833 39.7557 84.2458L60.2276 72.3447C62.3925 71.0848 63.4809 69.4404 63.4809 67.7902V65.4241C63.4809 67.0744 62.3984 68.7247 60.2335 69.9787L60.2395 69.9846Z" fill="#0184E9"/>
<path d="M60.1862 60.8042C64.5751 63.3417 64.5988 67.4468 60.2394 69.9843L39.7675 81.8853C35.4081 84.4229 28.3101 84.4229 23.9212 81.8853L3.3073 69.9843C-1.08165 67.4468 -1.10531 63.3417 3.25407 60.8042L23.7319 48.9032C28.0913 46.3656 35.1893 46.3656 39.5782 48.9032L60.1862 60.8042Z" fill="#EAEDFF"/>
<path opacity="0.1" d="M34.4629 70.5301C40.7272 70.5301 45.8054 68.8831 45.8054 66.8515C45.8054 64.8198 40.7272 63.1728 34.4629 63.1728C28.1986 63.1728 23.1204 64.8198 23.1204 66.8515C23.1204 68.8831 28.1986 70.5301 34.4629 70.5301Z" fill="#2C2A40"/>
<path d="M40.4717 11.1784L40.7645 11.9585C40.8145 12.0911 40.9109 12.1996 41.0384 12.2616L41.853 12.7662L41.8822 13.1331C42.5625 13.2175 43.2342 12.749 43.2342 12.749C43.4529 12.1704 43.3375 11.125 43.3375 11.125L41.7427 11.0681L41.3036 11.1594L41.0659 11.2094C41.0659 11.2094 40.8696 10.6204 40.5337 10.5291C40.1979 10.4378 40.0825 10.7754 40.0825 10.7754L40.47 11.1801L40.4717 11.1784Z" fill="#F7B385"/>
<path d="M40.9557 11.5556C40.9557 11.5556 41.09 11.3902 41.2622 11.4264C41.2777 11.4488 41.9907 12.4511 42.3714 12.0774C42.5832 11.8707 42.8432 11.6933 43.0137 11.5418C43.0757 11.6055 43.1257 11.7123 43.124 11.8879C43.124 11.8879 43.291 11.6072 43.1928 11.2886H43.1911C43.1911 11.2524 43.1774 11.2163 43.1412 11.1836C42.9139 10.9734 41.9287 10.2363 41.6549 10.4068L41.1916 11.1422L41.202 11.1818L41.0676 11.2094C41.0676 11.2094 40.9746 11.3592 40.9574 11.5556H40.9557Z" fill="#F3876A"/>
<path d="M41.1897 11.1404L41.7701 10.2207L42.4883 10.0881C42.5606 10.0744 42.6347 10.1036 42.6794 10.1639L42.9292 10.5032L42.3763 10.5807L42.0215 10.6616L41.6048 11.2644C41.4945 11.4229 41.2431 11.3867 41.1949 11.2007C41.1897 11.1817 41.188 11.1611 41.188 11.1421L41.1897 11.1404Z" fill="#F7B385"/>
<path d="M41.5239 11.545L42.1043 10.6254L42.8397 10.4893C42.9017 10.4773 42.9654 10.5031 43.0033 10.553L43.0808 10.6564C43.1497 10.7494 43.1015 10.8837 42.9895 10.913L42.7123 10.9836L42.3575 11.0645L41.9407 11.6673C41.8305 11.8258 41.579 11.7896 41.5308 11.6036C41.5256 11.5847 41.5239 11.564 41.5239 11.545Z" fill="#F7B385"/>
<path d="M41.9545 11.8329L42.4729 11.0131L42.9499 10.8305C43.0481 10.7926 43.16 10.8219 43.2272 10.9011L43.3012 10.989C43.3822 11.0975 43.3271 11.2542 43.1945 11.2886L43.0136 11.3351L42.6985 11.4075L42.3265 11.9431C42.2283 12.0843 42.0044 12.0516 41.9614 11.8862C41.9562 11.869 41.9545 11.8518 41.9562 11.8329H41.9545Z" fill="#F7B385"/>
<path d="M42.299 10.2037L42.1027 9.58539C42.0596 9.44934 41.9132 9.37356 41.7772 9.41661L41.6411 9.45967C41.6032 9.47173 41.5688 9.49411 41.5412 9.52511L40.9712 10.1675C40.9057 10.2416 40.947 10.3587 41.0452 10.3759C41.0848 10.3828 41.1348 10.3828 41.195 10.3759C41.4482 10.338 41.7582 9.97634 41.7582 9.97634L41.865 10.3294L42.299 10.2054V10.2037Z" fill="#F7B385"/>
<path d="M41.3723 17.6919C41.3723 17.6919 41.3327 16.4967 41.5428 15.6511C41.7064 14.9949 41.8115 14.3267 41.8442 13.6533C41.8563 13.4088 41.858 13.1625 41.8494 12.9179L41.8459 12.8249C41.8459 12.8249 42.4504 13.0385 43.2495 12.7061C43.2495 12.7061 43.3064 12.9524 43.3873 13.3674C43.6009 14.4731 43.9797 16.7809 43.8799 18.8286C43.8661 19.0973 43.7025 19.3332 43.4579 19.4434C43.4579 19.4434 42.9309 21.7908 40.4251 24.1468L38.7683 23.1824C38.7683 23.1824 39.1937 21.1037 41.3723 17.6937V17.6919Z" fill="#001E37"/>
<path d="M41.8442 13.6533C42.3592 13.7084 43.0618 13.4862 43.3873 13.3674C43.3064 12.9523 43.2496 12.7061 43.2496 12.7061C42.4505 13.0384 41.846 12.8249 41.846 12.8249L41.8494 12.9179C41.858 13.1642 41.8546 13.4087 41.8442 13.6533Z" fill="white"/>
<path d="M42.95 13.1367C42.9586 13.1832 43.0034 13.2125 43.0482 13.2039C43.0947 13.1953 43.1239 13.1505 43.1153 13.1057C43.1067 13.0592 43.0619 13.0299 43.0172 13.0385C42.9707 13.0472 42.9414 13.0919 42.95 13.1367Z" fill="#001E37"/>
<path d="M34.1357 25.3217C34.9503 26.7735 37.0291 28.9108 37.0291 28.9108L41.2761 26.0537L41.9529 25.599C41.9529 23.1724 39.8535 20.3738 39.8535 20.3738C39.6296 20.4651 39.4006 20.5684 39.1698 20.6803C36.9671 21.7567 34.6145 23.6873 33.9825 24.2229C33.8757 24.3125 33.8171 24.3642 33.8171 24.3642C33.793 24.6001 33.9205 24.9377 34.1357 25.3234V25.3217Z" fill="#00445F"/>
<path d="M39.1714 20.6803C39.7001 21.4312 40.9918 23.4892 41.2777 26.0536L41.9545 25.5989C41.9545 23.1723 39.8551 20.3737 39.8551 20.3737C39.6312 20.465 39.4022 20.5683 39.1714 20.6803Z" fill="#001E37"/>
<path d="M21.3395 17.2601C21.4463 17.3376 21.5634 17.3824 21.6874 17.3152C21.7253 17.2945 21.7528 17.2825 21.7873 17.2446C21.8183 17.2119 21.8424 17.1722 21.8613 17.1292L21.8768 17.0896C21.863 17.0861 21.8475 17.0844 21.8303 17.0844C21.6598 17.0844 21.3395 17.2601 21.3395 17.2601Z" fill="#F7A67F"/>
<path d="M19.5071 18.1693C19.948 18.469 20.3871 18.7463 20.723 18.4328C21.3688 18.3553 21.2724 17.2772 21.2724 17.2772L21.8769 17.0861L21.9578 16.8002C21.963 16.7795 21.9664 16.7589 21.9664 16.7382C21.9664 16.6504 21.9148 16.5677 21.8304 16.5315L21.8545 16.4799L21.9216 16.3317C21.9699 16.225 21.9199 16.0992 21.8097 16.0562L21.789 16.0493L21.8114 15.9856L21.8665 15.8271C21.8993 15.7307 21.8562 15.6239 21.7649 15.5791L21.6685 15.5309C21.6633 15.5102 21.6547 15.4913 21.6426 15.4741C21.6048 15.4155 21.5376 15.3776 21.4635 15.3811L20.2821 15.4276C20.208 15.431 20.1374 15.4569 20.0806 15.5016C20.0048 15.5602 19.9583 15.6497 19.9514 15.7445L19.8481 17.0206L19.5054 18.1693H19.5071Z" fill="#F7B385"/>
<path d="M21.3395 17.2598C21.4463 17.3373 21.5634 17.3821 21.6874 17.3149C21.6305 17.3477 21.51 17.3149 21.5186 17.2598C21.5272 17.2047 21.6409 17.1634 21.6409 17.1634L21.3395 17.2598Z" fill="#F3876A"/>
<path d="M21.1708 16.602L21.8321 16.5348L21.8562 16.4831C21.5428 16.4711 21.1725 16.602 21.1725 16.602H21.1708Z" fill="#F3876A"/>
<path d="M21.0762 16.1389C21.3896 16.058 21.7909 16.0494 21.7909 16.0494L21.8133 15.9857C21.4241 15.9719 21.0762 16.1389 21.0762 16.1389Z" fill="#F3876A"/>
<path d="M21.0297 15.5825C21.2243 15.5498 21.6703 15.5291 21.6703 15.5291C21.6652 15.5085 21.6566 15.4895 21.6445 15.4723C21.3655 15.4964 21.0503 15.5773 21.0297 15.5825Z" fill="#F3876A"/>
<path d="M22.7915 27.6619C23.4046 26.6441 24.0212 25.6297 24.6446 24.6188C24.3605 24.4879 23.8128 24.2502 23.0016 23.9678C22.3765 23.749 21.5946 23.5028 20.6542 23.2565C20.6542 23.2565 20.8885 22.2128 20.7955 21.2139C20.7317 20.5406 20.7318 19.8637 20.8024 19.1938C20.8282 18.9492 20.8626 18.7064 20.9091 18.4653L20.9264 18.374C20.9264 18.374 20.296 18.4928 19.5572 18.0433C19.5572 18.0433 19.4625 18.2776 19.3213 18.6771C18.9406 19.738 18.2156 21.9614 18.0038 23.9988C17.9762 24.2657 18.1019 24.524 18.3275 24.6704L21.4602 26.6889C21.9252 26.9885 22.3696 27.314 22.7932 27.6654L22.7915 27.6619Z" fill="#001E37"/>
<path d="M20.8023 19.192C20.2856 19.1679 19.626 18.8407 19.3195 18.6753C19.4624 18.2775 19.5554 18.0416 19.5554 18.0416C20.2942 18.4911 20.9246 18.3722 20.9246 18.3722L20.9073 18.4635C20.8626 18.7046 20.8281 18.9475 20.8006 19.192H20.8023Z" fill="white"/>
<path d="M19.7896 18.5133C19.7741 18.5581 19.7259 18.5805 19.6811 18.565C19.6363 18.5495 19.6139 18.5012 19.6294 18.4565C19.6449 18.4117 19.6931 18.3893 19.7379 18.4048C19.7827 18.4203 19.8051 18.4685 19.7896 18.5133Z" fill="#001E37"/>
<path d="M19.9843 29.1896L20.606 29.2826L25.8743 30.0748L27.2572 30.2815C27.2572 30.2815 27.7584 29.5788 28.0873 28.4318C28.1252 28.2992 28.1614 28.1614 28.1924 28.0185C28.3853 27.1608 28.4576 26.1068 28.189 24.9443C28.1717 24.9478 27.7343 25.0098 27.0333 24.9633C26.9421 24.9581 26.8456 24.9495 26.7457 24.9392C26.0637 24.8703 25.1906 24.6946 24.2365 24.2933C22.9724 23.7629 22.0441 23.4219 21.4861 23.2307C21.0779 23.0912 20.8678 23.0292 20.8678 23.0292C20.8678 23.0292 19.4487 25.6074 19.9809 29.1879L19.9843 29.1896Z" fill="#00445F"/>
<path d="M30.259 63.8443V64.9775C30.259 64.9775 28.9673 65.4855 28.2973 65.2134L28.1888 64.1077C28.1888 64.1077 29.3772 63.6893 30.259 63.8443Z" fill="#001E37"/>
<path d="M35.467 61.8191V62.5304C35.467 62.5304 35.5463 62.6027 36.0182 62.8025C36.49 63.0023 37.6491 62.3926 37.6491 62.3926L37.5113 61.609L35.4688 61.8191H35.467Z" fill="#001E37"/>
<path d="M27.7566 64.3815C27.7566 64.3815 28.1114 64.4676 28.6694 64.397C29.2016 64.3299 29.9163 64.1232 30.6844 63.5669C30.6844 63.5669 30.8738 63.0227 30.4536 62.9693C30.4536 62.9693 30.5518 57.9267 30.7274 54.9558C30.9031 51.9867 32.3997 47.4745 32.3997 47.4745C32.3997 47.4745 32.8699 47.5003 33.2832 47.4745C33.2867 47.4745 33.2918 47.4745 33.2953 47.4745C33.4537 47.4642 33.6053 47.447 33.7155 47.416C33.7155 47.416 33.049 51.2462 33.9325 54.0086C33.9325 54.0086 33.7878 54.279 33.9325 54.6183C33.9325 54.6183 33.8929 58.3469 34.9796 60.088C34.9796 60.088 34.8987 61.2161 35.0916 61.7706C35.0916 61.7706 35.3189 61.812 35.6513 61.8361C36.3677 61.8878 37.5767 61.8585 38.0882 61.1661C38.0882 61.1661 38.2329 60.4652 37.6525 59.933L37.5319 54.4719C37.5319 54.4719 37.773 53.578 37.6043 53.1182C37.6043 53.1182 38.102 46.8304 37.2857 42.611C37.2857 42.611 31.7814 42.4973 28.5385 43.4187C28.3491 43.4721 28.1665 43.5306 27.9943 43.5909C27.9943 43.5909 27.7601 47.3229 28.1889 49.5188L28.0098 51.0412C28.0098 51.0412 27.7842 51.3788 27.7928 52.1762C27.7928 52.1762 27.6877 53.5161 27.6826 53.8967C27.6826 53.8967 26.6768 60.6839 27.7566 64.3815Z" fill="#001E37"/>
<path d="M37.5493 61.836L37.6906 61.7086C37.7904 61.6173 37.9489 61.6397 38.0212 61.7533L38.3898 62.332C38.3898 62.332 39.5678 63.0019 40.0569 63.4549L42.1012 64.2592C42.2114 64.3022 42.2837 64.4107 42.282 64.5296C42.2803 64.7345 42.232 65.0617 41.9961 65.3752C41.9961 65.3752 40.5822 65.7007 39.7676 65.4664C38.9512 65.2305 37.5114 64.5778 36.5556 64.3746C35.6514 64.1817 34.9453 64.1972 34.656 63.7614C34.656 63.7614 34.8368 62.4267 35.3811 62.2235C35.3811 62.2235 37.322 62.6403 37.5476 61.8326L37.5493 61.836Z" fill="#67313C"/>
<path d="M34.4735 64.5606C34.8937 65.358 37.3031 65.3098 37.7871 65.2857C38.271 65.2616 39.0805 65.6112 39.5747 65.8058C40.069 65.9987 41.0731 65.8178 41.3986 65.7576C41.7241 65.6973 41.9962 65.3769 41.9962 65.3769C41.9962 65.3769 40.5822 65.7025 39.7676 65.4682C38.9513 65.2323 37.515 64.4762 36.5557 64.2902C35.4655 64.0784 34.9471 64.199 34.6561 63.765C34.5476 63.982 34.4718 64.5623 34.4718 64.5623L34.4735 64.5606Z" fill="#451C26"/>
<path d="M32.1449 68.8282C32.1449 68.8282 32.1622 69.3449 31.6834 69.5137C31.2046 69.6825 30.1196 69.8667 29.4479 69.2553C28.7763 68.6457 28.6299 68.067 28.2321 67.5073C27.8342 66.9476 27.8945 65.804 27.8945 65.804L32.1449 68.8265V68.8282Z" fill="#451C26"/>
<path d="M28.2305 64.602C28.2305 64.602 28.2925 64.8776 28.5301 65.0481C28.6731 65.1514 28.5301 65.1032 28.7816 65.1273C28.7816 65.1273 28.5921 64.5917 29.1605 64.4763C29.7288 64.3609 30.2489 64.0871 30.5245 64.4832C30.7156 64.757 30.7019 64.9964 30.7019 64.9964C30.7019 64.9964 30.8775 64.9706 30.9016 65.2754C30.9171 65.4769 31.0153 66.338 31.5406 66.8943C32.0659 67.4506 32.2897 68.372 32.1468 68.8284C32.0021 69.2847 29.8993 69.7429 29.033 68.353C28.1668 66.9632 28.2236 67.132 28.0083 66.5757C27.793 66.0177 27.8998 64.9654 28.2322 64.6038L28.2305 64.602Z" fill="#67313C"/>
<path d="M23.9985 55.3694C23.9985 55.3694 29.4029 56.6576 32.8387 55.1799L32.8473 54.2844L32.9007 48.558L33.2331 54.2241L33.2882 55.1506C33.2882 55.1506 36.5552 55.1627 40.4251 53.5128C40.4251 53.5128 40.3614 53.1529 40.2563 52.5363C39.9239 50.5764 39.1834 46.0246 38.8217 42.2512C38.491 38.8171 37.8986 33.2475 37.0289 28.9057C36.6431 26.9786 36.2022 25.2925 35.7062 24.1421L34.0012 24.3367L33.8169 24.3574L33.7308 24.3677L33.4174 24.4039L32.6527 24.4917L31.6297 24.6088L29.036 24.4676L28.4763 24.781L28.1887 24.9412L27.5222 25.3149L27.195 25.4992L26.9539 25.6335L25.8964 26.2243C25.8964 26.2243 25.8947 27.7777 25.874 30.0717C25.8344 34.7234 25.7259 42.4166 25.4228 46.3535C25.211 49.1177 24.3671 52.5311 24.0812 54.5823C24.0416 54.8734 24.0123 55.1351 23.9968 55.3659L23.9985 55.3694Z" fill="#00445F"/>
<path d="M27.524 25.3183L32.6545 34.775C33.7447 31.6078 33.5156 25.8453 33.4192 24.4072L32.6545 24.4951L31.6315 24.6122L29.0379 24.4709L28.4782 24.7844L27.524 25.3183Z" fill="#001E37"/>
<path d="M28.4783 24.7844C29.0587 25.9607 29.5719 26.9027 30.0541 27.7897C30.8722 29.2949 31.5955 30.6399 32.3877 32.6946C32.758 30.2421 32.9182 28.6077 32.8234 26.5721C32.7942 25.9314 32.739 25.2511 32.6564 24.4933L31.6334 24.6105L29.0397 24.4692L28.48 24.7827L28.4783 24.7844Z" fill="white"/>
<path d="M30.054 27.7895C30.872 29.2947 31.5953 30.6398 32.3876 32.6944C32.7578 30.242 32.918 28.6076 32.8233 26.5719L31.8795 26.0053L30.0557 27.7878L30.054 27.7895Z" fill="#EDEDED"/>
<path d="M31.5937 27.2507L31.1494 29.8702C31.5421 30.6607 31.9606 31.6389 32.3877 32.6946C32.3877 32.6946 32.7356 30.4609 32.789 29.3501L32.3205 27.1439C32.3205 27.1439 31.8176 27.094 31.5937 27.249V27.2507Z" fill="#002E46"/>
<path d="M31.0356 26.8304L32.1379 27.6622L32.7165 26.51L31.8778 26.0071L31.0356 26.8304Z" fill="#00445F"/>
<path d="M26.7473 24.9394C26.8076 25.1667 26.8782 25.3992 26.954 25.6351C27.2451 26.5307 27.6395 27.4814 28.0872 28.432C29.9369 32.3587 32.6907 36.2784 32.7269 36.3318L32.8647 36.5282L32.9611 36.3077C34.2097 33.4609 34.3923 30.1749 34.3268 27.9188C34.2975 26.9182 34.2183 26.0261 34.1339 25.32C34.0874 24.9325 34.0409 24.6018 33.9996 24.34C33.9927 24.2987 33.9876 24.2591 33.9807 24.2212C33.8739 24.3107 33.8153 24.3624 33.8153 24.3624L33.7292 24.3727C33.8446 25.1012 34.0099 26.386 34.0547 27.9343C34.1167 30.1026 33.9479 33.2301 32.8061 35.9771C32.2051 35.1022 29.7939 31.5182 28.1888 28.0204C27.7944 27.1627 27.45 26.3085 27.1917 25.5025C27.1331 25.32 27.0797 25.1426 27.0315 24.9652C26.9402 24.96 26.8438 24.9514 26.7439 24.9411L26.7473 24.9394Z" fill="#EDC35C"/>
<path d="M40.2564 52.5397C39.1249 52.9221 36.5519 53.7091 33.2349 54.2258L33.29 55.1524C33.29 55.1524 36.557 55.1644 40.4268 53.5145C40.4268 53.5145 40.3631 53.1546 40.2581 52.538L40.2564 52.5397Z" fill="#001E37"/>
<path d="M23.9987 55.3693C23.9987 55.3693 29.403 56.6575 32.8388 55.1799L32.8474 54.2843C30.2469 54.6649 27.2192 54.8681 24.083 54.5857C24.0434 54.8767 24.0142 55.1385 23.9987 55.3693Z" fill="#001E37"/>
<path d="M28.8226 20.9918L29.4374 20.7025C29.4374 20.7025 29.3651 18.4912 29.837 18.1657C30.3089 17.8384 33.8239 18.455 33.8239 18.455C33.8239 18.455 34.1632 18.0003 34.2803 17.4613C34.3251 17.2512 34.3371 17.0307 34.2803 16.8189C34.2717 16.7862 34.2631 16.7517 34.2493 16.719C33.8618 15.6633 32.5064 15.312 30.8393 15.6736C30.1177 15.8303 29.6561 16.3401 29.3944 16.676C29.3083 16.7827 29.2411 16.8912 29.1894 16.9911C29.0275 17.3011 29.0017 17.5491 29.0017 17.5491C29.0017 17.5491 28.1681 17.4768 28.0235 18.8907C27.8788 20.3029 28.3145 20.9195 28.8226 20.9918Z" fill="#001E37"/>
<path d="M28.2783 21.4999C28.6038 22.5505 29.1842 22.3697 29.1842 22.3697C29.365 24.1091 28.931 24.6895 28.931 24.6895C29.88 25.8279 31.0149 26.0035 31.6866 25.9898C31.8709 25.9863 32.0207 25.9674 32.1206 25.9501C32.2015 25.9364 32.2532 25.8623 32.2429 25.7814C32.1016 24.705 32.7165 23.6596 32.7165 23.6596C29.2893 23.1757 29.4391 20.7008 29.4391 20.7008L29.1859 20.52C28.6055 20.1583 27.9528 20.4477 28.28 21.4982L28.2783 21.4999Z" fill="#F7B385"/>
<path d="M29.968 22.6227C30.8067 23.5664 32.0674 23.8144 32.8234 23.6388C32.8424 23.6336 32.8596 23.6302 32.8768 23.625C32.9905 23.594 33.0904 23.5544 33.1748 23.5062C33.2023 23.4907 33.2282 23.4734 33.2505 23.4562C33.378 23.3615 33.4934 23.2099 33.5915 23.0412C33.8568 22.5744 33.8585 22.0802 33.8172 21.5497L33.7138 20.3735V20.3648L33.75 19.7001L33.8172 18.4566C33.7431 18.3946 33.6673 18.3378 33.5915 18.2861C31.7832 17.0306 29.627 18.1673 29.627 18.1673C29.627 18.1673 28.7039 21.2018 29.9663 22.6261L29.968 22.6227Z" fill="#F7B385"/>
<path d="M32.8234 23.6406C32.8234 23.6406 32.8423 23.6406 32.8768 23.6268C32.8905 23.6217 32.906 23.6131 32.9233 23.6027L32.8234 23.6406Z" fill="#F3876A"/>
<path d="M31.1941 21.6964H33.3158C33.3158 21.6964 33.3589 22.6884 32.255 22.6884C31.151 22.6884 31.1941 21.6964 31.1941 21.6964Z" fill="white"/>
<path d="M31.6315 19.316L31.6195 19.5003C31.6195 19.5003 31.2354 19.3694 30.8548 19.5296C30.4742 19.6897 30.4484 19.7672 30.4484 19.7672L30.3519 19.5967C30.3519 19.5967 30.7928 19.0628 31.6315 19.316Z" fill="#001E37"/>
<path d="M30.2624 17.9643C30.2624 17.9643 30.2177 18.6446 29.5856 18.9356C29.5856 18.9356 29.5391 20.2032 29.7337 20.8542H29.3204L29.0896 18.7341C29.0896 18.7341 29.7389 17.52 30.2642 17.966L30.2624 17.9643Z" fill="#001E37"/>
<path d="M29.8008 18.0848C29.8008 18.0848 31.573 17.7473 32.0311 17.978C32.6666 18.2984 32.6545 17.7679 33.5931 18.2743C33.5931 18.2743 33.65 18.6824 33.7929 18.8994L33.817 18.4551L33.1884 17.6215L32.1792 17.2478L31.1407 17.067L30.1022 17.0308L29.7991 18.0865L29.8008 18.0848Z" fill="#001E37"/>
<path d="M29.7336 22.3024C29.7336 22.3024 29.7629 23.7611 31.0839 24.4121C31.3078 24.5223 31.4955 24.6963 31.604 24.9219C31.7194 25.1613 31.79 25.5091 31.6866 25.9914C31.8744 25.9879 32.0276 25.969 32.1275 25.9518C32.2033 25.9397 32.255 25.8674 32.2446 25.7916C32.1 24.7135 32.7165 23.6629 32.7165 23.6629C32.7165 23.6629 30.8617 24.0831 29.7336 22.3041V22.3024Z" fill="#F3876A"/>
<path d="M28.635 20.9074C28.635 20.9074 29.3222 20.8781 29.088 21.8374C29.088 21.8374 29.1362 21.1433 28.635 20.9074Z" fill="#F3876A"/>
<path d="M29.0672 21.5499C29.0672 21.5499 28.9638 21.2399 28.7158 21.3725C28.7158 21.3725 28.7658 21.2038 29.0258 21.2451L29.0654 21.5482L29.0672 21.5499Z" fill="#F3876A"/>
<path d="M32.0206 20.9917C32.0206 20.9917 32.0292 20.7144 32.4822 20.7144C32.8869 20.7144 32.9971 20.9917 32.9971 20.9917H32.0206Z" fill="#F3876A"/>
<path d="M33.6517 19.6659L33.5707 19.8674C33.5707 19.8674 33.4037 19.616 33.0592 19.554C32.7957 19.5075 32.6597 19.5678 32.6597 19.5678L32.6562 19.4024C32.6562 19.4024 33.1264 19.1389 33.6534 19.6659H33.6517Z" fill="#001E37"/>
<path d="M32.9025 22.8518C32.9025 22.8518 32.8388 22.9327 32.3686 22.9551C31.8985 22.9775 31.6091 22.857 31.6091 22.857C31.6091 22.857 32.3428 23.5648 32.9025 22.8518Z" fill="#F3876A"/>
<path d="M29.1482 17.3444C29.1482 17.3444 28.9863 17.1601 28.6246 17.1188C28.6246 17.1188 28.6332 17.5252 29.1482 17.5855V17.3444Z" fill="#001E37"/>
<path d="M28.9638 17.4978C28.9638 17.4978 28.7537 17.372 28.3955 17.4444C28.3955 17.4444 28.5298 17.8284 29.0379 17.7268L28.9638 17.4978Z" fill="#001E37"/>
<path d="M31.5385 20.0035C31.5385 20.0035 31.3405 19.7108 31.0081 19.7762C30.5724 19.8623 30.5448 20.2515 30.5448 20.2515C30.5448 20.2515 30.9185 19.6866 31.5402 20.0035H31.5385Z" fill="#001E37"/>
<path d="M32.5598 20.0516C32.5598 20.0516 32.7217 19.8019 33.0024 19.8518C33.371 19.9173 33.4003 20.2445 33.4003 20.2445C33.4003 20.2445 33.0782 19.7743 32.5598 20.0499V20.0516Z" fill="#001E37"/>
<path d="M19.9842 29.1896L20.6059 29.2826C20.2821 26.732 21.2069 23.9868 21.4877 23.2307C21.0795 23.0912 20.8694 23.0292 20.8694 23.0292C20.8694 23.0292 19.4503 25.6074 19.9824 29.1879L19.9842 29.1896Z" fill="#001E37"/>
<path d="M34.8125 30.6227L34.9899 31.8179C35.0519 32.2399 35.4446 32.5309 35.8665 32.4689C35.8855 32.4655 35.9044 32.462 35.9216 32.4586C36.1335 32.4121 36.3074 32.2795 36.4125 32.1055C36.502 31.9574 36.5433 31.7766 36.5158 31.5923L36.3384 30.3971L34.8108 30.6244L34.8125 30.6227Z" fill="#EDC35C"/>
<path opacity="0.4" d="M35.2621 30.5569L36.5004 31.4748L36.4366 31.0477L35.6892 30.4932L35.2621 30.5569Z" fill="white"/>
<path opacity="0.4" d="M34.8625 30.955L34.9814 31.761L35.9234 32.4585C36.1353 32.412 36.3092 32.2793 36.4143 32.1054L34.8625 30.955Z" fill="white"/>
<path d="M30.4883 3.67522L29.0416 0.418499L35.1366 0L39.3233 6.07771L35.3777 6.35327C35.3777 6.35327 32.7323 5.80904 30.49 3.67522H30.4883Z" fill="#001E37"/>
<path d="M30.4212 3.77161C30.4212 3.77161 30.583 4.8945 31.6784 5.78661C32.5602 6.50477 34.5545 7.08172 35.4139 7.11788C35.4139 7.11788 35.376 5.29577 33.6727 4.44155C31.9694 3.58733 30.8672 3.46678 30.4194 3.77161H30.4212Z" fill="#001E37"/>
<path d="M30.4211 3.77176C30.4211 3.77176 31.141 2.57654 32.0659 2.00476C32.0659 2.00476 35.2675 2.32509 36.1854 4.6122C36.1854 4.6122 36.1734 5.32348 35.4139 7.11631C34.1807 3.61159 30.4211 3.77004 30.4211 3.77004V3.77176Z" fill="#00445F"/>
<path d="M25.1736 6.46845C24.08 6.33239 23.6047 5.49367 23.584 5.45751L23.7614 5.35934C23.782 5.39551 24.2625 6.23939 25.3854 6.28245C26.4756 6.3255 26.9854 5.65728 27.7586 3.17557C28.4458 0.965959 30.1542 1.15196 30.1715 1.15368L30.1474 1.35518C30.0836 1.34829 28.587 1.19329 27.9515 3.23584C27.2248 5.56945 26.7081 6.53734 25.3785 6.48567C25.3079 6.48223 25.239 6.47706 25.1736 6.46845Z" fill="#001E37"/>
<path d="M23.9766 5.42653L23.4582 5.72103L22.5851 4.86853C22.5851 4.86853 23.181 4.28987 23.5909 4.31742L23.9766 5.42653Z" fill="#001E37"/>
</svg>
