<svg width="64" height="71" viewBox="0 0 64 71" fill="none" xmlns="http://www.w3.org/2000/svg">
<path d="M60.2395 53.9846L39.7675 65.8857C35.4082 68.4232 28.3101 68.4232 23.9212 65.8857L3.30733 53.9846C1.10102 52.707 -0.00508871 51.033 0.000826314 49.365V51.731C-0.0110037 53.405 1.09511 55.0789 3.30141 56.3506L23.9094 68.2458C28.2983 70.7833 35.3904 70.7833 39.7557 68.2458L60.2276 56.3447C62.3925 55.0848 63.4809 53.4404 63.4809 51.7902V49.4241C63.4809 51.0744 62.3984 52.7247 60.2335 53.9787L60.2395 53.9846Z" fill="#0184E9"/>
<path d="M60.1862 44.8042C64.5751 47.3417 64.5988 51.4468 60.2394 53.9843L39.7675 65.8853C35.4081 68.4229 28.3101 68.4229 23.9212 65.8853L3.3073 53.9843C-1.08165 51.4468 -1.10531 47.3417 3.25407 44.8042L23.7319 32.9032C28.0913 30.3656 35.1893 30.3656 39.5782 32.9032L60.1862 44.8042Z" fill="#EAEDFF"/>
<path d="M29.8675 11.7841C29.8675 11.7841 26.3564 12.3248 24.5644 16.1335C22.7724 19.9423 22.7967 20.0699 23.2826 20.7016C23.7686 21.3334 27.5288 22.3479 28.3428 19.0129C29.1568 15.6779 29.8675 11.7841 29.8675 11.7841Z" fill="#EC394F"/>
<path d="M33.663 45.1702C33.663 45.1702 33.2621 47.3814 33.8331 48.2865C34.4041 49.1977 35.8924 49.4953 36.5789 49.5196C37.2714 49.55 38.6564 48.821 38.6685 48.25C38.7293 46.2211 36.9494 45.4739 36.5303 45.0669C36.1111 44.6599 33.657 45.1641 33.657 45.1641L33.663 45.1702Z" fill="#282660"/>
<path d="M37.2053 30.8583C37.2053 30.8583 37.6791 42.0599 36.7861 43.3598C35.8871 44.6598 34.1194 44.8785 33.7185 42.9953C33.3236 41.1183 31.7017 33.3367 32.2059 32.6138C32.7101 31.891 37.2053 30.8583 37.2053 30.8583Z" fill="#FFB27D"/>
<path d="M26.5689 34.2847C26.5689 34.2847 27.468 43.7732 28.8591 43.8947C31.3618 44.1134 32.0239 37.1519 31.6655 35.2019C31.1431 32.3894 26.5689 34.2847 26.5689 34.2847Z" fill="#FFB27D"/>
<path d="M27.03 23.405C27.03 23.405 26.1674 25.8713 25.6328 36.35C25.6328 36.35 30.5836 38.2331 34.1494 35.7729L29.0407 24.0672L27.03 23.405Z" fill="#282660"/>
<path d="M38.0132 24.2614C38.0132 24.2614 39.3375 29.9047 39.2099 37.0363C39.2099 37.0363 33.7428 38.4334 30.9545 37.0363C30.9545 37.0363 29.6849 31.0953 29.6849 30.8827C29.6849 30.6701 27.0364 24.6015 27.0364 24.6015L38.0193 24.2614H38.0132Z" fill="#2E3192"/>
<path d="M30.5045 44.0039C30.5045 44.0039 30.8629 44.18 30.875 44.3197C30.8872 44.4594 31.5858 45.4314 30.9358 46.7799C30.4741 47.7337 27.9653 48.2561 27.9653 48.2561C27.9653 48.2561 26.5013 48.5477 25.092 47.679C24.7154 47.4482 24.4724 45.9963 25.7784 45.1945C27.9896 43.8338 29.1681 43.9735 29.1681 43.9735L30.5045 44.0039Z" fill="#282660"/>
<path d="M33.2439 11.3649C33.2439 11.3649 36.2387 11.6443 36.9616 12.519C37.6844 13.3938 38.0671 18.5876 37.8363 19.8025C37.8363 19.8025 38.2068 23.3683 38.3709 24.8809C38.5349 26.3934 27.6127 27.0799 26.5618 24.4799L26.8534 20.2459C26.8534 20.2459 26.8595 13.1812 28.1291 12.349C29.7692 11.2677 31.8589 11.3649 31.8589 11.3649H33.2378H33.2439Z" fill="#FF445B"/>
<path d="M35.2312 11.7841C35.2312 11.7841 38.2321 12.1061 40.0241 15.9088C41.8161 19.7176 41.2754 20.5619 40.7895 21.1937C40.3035 21.8254 37.5699 22.3479 36.7559 19.0129C35.9419 15.6779 35.2312 11.7841 35.2312 11.7841Z" fill="#EC394F"/>
<path d="M33.5298 42.0963C33.5298 42.0963 34.605 43.214 37.1017 42.1996C37.1017 42.1996 36.8223 44.7509 36.7858 45.1579C36.6947 46.1056 33.8153 46.0084 33.7607 45.2187C33.706 44.4593 33.5359 42.0963 33.5359 42.0963H33.5298Z" fill="white"/>
<path d="M27.5527 41.0152C27.5527 41.0152 28.6279 42.224 31.1184 41.2096C31.1184 41.2096 30.9605 43.7913 30.918 44.1983C30.8269 45.1459 27.8321 44.9272 27.7713 44.1375C27.7167 43.3782 27.5466 41.0152 27.5466 41.0152H27.5527Z" fill="#BCBEC0"/>
<path d="M34.2528 11.5047C33.6758 11.4075 33.2445 11.3649 33.2445 11.3649H31.8655C31.8655 11.3649 31.1305 11.3346 30.1829 11.529C30.7296 12.0574 32.2422 13.1023 34.2528 11.5047Z" fill="#E5846F"/>
<path d="M34.5566 10.5023C34.5566 10.5023 32.8071 12.9382 30.4137 11.3102C28.5913 10.0771 27.7651 3.38288 28.7675 2.253C29.7698 1.12313 34.3804 0.19371 35.5164 2.53243C36.4032 4.36089 35.5953 8.93507 34.5566 10.4962V10.5023Z" fill="#FFB27D"/>
<path d="M36.5856 7.54391C36.8285 6.79066 36.7192 6.07993 36.3365 5.95844C35.9538 5.83694 35.4496 6.34721 35.2005 7.10046C34.9576 7.85371 35.0669 8.56444 35.4496 8.68594C35.8323 8.80743 36.3365 8.29716 36.5856 7.54391Z" fill="#FFB27D"/>
<path d="M27.6497 7.702C27.4067 6.94874 27.5161 6.23802 27.8988 6.11652C28.2815 5.99503 28.7917 6.5053 29.0347 7.25248C29.2777 8.00573 29.1684 8.71646 28.7857 8.83795C28.403 8.95944 27.8988 8.44917 27.6497 7.69592V7.702Z" fill="#FFB27D"/>
<path d="M34.2651 2.50212C34.2165 2.45352 34.7814 4.81047 32.1207 5.38756C29.46 5.96465 28.3484 7.16134 28.2633 7.70198C28.2633 7.70198 26.8358 5.46045 27.2367 3.5348C27.2853 3.27967 28.9194 0.309185 29.0105 0.260588C29.1016 0.211992 31.7076 -0.176783 32.4002 0.0965739C33.0927 0.376006 35.237 0.904497 35.4314 1.04421C35.6258 1.18393 36.3304 3.14603 36.3304 3.14603L37.0776 3.85676L36.5491 6.3595C36.5491 6.3595 35.6926 7.29499 35.6318 7.459C35.5711 7.62301 35.8748 4.16049 34.2651 2.49604V2.50212Z" fill="#2E3192"/>
<path d="M31.8954 18.685C31.8954 18.685 33.0678 18.1686 33.6205 18.1929C34.1733 18.2111 34.6046 18.2111 34.8355 19.4139C35.0663 20.6167 33.2682 21.5339 32.6365 20.4284C32.6365 20.4284 32.4056 19.7419 32.4664 19.2985C32.4664 19.2985 32.0472 19.2985 31.7982 19.262C31.5491 19.2256 31.5491 18.8611 31.8954 18.685Z" fill="#FFB27D"/>
<path d="M32.9766 18.442C32.9766 18.442 34.2583 17.4457 39.0633 18.7032C39.0633 18.7032 40.8614 18.9158 40.904 20.7321C40.9404 22.5423 36.6943 21.9713 34.3069 20.234C31.9196 18.4966 32.9827 18.442 32.9827 18.442H32.9766Z" fill="#FFB27D"/>
<path d="M32.3756 19.8086C32.3756 19.8086 31.2822 19.1465 30.7294 19.0918C30.1766 19.0371 29.7514 18.9825 29.3626 20.1427C28.9799 21.303 30.6383 22.4511 31.4037 21.4366C31.4037 21.4366 31.7195 20.7866 31.7256 20.3432C31.7256 20.3432 32.1448 20.3978 32.3938 20.3918C32.6429 20.3918 32.6915 20.0273 32.3756 19.8086Z" fill="#FFB27D"/>
<path d="M31.3374 19.42C31.3374 19.42 30.2014 18.2658 25.2689 18.8733C25.2689 18.8733 23.4586 18.849 23.1792 20.641C22.8998 22.433 27.1945 22.427 29.7884 21.0176C32.3822 19.6083 31.3374 19.42 31.3374 19.42Z" fill="#FFB27D"/>
</svg>
