<svg width="64" height="71" viewBox="0 0 64 71" fill="none" xmlns="http://www.w3.org/2000/svg">
<path d="M60.2392 53.9846L39.7673 65.8857C35.4079 68.4232 28.3099 68.4232 23.9209 65.8857L3.30708 53.9846C1.10078 52.707 -0.00533285 51.033 0.000582173 49.365V51.731C-0.0112479 53.405 1.09486 55.0789 3.30117 56.3506L23.9091 68.2458C28.2981 70.7833 35.3902 70.7833 39.7555 68.2458L60.2274 56.3447C62.3923 55.0848 63.4806 53.4404 63.4806 51.7902V49.4241C63.4806 51.0744 62.3982 52.7247 60.2333 53.9787L60.2392 53.9846Z" fill="#0184E9"/>
<path d="M60.1862 44.8042C64.5751 47.3417 64.5988 51.4468 60.2394 53.9843L39.7675 65.8853C35.4081 68.4229 28.3101 68.4229 23.9212 65.8853L3.3073 53.9843C-1.08165 51.4468 -1.10531 47.3417 3.25407 44.8042L23.7319 32.9032C28.0913 30.3656 35.1893 30.3656 39.5782 32.9032L60.1862 44.8042Z" fill="#FFF5F5"/>
<path d="M40.6821 33.6055L39.4941 33.386L40.3453 35.3559L41.034 34.1439L40.6821 33.6055Z" fill="#B06E32"/>
<path d="M40.7871 34.3271C41.2172 34.688 41.8458 34.6489 42.1886 34.2369C42.5315 33.8278 42.4623 33.2023 42.0292 32.8414C41.5992 32.4805 40.9706 32.5196 40.6277 32.9316C40.2849 33.3436 40.354 33.9662 40.7871 34.3271Z" fill="#32A45B"/>
<path d="M41.2863 33.84C41.4547 33.9814 41.7044 33.9663 41.8397 33.8039C41.975 33.6415 41.948 33.3949 41.7765 33.2535C41.6081 33.1122 41.3585 33.1272 41.2231 33.2896C41.0878 33.452 41.1149 33.6987 41.2863 33.84Z" fill="#F2EA35"/>
<path d="M43.8879 45.4314L42.7842 44.9352L43.1421 47.0525L44.0985 46.0359L43.8879 45.4314Z" fill="#B06E32"/>
<path d="M37.7917 30.1349C37.7917 30.1349 39.118 31.6086 39.3947 32.1439C41.1993 35.6086 43.3557 44.6102 43.2865 48.517C43.2685 49.6027 42.697 50.8238 42.1466 51.4103C41.5662 52.0298 41.079 52.0118 41.079 52.0118C41.079 52.0118 42.3361 48.2644 42.3391 46.9651C42.3481 43.1967 38.7662 32.3184 38.7662 32.3184L37.2744 30.4086L37.7917 30.1379V30.1349Z" fill="#424242"/>
<path d="M36.0806 31.1482L37.0099 33.2836C37.0099 33.2836 40.622 43.6235 40.7513 47.2326C40.7844 48.1769 40.1979 50.0145 40.0385 50.9469C39.9753 51.3138 39.9393 52.2161 41.0791 52.0146C41.0791 52.0146 42.7062 51.41 42.7814 48.6942C42.8897 44.9258 40.622 35.7377 38.7663 32.3211C38.4445 31.7287 37.1482 30.1647 37.1482 30.1647L36.0836 31.1512L36.0806 31.1482Z" fill="#6F6F6F"/>
<path d="M43.8158 46.1559C44.1496 46.6101 44.7692 46.7214 45.1993 46.4026C45.6293 46.0868 45.7105 45.4612 45.3767 45.0071C45.0429 44.5529 44.4233 44.4416 43.9932 44.7604C43.5631 45.0792 43.4819 45.7018 43.8158 46.1559Z" fill="#32A45B"/>
<path d="M44.4174 45.8043C44.5497 45.9817 44.7933 46.0268 44.9617 45.9005C45.1302 45.7742 45.1632 45.5306 45.0309 45.3501C44.8986 45.1727 44.655 45.1276 44.4865 45.2539C44.3181 45.3772 44.285 45.6238 44.4174 45.8043Z" fill="#F2EA35"/>
<path d="M35.9659 29.3467C35.9659 29.3467 35.629 29.8339 35.4666 30.5317C35.3072 31.2264 35.2982 32.0926 35.8606 32.4114C36.423 32.7302 36.4892 30.9647 36.4892 30.9647C36.4892 30.9647 37.599 31.6896 37.9088 32.3843C38.2185 33.079 38.1524 33.7197 38.6877 33.4279C39.2231 33.1362 38.79 32.0174 38.5945 31.6595C38.396 31.3016 38.6877 31.3016 38.9885 32.1377C39.2892 32.9738 38.9614 33.1242 39.1298 33.2866C39.2982 33.446 39.59 33.2775 39.7133 32.676C39.8366 32.0745 39.6381 31.7467 39.6381 31.7467C39.6381 31.7467 39.7704 31.4941 39.611 31.0219C39.4516 30.5527 38.4441 29.4339 38.4441 29.4339L35.9629 29.3497L35.9659 29.3467Z" fill="#FFB27D"/>
<path d="M33.5509 39.2059L34.4021 48.5083L32.1464 48.6226L30.4893 39.7142L33.5509 39.2059Z" fill="#FFB27D"/>
<path d="M34.2517 45.2029L31.3584 45.4075L32.014 49.0376L34.5705 48.8661L34.2517 45.2029Z" fill="#282660"/>
<path d="M37.9752 50.1833L37.4308 49.8464C37.4308 49.8464 37.2233 49.3953 36.4533 49.0374C35.6834 48.6795 35.2503 48.7938 35.2503 48.7938C35.2503 48.7938 34.9676 48.4178 34.5736 48.4178C34.1796 48.4178 33.2413 48.9562 33.2413 48.9562L31.9691 48.7697C31.9691 48.7697 31.7556 48.8118 31.6052 49.2449C31.4548 49.678 31.6052 50.054 31.6052 50.054C31.6052 50.054 31.3435 51.0495 31.4548 51.7652H39.0489C39.0489 51.7652 39.106 50.2976 37.9782 50.1863L37.9752 50.1833Z" fill="#282660"/>
<path d="M22.4952 39.2059L21.644 48.5083L23.8997 48.6226L25.5569 40.2886L22.4952 39.2059Z" fill="#FFB27D"/>
<path d="M34.5377 22.2488C34.5377 22.2488 35.4399 24.8413 35.5903 26.3451C35.7407 27.8489 35.9272 29.4278 35.9272 29.4278H38.4475C38.4475 29.4278 38.4475 24.6518 37.9212 22.8112C37.3948 20.9706 37.2054 20.7059 37.2054 20.7059L34.5347 22.2458L34.5377 22.2488Z" fill="#FFB27D"/>
<path d="M21.9809 30.138L20.9644 39.0163C20.9644 39.0163 22.3027 39.9757 23.9208 40.2012C25.5388 40.4268 27.0246 40.1561 27.0246 40.1561L28.2787 34.2403L29.0667 40.0478C29.0667 40.0478 30.1945 40.3456 32.1103 40.2884C34.0261 40.2313 35.5871 39.0884 35.5871 39.0884L33.178 27.9695L23.0155 27.4372L21.9749 30.132L21.9809 30.138Z" fill="#2E3192"/>
<path d="M27.1962 13.7645C27.1962 13.7645 25.1932 13.8638 23.936 14.0232C21.3224 14.354 17.8638 21.2714 17.8638 21.2714C17.8638 21.2714 20.8021 22.1616 21.9059 22.6609L23.9751 19.5902L23.0217 27.4399C23.0217 27.4399 25.2804 28.6519 28.7872 28.4745C32.297 28.3 33.1842 27.9692 33.1842 27.9692L33.2744 20.5045L34.0895 22.5827C34.0895 22.5827 35.3557 22.4203 36.2309 22.0954C37.1091 21.7706 38.1106 20.8924 38.1106 20.8924C38.1106 20.8924 35.2985 15.163 33.2534 14.36C31.2083 13.557 27.1962 13.7585 27.1962 13.7585V13.7645Z" fill="#FC4B55"/>
<path d="M27.0008 13.7409C27.0008 13.7409 26.7873 14.0988 27.0459 14.8026C27.3016 15.5064 27.9602 15.6778 28.8625 15.6206C29.7647 15.5635 30.4234 15.2267 30.4805 14.6041C30.5377 13.9845 30.3482 13.8131 30.3482 13.8131L27.0038 13.7379L27.0008 13.7409Z" fill="#474942"/>
<path d="M27.5146 13.2144V14.3783C27.5146 14.3783 28.1252 14.8686 28.7989 14.8385C29.4726 14.8084 29.7162 14.625 29.7162 14.625V13.2174H27.5146V13.2144Z" fill="#C18761"/>
<path d="M24.9254 6.02401C24.8652 6.07514 24.3359 9.05261 24.3359 9.05261C24.3359 9.05261 23.8667 10.4511 24.6427 11.9519C25.4186 13.4527 26.9976 14.1414 28.6577 13.982C30.3179 13.8226 32.7149 12.6857 32.4232 9.48269L32.0202 6.52327C32.0202 6.52327 27.9479 3.45557 24.9193 6.02702L24.9254 6.02401Z" fill="#FFB27D"/>
<path d="M25.1086 7.97247C25.1086 7.97247 24.9191 7.31682 24.3116 7.75893C23.7041 8.20104 23.7041 9.5003 24.2514 9.64767C24.7988 9.79504 25.0906 8.97398 25.1086 7.97247Z" fill="#FFB27D"/>
<path d="M32.4893 8.13475C32.4893 8.13475 32.7028 7.58437 33.1599 7.73174C33.6141 7.87911 34.2066 8.79641 33.6562 9.66559C33.1058 10.5348 32.5705 10.0355 32.5705 10.0355L32.4893 8.13475Z" fill="#FFB27D"/>
<path d="M27.3316 8.09578C27.3316 8.48977 27.1842 8.80857 27.0008 8.80857C26.8173 8.80857 26.6699 8.48977 26.6699 8.09578C26.6699 7.7018 26.8173 7.383 27.0008 7.383C27.1842 7.383 27.3316 7.7018 27.3316 8.09578Z" fill="#515151"/>
<path d="M30.4864 8.30013C30.4864 8.69412 30.339 9.01292 30.1555 9.01292C29.9721 9.01292 29.8247 8.69412 29.8247 8.30013C29.8247 7.90614 29.9721 7.58734 30.1555 7.58734C30.339 7.58734 30.4864 7.90614 30.4864 8.30013Z" fill="#515151"/>
<path d="M27.6231 10.2341C27.6231 10.2341 28.1314 10.5951 28.76 10.5951C29.3886 10.5951 29.7916 10.3334 29.7916 10.3334C29.7916 10.3334 29.572 11.1575 28.7058 11.0552C27.8427 10.956 27.6201 10.3725 27.6201 10.2311L27.6231 10.2341Z" fill="#515151"/>
<path d="M28.2244 9.28937C28.2244 9.28937 28.2033 9.57509 28.5432 9.57509C28.883 9.57509 28.6063 9.22922 28.2244 9.28937Z" fill="#515151"/>
<path d="M31.1931 5.0702C31.1931 5.0702 30.0653 6.13487 28.9495 6.26119C27.8337 6.3875 27.4848 5.83411 27.4848 5.83411C27.4848 5.83411 26.8201 6.51081 26.1825 6.63713C25.5449 6.76345 25.193 6.63713 25.193 6.63713L24.9554 7.85218C24.9554 7.85218 24.4412 7.33187 23.9419 8.3003C23.9419 8.3003 23.6291 7.3018 23.6532 6.48675C23.6532 6.48675 25.7344 3.98147 26.0472 3.53033C26.36 3.0792 26.781 2.74236 29.6923 3.7559C32.6036 4.76944 31.1961 5.07321 31.1961 5.07321L31.1931 5.0702Z" fill="#515151"/>
<path d="M30.7181 5.13287C30.7181 5.13287 30.9196 6.91334 31.5452 7.32537C32.1708 7.74041 32.4475 7.70733 32.4475 7.70733L32.5858 8.20358C32.5858 8.20358 32.7723 7.93891 33.049 7.87876C33.3287 7.81861 33.6084 8.09831 33.6084 8.09831C33.6084 8.09831 33.4069 6.5013 33.2986 5.97498C33.2986 5.97498 33.1723 4.1073 31.7076 3.96895C30.2429 3.8306 30.7181 5.13588 30.7181 5.13588V5.13287Z" fill="#515151"/>
<path d="M24.1584 28.0445L22.417 30.8476C22.417 30.8476 21.3584 30.0385 21.3102 28.9438C21.3102 28.9438 21.3042 28.9378 21.2922 28.9227C21.0426 28.6611 18.5734 26.0265 18.3177 24.64C18.0531 23.1783 18.829 21.4941 18.829 21.4941L21.8215 22.4986C21.8215 22.4986 21.1659 23.837 21.1418 24.3964C21.1208 24.9076 22.5644 26.8986 22.817 27.2415C22.8411 27.2746 22.8531 27.2926 22.8531 27.2926C22.8772 27.2926 23.4125 27.2956 23.7464 27.5573C24.0832 27.825 24.1584 28.0445 24.1584 28.0445Z" fill="#FFB27D"/>
<path d="M22.817 27.2415L21.2922 28.9227C21.0426 28.6611 18.5734 26.0265 18.3177 24.64C18.0531 23.1783 18.829 21.4941 18.829 21.4941L21.8215 22.4986C21.8215 22.4986 21.1659 23.837 21.1418 24.3964C21.1208 24.9076 22.5644 26.8986 22.817 27.2415Z" fill="#FFB27D"/>
<path d="M20.7931 24.2216L19.3345 24.4803C19.3345 24.4803 20.1826 25.2412 20.7931 24.2216Z" fill="#FFA262"/>
<path d="M21.7944 45.2029L24.6876 45.4075L24.032 49.0376L21.4756 48.8661L21.7944 45.2029Z" fill="#282660"/>
<path d="M18.0712 50.1833L18.6155 49.8464C18.6155 49.8464 18.8231 49.3953 19.593 49.0374C20.3629 48.6795 20.796 48.7938 20.796 48.7938C20.796 48.7938 21.0787 48.4178 21.4727 48.4178C21.8667 48.4178 22.8051 48.9562 22.8051 48.9562L24.0772 48.7697C24.0772 48.7697 24.2908 48.8118 24.4412 49.2449C24.5915 49.678 24.4412 50.054 24.4412 50.054C24.4412 50.054 24.7028 51.0495 24.5915 51.7652H17.0005C17.0005 51.7652 16.9433 50.2976 18.0712 50.1863V50.1833Z" fill="#282660"/>
<path d="M21.8037 31.6057C21.8037 31.6057 23.139 31.9245 23.533 32.4509C23.927 32.9772 23.1961 36.1171 22.8563 36.6614C22.5164 37.2058 21.3706 36.9892 21.3706 36.9892C21.3706 36.9892 20.8864 36.9201 20.8172 36.1712C20.7119 35.0103 21.0488 33.0223 21.8037 31.6027V31.6057Z" fill="#35488B"/>
<path d="M27.9869 33.3017L26.4922 32.1739C26.4922 32.1739 26.6606 33.2837 27.9869 33.3017Z" fill="#35488B"/>
<path d="M28.6187 33.2085L30.2157 32.1739C30.2157 32.1739 29.5209 33.4701 28.6187 33.2085Z" fill="#35488B"/>
<path d="M27.8097 29.4311C27.8097 29.4311 27.4909 31.6507 27.8097 32.174C28.1285 32.7003 28.6187 32.6071 28.6187 32.6071C28.6187 32.6071 27.6232 31.8371 27.8097 29.4311Z" fill="#35488B"/>
<path d="M24.4619 28.7362C24.4619 28.7362 25.7582 29.3016 28.6154 29.3016C31.4725 29.3016 32.6365 28.9257 32.6365 28.9257C32.6365 28.9257 30.6244 29.7528 28.4259 29.6776C26.2274 29.6024 24.3477 29.0189 24.3477 29.0189L24.4619 28.7362Z" fill="#35488B"/>
<path d="M21.4756 38.3784C21.4756 38.3784 23.0545 39.5634 26.4952 39.5453C26.4952 39.5453 22.7718 40.1288 21.4756 38.3784Z" fill="#22336E"/>
<path d="M34.8141 38.5136C34.8141 38.5136 33.1419 39.5632 29.7163 39.2595C29.7163 39.2595 33.3765 40.1497 34.8141 38.5136Z" fill="#22336E"/>
<path d="M21.3706 33.6177C21.3706 33.6177 23.0819 33.1275 23.3556 32.932C23.6293 32.7365 22.5165 33.9185 21.3706 33.6177Z" fill="#22336F"/>
<path d="M21.6924 36.7183C21.6924 36.7183 22.2277 36.7544 22.6969 35.5724C23.1661 34.3904 23.1962 33.431 23.1962 33.431C23.1962 33.431 23.4127 33.8822 23.1119 35.1333C22.8112 36.3844 22.3661 36.6852 21.6924 36.7213V36.7183Z" fill="#22336F"/>
<path d="M21.5359 32.4207C21.5359 32.4207 21.2231 32.5079 21.19 32.8027C21.1599 33.0974 21.3103 33.1546 21.3103 33.1546C21.3103 33.1546 21.8817 33.0282 21.5359 32.4207Z" fill="#22336F"/>
<path d="M33.9479 31.3227C33.9479 31.3227 32.6125 31.6415 32.2185 32.1678C31.8246 32.6942 32.5554 35.834 32.8952 36.3784C33.2351 36.9228 34.381 36.7062 34.381 36.7062C34.381 36.7062 34.8652 36.637 34.9344 35.8882C35.0396 34.7273 34.7028 32.7393 33.9479 31.3197V31.3227Z" fill="#35488B"/>
<path d="M34.3814 33.3346C34.3814 33.3346 32.6701 32.8444 32.3964 32.6489C32.1227 32.4534 33.2355 33.6354 34.3814 33.3346Z" fill="#22336F"/>
<path d="M34.0597 36.4359C34.0597 36.4359 33.5243 36.472 33.0551 35.29C32.586 34.105 32.5559 33.1486 32.5559 33.1486C32.5559 33.1486 32.3393 33.5998 32.6401 34.8509C32.9409 36.102 33.386 36.4028 34.0597 36.4389V36.4359Z" fill="#22336F"/>
<path d="M34.2157 32.1377C34.2157 32.1377 34.5285 32.2249 34.5616 32.5197C34.5916 32.8144 34.4413 32.8715 34.4413 32.8715C34.4413 32.8715 33.8698 32.7452 34.2157 32.1377Z" fill="#22336F"/>
<path d="M24.3057 4.5617C24.3057 4.5617 24.426 3.06093 25.4215 2.16769C26.414 1.27445 27.3282 0.991739 27.5719 0.483463C27.8155 -0.0248123 28.4471 0.281958 28.4471 0.281958C28.4471 0.281958 28.7899 -0.124061 29.4395 0.0383462C30.0892 0.200754 30.1403 0.564667 30.1403 0.564667C30.1403 0.564667 30.414 0.46241 30.7779 0.766173C31.1418 1.06994 31.4877 1.92107 31.7524 2.14363C32.017 2.36619 33.0697 2.75115 33.2742 4.39328C33.4757 6.0354 24.3117 4.55568 24.3117 4.55568L24.3057 4.5617Z" fill="#35488B"/>
<path d="M23.7225 7.38274C23.7225 7.38274 24.2007 6.45942 26.2489 5.59625C28.297 4.73008 31.2113 5.48197 31.473 5.59625C31.7376 5.71054 33.1181 6.4113 33.5001 7.29251C33.5001 7.29251 34.0354 7.10003 33.876 5.9722C33.7166 4.84437 33.3647 4.18571 32.1226 3.75263C30.8805 3.31954 27.506 1.88795 23.8969 4.46542C23.0398 5.07895 23.7225 7.38274 23.7225 7.38274Z" fill="#2E3192"/>
<path d="M24.1582 18.9285L24.9763 17.524C24.9763 17.524 25.1176 19.0518 24.1582 18.9285Z" fill="#F7232F"/>
<path d="M33.1479 20.0087V16.8748C33.1479 16.8748 34.1254 18.3034 33.1479 20.0087Z" fill="#F7232F"/>
<path d="M35.8911 24.2221L37.2716 23.792C37.2716 23.792 36.7753 24.7153 35.8911 24.2221Z" fill="#FFA262"/>
<path d="M30.8174 3.79175V4.65191L31.9813 5.0068V4.19777L30.8174 3.79175Z" fill="#9A7A35"/>
</svg>
